Hubballi-Regular-50-45.ufo
<glyph name="exclam" format="1">
  <advance width="337"/>
  <unicode hex="0021"/>
  <outline>
    <contour>
      <point x="117" y="276" type="curve" smooth="yes"/>
      <point x="124" y="554" type="line" smooth="yes"/>
      <point x="125" y="581"/>
      <point x="148" y="604"/>
      <point x="175" y="603" type="curve" smooth="yes"/>
      <point x="202" y="602"/>
      <point x="225" y="579"/>
      <point x="224" y="552" type="curve" smooth="yes"/>
      <point x="217" y="274" type="line" smooth="yes"/>
      <point x="216" y="247"/>
      <point x="193" y="224"/>
      <point x="166" y="225" type="curve" smooth="yes"/>
      <point x="139" y="226"/>
      <point x="116" y="249"/>
    </contour>
    <component base="period" xOffset="49"/>
    <component base="period" xOffset="49"/>
  </outline>
</glyph>
<glyph name="quotedbl" format="1">
  <advance width="414"/>
  <unicode hex="0022"/>
  <outline>
    <contour>
      <point x="171" y="603" type="curve" smooth="yes"/>
      <point x="176" y="588"/>
      <point x="180" y="564"/>
      <point x="180" y="537" type="curve" smooth="yes"/>
      <point x="180" y="480"/>
      <point x="160" y="423"/>
      <point x="128" y="381" type="curve" smooth="yes"/>
      <point x="111" y="359"/>
      <point x="79" y="355"/>
      <point x="58" y="371" type="curve" smooth="yes"/>
      <point x="36" y="388"/>
      <point x="32" y="420"/>
      <point x="48" y="441" type="curve" smooth="yes"/>
      <point x="68" y="467"/>
      <point x="80" y="502"/>
      <point x="80" y="537" type="curve"/>
      <point x="80" y="550"/>
      <point x="80" y="562"/>
      <point x="77" y="569" type="curve" smooth="yes"/>
      <point x="68" y="594"/>
      <point x="82" y="624"/>
      <point x="107" y="633" type="curve" smooth="yes"/>
      <point x="132" y="642"/>
      <point x="162" y="628"/>
    </contour>
    <contour>
      <point x="331" y="593" type="curve" smooth="yes"/>
      <point x="336" y="576"/>
      <point x="339" y="552"/>
      <point x="339" y="529" type="curve" smooth="yes"/>
      <point x="339" y="471"/>
      <point x="319" y="421"/>
      <point x="287" y="377" type="curve" smooth="yes"/>
      <point x="271" y="356"/>
      <point x="239" y="351"/>
      <point x="217" y="367" type="curve" smooth="yes"/>
      <point x="196" y="383"/>
      <point x="191" y="415"/>
      <point x="207" y="437" type="curve" smooth="yes"/>
      <point x="227" y="463"/>
      <point x="239" y="493"/>
      <point x="239" y="529" type="curve" smooth="yes"/>
      <point x="239" y="542"/>
      <point x="238" y="554"/>
      <point x="235" y="563" type="curve" smooth="yes"/>
      <point x="227" y="589"/>
      <point x="242" y="618"/>
      <point x="268" y="626" type="curve" smooth="yes"/>
      <point x="294" y="634"/>
      <point x="323" y="619"/>
    </contour>
  </outline>
</glyph>
<glyph name="numbersign" format="1">
  <advance width="586"/>
  <unicode hex="0023"/>
  <outline>
    <contour>
      <point x="523" y="500" type="curve" smooth="yes"/>
      <point x="347" y="16" type="line" smooth="yes"/>
      <point x="338" y="-9"/>
      <point x="308" y="-23"/>
      <point x="283" y="-14" type="curve" smooth="yes"/>
      <point x="258" y="-5"/>
      <point x="244" y="25"/>
      <point x="253" y="50" type="curve" smooth="yes"/>
      <point x="429" y="534" type="line" smooth="yes"/>
      <point x="438" y="559"/>
      <point x="468" y="573"/>
      <point x="493" y="564" type="curve" smooth="yes"/>
      <point x="518" y="555"/>
      <point x="532" y="525"/>
    </contour>
    <contour>
      <point x="323" y="500" type="curve" smooth="yes"/>
      <point x="147" y="16" type="line" smooth="yes"/>
      <point x="138" y="-9"/>
      <point x="108" y="-23"/>
      <point x="83" y="-14" type="curve" smooth="yes"/>
      <point x="58" y="-5"/>
      <point x="44" y="25"/>
      <point x="53" y="50" type="curve" smooth="yes"/>
      <point x="229" y="534" type="line" smooth="yes"/>
      <point x="238" y="559"/>
      <point x="268" y="573"/>
      <point x="293" y="564" type="curve" smooth="yes"/>
      <point x="318" y="555"/>
      <point x="332" y="525"/>
    </contour>
    <contour>
      <point x="527" y="338" type="curve" smooth="yes"/>
      <point x="123" y="338" type="line" smooth="yes"/>
      <point x="96" y="338"/>
      <point x="73" y="361"/>
      <point x="73" y="388" type="curve" smooth="yes"/>
      <point x="73" y="415"/>
      <point x="96" y="438"/>
      <point x="123" y="438" type="curve" smooth="yes"/>
      <point x="527" y="438" type="line" smooth="yes"/>
      <point x="554" y="438"/>
      <point x="577" y="415"/>
      <point x="577" y="388" type="curve" smooth="yes"/>
      <point x="577" y="361"/>
      <point x="554" y="338"/>
    </contour>
    <contour>
      <point x="458" y="138" type="curve" smooth="yes"/>
      <point x="54" y="138" type="line" smooth="yes"/>
      <point x="27" y="138"/>
      <point x="4" y="161"/>
      <point x="4" y="188" type="curve" smooth="yes"/>
      <point x="4" y="215"/>
      <point x="27" y="238"/>
      <point x="54" y="238" type="curve" smooth="yes"/>
      <point x="458" y="238" type="line" smooth="yes"/>
      <point x="485" y="238"/>
      <point x="508" y="215"/>
      <point x="508" y="188" type="curve" smooth="yes"/>
      <point x="508" y="161"/>
      <point x="485" y="138"/>
    </contour>
  </outline>
</glyph>
<glyph name="dollar" format="1">
  <advance width="584"/>
  <unicode hex="0024"/>
  <outline>
    <contour>
      <point x="425" y="447" type="curve" smooth="yes"/>
      <point x="377" y="464"/>
      <point x="341" y="474"/>
      <point x="270" y="474" type="curve" smooth="yes"/>
      <point x="219" y="474"/>
      <point x="164" y="456"/>
      <point x="164" y="420" type="curve" smooth="yes"/>
      <point x="164" y="382"/>
      <point x="206" y="354"/>
      <point x="302" y="337" type="curve" smooth="yes"/>
      <point x="492" y="301"/>
      <point x="531" y="225"/>
      <point x="531" y="146" type="curve" smooth="yes"/>
      <point x="531" y="65"/>
      <point x="478" y="-26"/>
      <point x="293" y="-26" type="curve" smooth="yes"/>
      <point x="216" y="-26"/>
      <point x="144" y="-10"/>
      <point x="77" y="22" type="curve" smooth="yes"/>
      <point x="53" y="34"/>
      <point x="42" y="64"/>
      <point x="54" y="89" type="curve" smooth="yes"/>
      <point x="66" y="113"/>
      <point x="96" y="124"/>
      <point x="121" y="112" type="curve" smooth="yes"/>
      <point x="174" y="86"/>
      <point x="232" y="74"/>
      <point x="293" y="74" type="curve" smooth="yes"/>
      <point x="370" y="74"/>
      <point x="431" y="99"/>
      <point x="431" y="146" type="curve" smooth="yes"/>
      <point x="431" y="195"/>
      <point x="376" y="221"/>
      <point x="286" y="239" type="curve" smooth="yes"/>
      <point x="74" y="274"/>
      <point x="64" y="358"/>
      <point x="64" y="420" type="curve"/>
      <point x="64" y="490"/>
      <point x="125" y="574"/>
      <point x="270" y="574" type="curve" smooth="yes"/>
      <point x="357" y="574"/>
      <point x="399" y="562"/>
      <point x="459" y="541" type="curve" smooth="yes"/>
      <point x="484" y="532"/>
      <point x="498" y="503"/>
      <point x="489" y="477" type="curve" smooth="yes"/>
      <point x="480" y="452"/>
      <point x="451" y="438"/>
    </contour>
    <contour>
      <point x="339" y="616" type="curve" smooth="yes"/>
      <point x="339" y="-74" type="line" smooth="yes"/>
      <point x="339" y="-101"/>
      <point x="316" y="-124"/>
      <point x="289" y="-124" type="curve" smooth="yes"/>
      <point x="262" y="-124"/>
      <point x="239" y="-101"/>
      <point x="239" y="-74" type="curve" smooth="yes"/>
      <point x="239" y="616" type="line" smooth="yes"/>
      <point x="239" y="643"/>
      <point x="262" y="666"/>
      <point x="289" y="666" type="curve" smooth="yes"/>
      <point x="316" y="666"/>
      <point x="339" y="643"/>
    </contour>
  </outline>
</glyph>
<glyph name="percent" format="1">
  <advance width="806"/>
  <unicode hex="0025"/>
  <outline>
    <contour>
      <point x="208" y="575" type="curve" smooth="yes"/>
      <point x="290" y="575"/>
      <point x="366" y="505"/>
      <point x="366" y="389" type="curve" smooth="yes"/>
      <point x="366" y="281"/>
      <point x="302" y="203"/>
      <point x="208" y="203" type="curve" smooth="yes"/>
      <point x="122" y="203"/>
      <point x="49" y="282"/>
      <point x="49" y="388" type="curve"/>
      <point x="49" y="505"/>
      <point x="121" y="575"/>
    </contour>
    <contour>
      <point x="604" y="345" type="curve" smooth="yes"/>
      <point x="686" y="345"/>
      <point x="762" y="275"/>
      <point x="762" y="159" type="curve" smooth="yes"/>
      <point x="762" y="51"/>
      <point x="698" y="-27"/>
      <point x="604" y="-27" type="curve" smooth="yes"/>
      <point x="518" y="-27"/>
      <point x="445" y="52"/>
      <point x="445" y="158" type="curve" smooth="yes"/>
      <point x="445" y="275"/>
      <point x="517" y="345"/>
    </contour>
    <contour>
      <point x="598" y="493" type="curve" smooth="yes"/>
      <point x="315" y="8" type="line" smooth="yes"/>
      <point x="302" y="-16"/>
      <point x="270" y="-24"/>
      <point x="247" y="-10" type="curve" smooth="yes"/>
      <point x="223" y="3"/>
      <point x="215" y="35"/>
      <point x="229" y="58" type="curve" smooth="yes"/>
      <point x="512" y="543" type="line" smooth="yes"/>
      <point x="525" y="567"/>
      <point x="557" y="575"/>
      <point x="580" y="561" type="curve" smooth="yes"/>
      <point x="604" y="548"/>
      <point x="612" y="516"/>
    </contour>
    <contour>
      <point x="208" y="475" type="curve" smooth="yes"/>
      <point x="167" y="475"/>
      <point x="149" y="431"/>
      <point x="149" y="388" type="curve" smooth="yes"/>
      <point x="149" y="348"/>
      <point x="168" y="303"/>
      <point x="208" y="303" type="curve" smooth="yes"/>
      <point x="252" y="303"/>
      <point x="266" y="349"/>
      <point x="266" y="389" type="curve" smooth="yes"/>
      <point x="266" y="431"/>
      <point x="246" y="475"/>
    </contour>
    <contour>
      <point x="604" y="245" type="curve" smooth="yes"/>
      <point x="563" y="245"/>
      <point x="545" y="201"/>
      <point x="545" y="158" type="curve" smooth="yes"/>
      <point x="545" y="118"/>
      <point x="564" y="73"/>
      <point x="604" y="73" type="curve" smooth="yes"/>
      <point x="648" y="73"/>
      <point x="662" y="119"/>
      <point x="662" y="159" type="curve" smooth="yes"/>
      <point x="662" y="201"/>
      <point x="642" y="245"/>
    </contour>
  </outline>
</glyph>
<glyph name="ampersand" format="1">
  <advance width="644"/>
  <unicode hex="0026"/>
  <outline>
    <contour>
      <point x="566" y="258" type="curve" smooth="yes"/>
      <point x="480" y="136" type="line" smooth="yes"/>
      <point x="391" y="10"/>
      <point x="324" y="-25"/>
      <point x="238" y="-25" type="curve" smooth="yes"/>
      <point x="120" y="-25"/>
      <point x="47" y="52"/>
      <point x="47" y="143" type="curve" smooth="yes"/>
      <point x="47" y="221"/>
      <point x="74" y="289"/>
      <point x="258" y="365" type="curve" smooth="yes"/>
      <point x="294" y="380"/>
      <point x="319" y="399"/>
      <point x="319" y="429" type="curve" smooth="yes"/>
      <point x="319" y="458"/>
      <point x="292" y="475"/>
      <point x="263" y="475" type="curve" smooth="yes"/>
      <point x="234" y="475"/>
      <point x="210" y="456"/>
      <point x="210" y="425" type="curve" smooth="yes"/>
      <point x="210" y="383"/>
      <point x="248" y="354"/>
      <point x="292" y="316" type="curve" smooth="yes"/>
      <point x="573" y="71" type="line" smooth="yes"/>
      <point x="593" y="53"/>
      <point x="595" y="20"/>
      <point x="578" y="0" type="curve" smooth="yes"/>
      <point x="560" y="-20"/>
      <point x="527" y="-22"/>
      <point x="507" y="-5" type="curve" smooth="yes"/>
      <point x="226" y="240" type="line" smooth="yes"/>
      <point x="152" y="306"/>
      <point x="110" y="359"/>
      <point x="110" y="425" type="curve"/>
      <point x="110" y="514"/>
      <point x="175" y="575"/>
      <point x="263" y="575" type="curve" smooth="yes"/>
      <point x="354" y="575"/>
      <point x="419" y="508"/>
      <point x="419" y="429" type="curve" smooth="yes"/>
      <point x="419" y="365"/>
      <point x="386" y="310"/>
      <point x="296" y="273" type="curve" smooth="yes"/>
      <point x="188" y="229"/>
      <point x="147" y="195"/>
      <point x="147" y="143" type="curve" smooth="yes"/>
      <point x="147" y="100"/>
      <point x="190" y="75"/>
      <point x="238" y="75" type="curve" smooth="yes"/>
      <point x="298" y="75"/>
      <point x="339" y="110"/>
      <point x="398" y="194" type="curve" smooth="yes"/>
      <point x="484" y="316" type="line" smooth="yes"/>
      <point x="500" y="338"/>
      <point x="532" y="343"/>
      <point x="554" y="328" type="curve" smooth="yes"/>
      <point x="576" y="312"/>
      <point x="581" y="280"/>
    </contour>
  </outline>
</glyph>
<glyph name="quotesingle" format="1">
  <advance width="255"/>
  <unicode hex="0027"/>
  <outline>
    <contour>
      <point x="171" y="603" type="curve" smooth="yes"/>
      <point x="177" y="587"/>
      <point x="180" y="563"/>
      <point x="180" y="538" type="curve" smooth="yes"/>
      <point x="180" y="481"/>
      <point x="160" y="424"/>
      <point x="128" y="381" type="curve" smooth="yes"/>
      <point x="112" y="360"/>
      <point x="80" y="355"/>
      <point x="58" y="371" type="curve" smooth="yes"/>
      <point x="37" y="387"/>
      <point x="32" y="419"/>
      <point x="48" y="441" type="curve" smooth="yes"/>
      <point x="68" y="468"/>
      <point x="80" y="503"/>
      <point x="80" y="538" type="curve"/>
      <point x="80" y="551"/>
      <point x="79" y="563"/>
      <point x="77" y="571" type="curve" smooth="yes"/>
      <point x="68" y="597"/>
      <point x="83" y="626"/>
      <point x="108" y="634" type="curve" smooth="yes"/>
      <point x="134" y="643"/>
      <point x="163" y="628"/>
    </contour>
  </outline>
</glyph>
<glyph name="parenleft" format="1">
  <advance width="325"/>
  <unicode hex="0028"/>
  <outline>
    <contour>
      <point x="275" y="579" type="curve" smooth="yes"/>
      <point x="207" y="505"/>
      <point x="152" y="390"/>
      <point x="152" y="269" type="curve" smooth="yes"/>
      <point x="152" y="151"/>
      <point x="203" y="42"/>
      <point x="274" y="-31" type="curve" smooth="yes"/>
      <point x="293" y="-51"/>
      <point x="292" y="-83"/>
      <point x="273" y="-102" type="curve" smooth="yes"/>
      <point x="253" y="-121"/>
      <point x="221" y="-120"/>
      <point x="202" y="-101" type="curve" smooth="yes"/>
      <point x="115" y="-10"/>
      <point x="52" y="123"/>
      <point x="52" y="269" type="curve"/>
      <point x="52" y="416"/>
      <point x="119" y="555"/>
      <point x="201" y="647" type="curve" smooth="yes"/>
      <point x="219" y="667"/>
      <point x="251" y="668"/>
      <point x="272" y="650" type="curve" smooth="yes"/>
      <point x="292" y="632"/>
      <point x="293" y="600"/>
    </contour>
  </outline>
</glyph>
<glyph name="asterisk" format="1">
  <advance width="423"/>
  <unicode hex="002A"/>
  <outline>
    <contour>
      <point x="260" y="517" type="curve" smooth="yes"/>
      <point x="260" y="291" type="line" smooth="yes"/>
      <point x="260" y="264"/>
      <point x="237" y="241"/>
      <point x="210" y="241" type="curve" smooth="yes"/>
      <point x="183" y="241"/>
      <point x="160" y="264"/>
      <point x="160" y="291" type="curve" smooth="yes"/>
      <point x="160" y="517" type="line" smooth="yes"/>
      <point x="160" y="544"/>
      <point x="183" y="567"/>
      <point x="210" y="567" type="curve" smooth="yes"/>
      <point x="237" y="567"/>
      <point x="260" y="544"/>
    </contour>
    <contour>
      <point x="129" y="507" type="curve" smooth="yes"/>
      <point x="342" y="383" type="line" smooth="yes"/>
      <point x="365" y="370"/>
      <point x="374" y="338"/>
      <point x="360" y="315" type="curve" smooth="yes"/>
      <point x="347" y="292"/>
      <point x="315" y="283"/>
      <point x="292" y="297" type="curve" smooth="yes"/>
      <point x="79" y="421" type="line" smooth="yes"/>
      <point x="56" y="434"/>
      <point x="47" y="466"/>
      <point x="61" y="489" type="curve" smooth="yes"/>
      <point x="74" y="512"/>
      <point x="106" y="521"/>
    </contour>
    <contour>
      <point x="79" y="383" type="curve" smooth="yes"/>
      <point x="292" y="507" type="line" smooth="yes"/>
      <point x="315" y="521"/>
      <point x="347" y="512"/>
      <point x="360" y="489" type="curve" smooth="yes"/>
      <point x="374" y="466"/>
      <point x="365" y="434"/>
      <point x="342" y="421" type="curve" smooth="yes"/>
      <point x="129" y="297" type="line" smooth="yes"/>
      <point x="106" y="283"/>
      <point x="74" y="292"/>
      <point x="61" y="315" type="curve" smooth="yes"/>
      <point x="47" y="338"/>
      <point x="56" y="370"/>
    </contour>
  </outline>
</glyph>
<glyph name="plus" format="1">
  <advance width="491"/>
  <unicode hex="002B"/>
  <outline>
    <contour>
      <point x="92" y="309" type="curve" smooth="yes"/>
      <point x="398" y="309" type="line" smooth="yes"/>
      <point x="425" y="309"/>
      <point x="448" y="286"/>
      <point x="448" y="259" type="curve" smooth="yes"/>
      <point x="448" y="232"/>
      <point x="425" y="209"/>
      <point x="398" y="209" type="curve" smooth="yes"/>
      <point x="92" y="209" type="line" smooth="yes"/>
      <point x="65" y="209"/>
      <point x="42" y="232"/>
      <point x="42" y="259" type="curve" smooth="yes"/>
      <point x="42" y="286"/>
      <point x="65" y="309"/>
    </contour>
    <contour>
      <point x="195" y="110" type="curve" smooth="yes"/>
      <point x="195" y="407" type="line" smooth="yes"/>
      <point x="195" y="434"/>
      <point x="218" y="457"/>
      <point x="245" y="457" type="curve" smooth="yes"/>
      <point x="272" y="457"/>
      <point x="295" y="434"/>
      <point x="295" y="407" type="curve" smooth="yes"/>
      <point x="295" y="110" type="line" smooth="yes"/>
      <point x="295" y="83"/>
      <point x="272" y="60"/>
      <point x="245" y="60" type="curve" smooth="yes"/>
      <point x="218" y="60"/>
      <point x="195" y="83"/>
    </contour>
  </outline>
</glyph>
<glyph name="comma" format="1">
  <advance width="240"/>
  <unicode hex="002C"/>
  <outline>
    <contour>
      <point x="162" y="103" type="curve" smooth="yes"/>
      <point x="168" y="87"/>
      <point x="171" y="63"/>
      <point x="171" y="38" type="curve" smooth="yes"/>
      <point x="171" y="-19"/>
      <point x="151" y="-76"/>
      <point x="119" y="-119" type="curve" smooth="yes"/>
      <point x="103" y="-140"/>
      <point x="71" y="-145"/>
      <point x="49" y="-129" type="curve" smooth="yes"/>
      <point x="28" y="-113"/>
      <point x="23" y="-81"/>
      <point x="39" y="-59" type="curve" smooth="yes"/>
      <point x="59" y="-32"/>
      <point x="71" y="3"/>
      <point x="71" y="38" type="curve"/>
      <point x="71" y="51"/>
      <point x="70" y="63"/>
      <point x="68" y="71" type="curve" smooth="yes"/>
      <point x="59" y="97"/>
      <point x="74" y="126"/>
      <point x="99" y="134" type="curve" smooth="yes"/>
      <point x="125" y="143"/>
      <point x="154" y="128"/>
    </contour>
  </outline>
</glyph>
<glyph name="hyphen" format="1">
  <advance width="430"/>
  <unicode hex="002D"/>
  <outline>
    <contour>
      <point x="114" y="278" type="curve" smooth="yes"/>
      <point x="316" y="278" type="line" smooth="yes"/>
      <point x="343" y="278"/>
      <point x="366" y="255"/>
      <point x="366" y="228" type="curve" smooth="yes"/>
      <point x="366" y="201"/>
      <point x="343" y="178"/>
      <point x="316" y="178" type="curve" smooth="yes"/>
      <point x="114" y="178" type="line" smooth="yes"/>
      <point x="87" y="178"/>
      <point x="64" y="201"/>
      <point x="64" y="228" type="curve" smooth="yes"/>
      <point x="64" y="255"/>
      <point x="87" y="278"/>
    </contour>
  </outline>
</glyph>
<glyph name="period" format="1">
  <advance width="235"/>
  <unicode hex="002E"/>
  <outline>
    <contour>
      <point x="119" y="136" type="curve" smooth="yes"/>
      <point x="157" y="136"/>
      <point x="189" y="106"/>
      <point x="189" y="57" type="curve" smooth="yes"/>
      <point x="189" y="-2"/>
      <point x="157" y="-22"/>
      <point x="119" y="-22" type="curve" smooth="yes"/>
      <point x="86" y="-22"/>
      <point x="48" y="0"/>
      <point x="48" y="57" type="curve"/>
      <point x="48" y="104"/>
      <point x="86" y="136"/>
    </contour>
    <contour>
      <point x="119" y="36" type="curve" smooth="yes"/>
      <point x="128" y="36"/>
      <point x="148" y="38"/>
      <point x="148" y="57" type="curve" smooth="yes"/>
      <point x="148" y="80"/>
      <point x="128" y="78"/>
      <point x="119" y="78" type="curve" smooth="yes"/>
      <point x="109" y="78"/>
      <point x="89" y="83"/>
      <point x="89" y="57" type="curve"/>
      <point x="89" y="36"/>
      <point x="109" y="36"/>
    </contour>
  </outline>
</glyph>
<glyph name="slash" format="1">
  <advance width="325"/>
  <unicode hex="002F"/>
  <outline>
    <contour>
      <point x="328" y="596" type="curve" smooth="yes"/>
      <point x="79" y="-84" type="line" smooth="yes"/>
      <point x="70" y="-110"/>
      <point x="40" y="-123"/>
      <point x="15" y="-114" type="curve" smooth="yes"/>
      <point x="-11" y="-105"/>
      <point x="-24" y="-75"/>
      <point x="-15" y="-50" type="curve" smooth="yes"/>
      <point x="234" y="630" type="line" smooth="yes"/>
      <point x="243" y="656"/>
      <point x="273" y="669"/>
      <point x="298" y="660" type="curve" smooth="yes"/>
      <point x="324" y="651"/>
      <point x="337" y="621"/>
    </contour>
  </outline>
</glyph>
<glyph name="zero" format="1">
  <advance width="576"/>
  <unicode hex="0030"/>
  <outline>
    <contour>
      <point x="289" y="575" type="curve" smooth="yes"/>
      <point x="420" y="575"/>
      <point x="536" y="458"/>
      <point x="536" y="276" type="curve" smooth="yes"/>
      <point x="536" y="104"/>
      <point x="440" y="-24"/>
      <point x="289" y="-24" type="curve" smooth="yes"/>
      <point x="150" y="-24"/>
      <point x="39" y="105"/>
      <point x="39" y="274" type="curve"/>
      <point x="39" y="458"/>
      <point x="147" y="575"/>
    </contour>
    <contour>
      <point x="289" y="475" type="curve" smooth="yes"/>
      <point x="195" y="475"/>
      <point x="139" y="384"/>
      <point x="139" y="274" type="curve" smooth="yes"/>
      <point x="139" y="173"/>
      <point x="196" y="76"/>
      <point x="289" y="76" type="curve" smooth="yes"/>
      <point x="390" y="76"/>
      <point x="436" y="174"/>
      <point x="436" y="276" type="curve" smooth="yes"/>
      <point x="436" y="384"/>
      <point x="376" y="475"/>
    </contour>
  </outline>
</glyph>
<glyph name="one" format="1">
  <advance width="330"/>
  <unicode hex="0031"/>
  <outline>
    <contour>
      <point x="252" y="506" type="curve" smooth="yes"/>
      <point x="252" y="33" type="line" smooth="yes"/>
      <point x="252" y="6"/>
      <point x="229" y="-17"/>
      <point x="202" y="-17" type="curve" smooth="yes"/>
      <point x="175" y="-17"/>
      <point x="152" y="6"/>
      <point x="152" y="33" type="curve" smooth="yes"/>
      <point x="152" y="506" type="line" smooth="yes"/>
      <point x="152" y="533"/>
      <point x="175" y="556"/>
      <point x="202" y="556" type="curve" smooth="yes"/>
      <point x="229" y="556"/>
      <point x="252" y="533"/>
    </contour>
    <contour>
      <point x="225" y="468" type="curve" smooth="yes"/>
      <point x="95" y="402" type="line" smooth="yes"/>
      <point x="71" y="390"/>
      <point x="40" y="400"/>
      <point x="27" y="424" type="curve" smooth="yes"/>
      <point x="15" y="448"/>
      <point x="25" y="479"/>
      <point x="49" y="492" type="curve" smooth="yes"/>
      <point x="179" y="558" type="line" smooth="yes"/>
      <point x="203" y="570"/>
      <point x="234" y="560"/>
      <point x="247" y="536" type="curve" smooth="yes"/>
      <point x="259" y="512"/>
      <point x="249" y="481"/>
    </contour>
  </outline>
</glyph>
<glyph name="two" format="1">
  <advance width="518"/>
  <unicode hex="0032"/>
  <outline>
    <contour>
      <point x="56" y="78" type="curve" smooth="yes"/>
      <point x="222" y="237" type="line" smooth="yes"/>
      <point x="313" y="323"/>
      <point x="350" y="357"/>
      <point x="350" y="410" type="curve" smooth="yes"/>
      <point x="350" y="447"/>
      <point x="315" y="474"/>
      <point x="263" y="474" type="curve" smooth="yes"/>
      <point x="220" y="474"/>
      <point x="177" y="461"/>
      <point x="138" y="437" type="curve" smooth="yes"/>
      <point x="115" y="423"/>
      <point x="84" y="431"/>
      <point x="69" y="454" type="curve" smooth="yes"/>
      <point x="55" y="477"/>
      <point x="63" y="508"/>
      <point x="86" y="523" type="curve" smooth="yes"/>
      <point x="141" y="557"/>
      <point x="202" y="574"/>
      <point x="263" y="574" type="curve" smooth="yes"/>
      <point x="395" y="574"/>
      <point x="450" y="489"/>
      <point x="450" y="410" type="curve" smooth="yes"/>
      <point x="450" y="339"/>
      <point x="419" y="287"/>
      <point x="292" y="165" type="curve" smooth="yes"/>
      <point x="126" y="6" type="line" smooth="yes"/>
      <point x="106" y="-13"/>
      <point x="74" y="-12"/>
      <point x="55" y="7" type="curve" smooth="yes"/>
      <point x="36" y="27"/>
      <point x="37" y="59"/>
    </contour>
    <contour>
      <point x="433" y="-17" type="curve" smooth="yes"/>
      <point x="81" y="-17" type="line" smooth="yes"/>
      <point x="54" y="-17"/>
      <point x="31" y="6"/>
      <point x="31" y="33" type="curve" smooth="yes"/>
      <point x="31" y="60"/>
      <point x="54" y="83"/>
      <point x="81" y="83" type="curve" smooth="yes"/>
      <point x="433" y="83" type="line" smooth="yes"/>
      <point x="460" y="83"/>
      <point x="483" y="60"/>
      <point x="483" y="33" type="curve" smooth="yes"/>
      <point x="483" y="6"/>
      <point x="460" y="-17"/>
    </contour>
  </outline>
</glyph>
<glyph name="three" format="1">
  <advance width="522"/>
  <unicode hex="0033"/>
  <outline>
    <contour>
      <point x="120" y="568" type="curve" smooth="yes"/>
      <point x="417" y="568" type="line" smooth="yes"/>
      <point x="444" y="568"/>
      <point x="467" y="545"/>
      <point x="467" y="518" type="curve" smooth="yes"/>
      <point x="467" y="491"/>
      <point x="444" y="468"/>
      <point x="417" y="468" type="curve" smooth="yes"/>
      <point x="120" y="468" type="line" smooth="yes"/>
      <point x="93" y="468"/>
      <point x="70" y="491"/>
      <point x="70" y="518" type="curve" smooth="yes"/>
      <point x="70" y="545"/>
      <point x="93" y="568"/>
    </contour>
    <contour>
      <point x="123" y="106" type="curve" smooth="yes"/>
      <point x="159" y="90"/>
      <point x="206" y="79"/>
      <point x="260" y="79" type="curve" smooth="yes"/>
      <point x="333" y="79"/>
      <point x="382" y="110"/>
      <point x="382" y="165" type="curve" smooth="yes"/>
      <point x="382" y="218"/>
      <point x="333" y="245"/>
      <point x="271" y="245" type="curve" smooth="yes"/>
      <point x="231" y="245"/>
      <point x="198" y="238"/>
      <point x="179" y="232" type="curve" smooth="yes"/>
      <point x="153" y="224"/>
      <point x="125" y="239"/>
      <point x="116" y="265" type="curve" smooth="yes"/>
      <point x="108" y="291"/>
      <point x="123" y="319"/>
      <point x="149" y="328" type="curve" smooth="yes"/>
      <point x="174" y="336"/>
      <point x="217" y="345"/>
      <point x="271" y="345" type="curve" smooth="yes"/>
      <point x="411" y="345"/>
      <point x="482" y="266"/>
      <point x="482" y="165" type="curve" smooth="yes"/>
      <point x="482" y="64"/>
      <point x="419" y="-21"/>
      <point x="260" y="-21" type="curve" smooth="yes"/>
      <point x="190" y="-21"/>
      <point x="131" y="-6"/>
      <point x="83" y="14" type="curve" smooth="yes"/>
      <point x="58" y="25"/>
      <point x="46" y="55"/>
      <point x="57" y="80" type="curve" smooth="yes"/>
      <point x="68" y="105"/>
      <point x="98" y="117"/>
    </contour>
    <contour>
      <point x="442" y="474" type="curve" smooth="yes"/>
      <point x="203" y="248" type="line" smooth="yes"/>
      <point x="184" y="229"/>
      <point x="151" y="230"/>
      <point x="133" y="250" type="curve" smooth="yes"/>
      <point x="114" y="269"/>
      <point x="115" y="302"/>
      <point x="135" y="320" type="curve" smooth="yes"/>
      <point x="374" y="546" type="line" smooth="yes"/>
      <point x="393" y="565"/>
      <point x="426" y="564"/>
      <point x="444" y="544" type="curve" smooth="yes"/>
      <point x="463" y="525"/>
      <point x="462" y="492"/>
    </contour>
  </outline>
</glyph>
<glyph name="four" format="1">
  <advance width="541"/>
  <unicode hex="0034"/>
  <outline>
    <contour>
      <point x="422" y="528" type="curve" smooth="yes"/>
      <point x="422" y="33" type="line" smooth="yes"/>
      <point x="422" y="6"/>
      <point x="399" y="-17"/>
      <point x="372" y="-17" type="curve" smooth="yes"/>
      <point x="345" y="-17"/>
      <point x="322" y="6"/>
      <point x="322" y="33" type="curve" smooth="yes"/>
      <point x="322" y="528" type="line" smooth="yes"/>
      <point x="322" y="555"/>
      <point x="345" y="578"/>
      <point x="372" y="578" type="curve" smooth="yes"/>
      <point x="399" y="578"/>
      <point x="422" y="555"/>
    </contour>
    <contour>
      <point x="404" y="487" type="curve" smooth="yes"/>
      <point x="105" y="125" type="line" smooth="yes"/>
      <point x="87" y="104"/>
      <point x="55" y="101"/>
      <point x="34" y="118" type="curve" smooth="yes"/>
      <point x="13" y="136"/>
      <point x="10" y="168"/>
      <point x="27" y="189" type="curve" smooth="yes"/>
      <point x="326" y="551" type="line" smooth="yes"/>
      <point x="344" y="572"/>
      <point x="376" y="575"/>
      <point x="397" y="558" type="curve" smooth="yes"/>
      <point x="418" y="540"/>
      <point x="421" y="508"/>
    </contour>
    <contour>
      <point x="76" y="207" type="curve" smooth="yes"/>
      <point x="480" y="207" type="line" smooth="yes"/>
      <point x="507" y="207"/>
      <point x="530" y="184"/>
      <point x="530" y="157" type="curve" smooth="yes"/>
      <point x="530" y="130"/>
      <point x="507" y="107"/>
      <point x="480" y="107" type="curve" smooth="yes"/>
      <point x="76" y="107" type="line" smooth="yes"/>
      <point x="49" y="107"/>
      <point x="26" y="130"/>
      <point x="26" y="157" type="curve" smooth="yes"/>
      <point x="26" y="184"/>
      <point x="49" y="207"/>
    </contour>
  </outline>
</glyph>
<glyph name="five" format="1">
  <advance width="531"/>
  <unicode hex="0035"/>
  <outline>
    <contour>
      <point x="149" y="568" type="curve" smooth="yes"/>
      <point x="406" y="568" type="line" smooth="yes"/>
      <point x="433" y="568"/>
      <point x="456" y="545"/>
      <point x="456" y="518" type="curve" smooth="yes"/>
      <point x="456" y="491"/>
      <point x="433" y="468"/>
      <point x="406" y="468" type="curve" smooth="yes"/>
      <point x="149" y="468" type="line" smooth="yes"/>
      <point x="122" y="468"/>
      <point x="99" y="491"/>
      <point x="99" y="518" type="curve" smooth="yes"/>
      <point x="99" y="545"/>
      <point x="122" y="568"/>
    </contour>
    <contour>
      <point x="122" y="109" type="curve" smooth="yes"/>
      <point x="160" y="92"/>
      <point x="213" y="79"/>
      <point x="271" y="79" type="curve" smooth="yes"/>
      <point x="346" y="79"/>
      <point x="387" y="119"/>
      <point x="387" y="177" type="curve" smooth="yes"/>
      <point x="387" y="231"/>
      <point x="339" y="263"/>
      <point x="275" y="263" type="curve" smooth="yes"/>
      <point x="219" y="263"/>
      <point x="178" y="249"/>
      <point x="150" y="236" type="curve" smooth="yes"/>
      <point x="126" y="224"/>
      <point x="95" y="235"/>
      <point x="84" y="260" type="curve" smooth="yes"/>
      <point x="72" y="284"/>
      <point x="83" y="315"/>
      <point x="108" y="326" type="curve" smooth="yes"/>
      <point x="144" y="343"/>
      <point x="199" y="363"/>
      <point x="275" y="363" type="curve" smooth="yes"/>
      <point x="413" y="363"/>
      <point x="487" y="279"/>
      <point x="487" y="177" type="curve" smooth="yes"/>
      <point x="487" y="69"/>
      <point x="424" y="-21"/>
      <point x="271" y="-21" type="curve" smooth="yes"/>
      <point x="197" y="-21"/>
      <point x="128" y="-4"/>
      <point x="80" y="19" type="curve" smooth="yes"/>
      <point x="55" y="30"/>
      <point x="44" y="61"/>
      <point x="56" y="85" type="curve" smooth="yes"/>
      <point x="67" y="110"/>
      <point x="98" y="121"/>
    </contour>
    <contour>
      <point x="198" y="507" type="curve" smooth="yes"/>
      <point x="179" y="282" type="line" smooth="yes"/>
      <point x="177" y="255"/>
      <point x="152" y="234"/>
      <point x="125" y="236" type="curve" smooth="yes"/>
      <point x="98" y="238"/>
      <point x="77" y="263"/>
      <point x="79" y="290" type="curve" smooth="yes"/>
      <point x="98" y="515" type="line" smooth="yes"/>
      <point x="100" y="542"/>
      <point x="125" y="563"/>
      <point x="152" y="561" type="curve" smooth="yes"/>
      <point x="179" y="559"/>
      <point x="200" y="534"/>
    </contour>
  </outline>
</glyph>
<glyph name="six" format="1">
  <advance width="549"/>
  <unicode hex="0036"/>
  <outline>
    <contour>
      <point x="377" y="461" type="curve" smooth="yes"/>
      <point x="355" y="468"/>
      <point x="338" y="472"/>
      <point x="311" y="472" type="curve" smooth="yes"/>
      <point x="205" y="472"/>
      <point x="150" y="384"/>
      <point x="150" y="257" type="curve" smooth="yes"/>
      <point x="150" y="144"/>
      <point x="203" y="79"/>
      <point x="290" y="79" type="curve" smooth="yes"/>
      <point x="370" y="79"/>
      <point x="407" y="129"/>
      <point x="407" y="181" type="curve" smooth="yes"/>
      <point x="407" y="235"/>
      <point x="365" y="269"/>
      <point x="310" y="269" type="curve" smooth="yes"/>
      <point x="240" y="269"/>
      <point x="187" y="218"/>
      <point x="164" y="137" type="curve" smooth="yes"/>
      <point x="157" y="111"/>
      <point x="129" y="95"/>
      <point x="103" y="102" type="curve" smooth="yes"/>
      <point x="77" y="109"/>
      <point x="61" y="137"/>
      <point x="68" y="163" type="curve" smooth="yes"/>
      <point x="105" y="298"/>
      <point x="200" y="369"/>
      <point x="310" y="369" type="curve" smooth="yes"/>
      <point x="429" y="369"/>
      <point x="507" y="291"/>
      <point x="507" y="181" type="curve" smooth="yes"/>
      <point x="507" y="85"/>
      <point x="448" y="-21"/>
      <point x="290" y="-21" type="curve" smooth="yes"/>
      <point x="153" y="-21"/>
      <point x="50" y="64"/>
      <point x="50" y="257" type="curve"/>
      <point x="50" y="462"/>
      <point x="155" y="572"/>
      <point x="311" y="572" type="curve" smooth="yes"/>
      <point x="350" y="572"/>
      <point x="377" y="566"/>
      <point x="409" y="555" type="curve" smooth="yes"/>
      <point x="434" y="547"/>
      <point x="449" y="518"/>
      <point x="440" y="492" type="curve" smooth="yes"/>
      <point x="432" y="467"/>
      <point x="403" y="452"/>
    </contour>
  </outline>
</glyph>
<glyph name="seven" format="1">
  <advance width="476"/>
  <unicode hex="0037"/>
  <outline>
    <contour>
      <point x="460" y="493" type="curve" smooth="yes"/>
      <point x="422" y="422"/>
      <point x="319" y="282"/>
      <point x="289" y="231" type="curve" smooth="yes"/>
      <point x="267" y="190"/>
      <point x="247" y="139"/>
      <point x="247" y="88" type="curve" smooth="yes"/>
      <point x="247" y="33" type="line" smooth="yes"/>
      <point x="247" y="6"/>
      <point x="224" y="-17"/>
      <point x="197" y="-17" type="curve" smooth="yes"/>
      <point x="170" y="-17"/>
      <point x="147" y="6"/>
      <point x="147" y="33" type="curve" smooth="yes"/>
      <point x="147" y="88" type="line" smooth="yes"/>
      <point x="147" y="155"/>
      <point x="171" y="224"/>
      <point x="203" y="281" type="curve" smooth="yes"/>
      <point x="231" y="332"/>
      <point x="334" y="470"/>
      <point x="372" y="541" type="curve" smooth="yes"/>
      <point x="385" y="564"/>
      <point x="416" y="574"/>
      <point x="440" y="561" type="curve" smooth="yes"/>
      <point x="463" y="548"/>
      <point x="473" y="517"/>
    </contour>
    <contour>
      <point x="409" y="468" type="curve" smooth="yes"/>
      <point x="66" y="468" type="line" smooth="yes"/>
      <point x="39" y="468"/>
      <point x="16" y="491"/>
      <point x="16" y="518" type="curve" smooth="yes"/>
      <point x="16" y="545"/>
      <point x="39" y="568"/>
      <point x="66" y="568" type="curve" smooth="yes"/>
      <point x="409" y="568" type="line" smooth="yes"/>
      <point x="436" y="568"/>
      <point x="459" y="545"/>
      <point x="459" y="518" type="curve" smooth="yes"/>
      <point x="459" y="491"/>
      <point x="436" y="468"/>
    </contour>
  </outline>
</glyph>
<glyph name="eight" format="1">
  <advance width="568"/>
  <unicode hex="0038"/>
  <outline>
    <contour>
      <point x="285" y="345" type="curve" smooth="yes"/>
      <point x="437" y="345"/>
      <point x="518" y="263"/>
      <point x="518" y="160" type="curve" smooth="yes"/>
      <point x="518" y="66"/>
      <point x="466" y="-25"/>
      <point x="285" y="-25" type="curve" smooth="yes"/>
      <point x="115" y="-25"/>
      <point x="50" y="66"/>
      <point x="50" y="159" type="curve"/>
      <point x="50" y="263"/>
      <point x="124" y="345"/>
    </contour>
    <contour>
      <point x="285" y="575" type="curve" smooth="yes"/>
      <point x="423" y="575"/>
      <point x="492" y="503"/>
      <point x="492" y="412" type="curve" smooth="yes"/>
      <point x="492" y="326"/>
      <point x="435" y="245"/>
      <point x="285" y="245" type="curve" smooth="yes"/>
      <point x="128" y="245"/>
      <point x="76" y="327"/>
      <point x="76" y="412" type="curve"/>
      <point x="76" y="503"/>
      <point x="139" y="575"/>
    </contour>
    <contour>
      <point x="285" y="245" type="curve" smooth="yes"/>
      <point x="210" y="245"/>
      <point x="150" y="219"/>
      <point x="150" y="159" type="curve" smooth="yes"/>
      <point x="150" y="106"/>
      <point x="207" y="75"/>
      <point x="285" y="75" type="curve" smooth="yes"/>
      <point x="368" y="75"/>
      <point x="418" y="106"/>
      <point x="418" y="160" type="curve" smooth="yes"/>
      <point x="418" y="219"/>
      <point x="355" y="245"/>
    </contour>
    <contour>
      <point x="285" y="475" type="curve" smooth="yes"/>
      <point x="229" y="475"/>
      <point x="176" y="459"/>
      <point x="176" y="412" type="curve" smooth="yes"/>
      <point x="176" y="367"/>
      <point x="222" y="345"/>
      <point x="285" y="345" type="curve" smooth="yes"/>
      <point x="345" y="345"/>
      <point x="392" y="368"/>
      <point x="392" y="412" type="curve" smooth="yes"/>
      <point x="392" y="459"/>
      <point x="339" y="475"/>
    </contour>
  </outline>
</glyph>
<glyph name="nine" format="1">
  <advance width="546"/>
  <unicode hex="0039"/>
  <outline>
    <contour>
      <point x="169" y="91" type="curve" smooth="yes"/>
      <point x="191" y="85"/>
      <point x="210" y="80"/>
      <point x="238" y="80" type="curve" smooth="yes"/>
      <point x="349" y="80"/>
      <point x="396" y="158"/>
      <point x="396" y="278" type="curve" smooth="yes"/>
      <point x="396" y="394"/>
      <point x="347" y="472"/>
      <point x="256" y="472" type="curve" smooth="yes"/>
      <point x="182" y="472"/>
      <point x="142" y="423"/>
      <point x="142" y="372" type="curve" smooth="yes"/>
      <point x="142" y="309"/>
      <point x="182" y="276"/>
      <point x="247" y="276" type="curve" smooth="yes"/>
      <point x="320" y="276"/>
      <point x="365" y="322"/>
      <point x="400" y="379" type="curve" smooth="yes"/>
      <point x="415" y="402"/>
      <point x="446" y="410"/>
      <point x="469" y="396" type="curve" smooth="yes"/>
      <point x="492" y="381"/>
      <point x="500" y="350"/>
      <point x="486" y="327" type="curve" smooth="yes"/>
      <point x="431" y="238"/>
      <point x="358" y="176"/>
      <point x="247" y="176" type="curve" smooth="yes"/>
      <point x="114" y="176"/>
      <point x="42" y="249"/>
      <point x="42" y="372" type="curve"/>
      <point x="42" y="469"/>
      <point x="108" y="572"/>
      <point x="256" y="572" type="curve" smooth="yes"/>
      <point x="393" y="572"/>
      <point x="496" y="478"/>
      <point x="496" y="278" type="curve" smooth="yes"/>
      <point x="496" y="82"/>
      <point x="405" y="-20"/>
      <point x="238" y="-20" type="curve" smooth="yes"/>
      <point x="200" y="-20"/>
      <point x="173" y="-13"/>
      <point x="143" y="-5" type="curve" smooth="yes"/>
      <point x="117" y="2"/>
      <point x="101" y="30"/>
      <point x="108" y="56" type="curve" smooth="yes"/>
      <point x="115" y="82"/>
      <point x="143" y="98"/>
    </contour>
  </outline>
</glyph>
<glyph name="less" format="1">
  <advance width="491"/>
  <unicode hex="003C"/>
  <outline>
    <contour>
      <point x="78" y="309" type="curve" smooth="yes"/>
      <point x="360" y="437" type="line" smooth="yes"/>
      <point x="385" y="448"/>
      <point x="415" y="436"/>
      <point x="427" y="412" type="curve" smooth="yes"/>
      <point x="438" y="387"/>
      <point x="426" y="357"/>
      <point x="402" y="345" type="curve" smooth="yes"/>
      <point x="120" y="217" type="line" smooth="yes"/>
      <point x="95" y="206"/>
      <point x="65" y="218"/>
      <point x="53" y="242" type="curve" smooth="yes"/>
      <point x="42" y="267"/>
      <point x="54" y="297"/>
    </contour>
    <contour>
      <point x="365" y="81" type="curve" smooth="yes"/>
      <point x="73" y="214" type="line" smooth="yes"/>
      <point x="49" y="226"/>
      <point x="37" y="256"/>
      <point x="48" y="281" type="curve" smooth="yes"/>
      <point x="60" y="305"/>
      <point x="90" y="317"/>
      <point x="115" y="306" type="curve" smooth="yes"/>
      <point x="407" y="173" type="line" smooth="yes"/>
      <point x="431" y="161"/>
      <point x="443" y="131"/>
      <point x="432" y="106" type="curve" smooth="yes"/>
      <point x="420" y="82"/>
      <point x="390" y="70"/>
    </contour>
  </outline>
</glyph>
<glyph name="equal" format="1">
  <advance width="491"/>
  <unicode hex="003D"/>
  <outline>
    <contour>
      <point x="92" y="399" type="curve" smooth="yes"/>
      <point x="398" y="399" type="line" smooth="yes"/>
      <point x="425" y="399"/>
      <point x="448" y="376"/>
      <point x="448" y="349" type="curve" smooth="yes"/>
      <point x="448" y="322"/>
      <point x="425" y="299"/>
      <point x="398" y="299" type="curve" smooth="yes"/>
      <point x="92" y="299" type="line" smooth="yes"/>
      <point x="65" y="299"/>
      <point x="42" y="322"/>
      <point x="42" y="349" type="curve" smooth="yes"/>
      <point x="42" y="376"/>
      <point x="65" y="399"/>
    </contour>
    <contour>
      <point x="92" y="219" type="curve" smooth="yes"/>
      <point x="398" y="219" type="line" smooth="yes"/>
      <point x="425" y="219"/>
      <point x="448" y="196"/>
      <point x="448" y="169" type="curve" smooth="yes"/>
      <point x="448" y="142"/>
      <point x="425" y="119"/>
      <point x="398" y="119" type="curve" smooth="yes"/>
      <point x="92" y="119" type="line" smooth="yes"/>
      <point x="65" y="119"/>
      <point x="42" y="142"/>
      <point x="42" y="169" type="curve" smooth="yes"/>
      <point x="42" y="196"/>
      <point x="65" y="219"/>
    </contour>
  </outline>
</glyph>
<glyph name="question" format="1">
  <advance width="381"/>
  <unicode hex="003F"/>
  <outline>
    <contour>
      <point x="47" y="557" type="curve" smooth="yes"/>
      <point x="90" y="584"/>
      <point x="131" y="600"/>
      <point x="199" y="600" type="curve" smooth="yes"/>
      <point x="313" y="600"/>
      <point x="372" y="525"/>
      <point x="372" y="449" type="curve" smooth="yes"/>
      <point x="372" y="373"/>
      <point x="337" y="328"/>
      <point x="248" y="278" type="curve" smooth="yes"/>
      <point x="222" y="263"/>
      <point x="215" y="248"/>
      <point x="213" y="224" type="curve" smooth="yes"/>
      <point x="211" y="197"/>
      <point x="186" y="176"/>
      <point x="159" y="178" type="curve" smooth="yes"/>
      <point x="132" y="180"/>
      <point x="111" y="205"/>
      <point x="113" y="232" type="curve" smooth="yes"/>
      <point x="117" y="290"/>
      <point x="132" y="327"/>
      <point x="200" y="366" type="curve" smooth="yes"/>
      <point x="243" y="390"/>
      <point x="272" y="407"/>
      <point x="272" y="449" type="curve" smooth="yes"/>
      <point x="272" y="481"/>
      <point x="237" y="500"/>
      <point x="199" y="500" type="curve" smooth="yes"/>
      <point x="155" y="500"/>
      <point x="128" y="490"/>
      <point x="101" y="473" type="curve" smooth="yes"/>
      <point x="78" y="458"/>
      <point x="46" y="466"/>
      <point x="32" y="488" type="curve" smooth="yes"/>
      <point x="17" y="511"/>
      <point x="25" y="543"/>
    </contour>
    <component base="period" xOffset="50"/>
    <component base="period" xOffset="50"/>
  </outline>
</glyph>
<glyph name="at" format="1">
  <advance width="675"/>
  <unicode hex="0040"/>
  <outline>
    <contour>
      <point x="477" y="390" type="curve" smooth="yes"/>
      <point x="477" y="260" type="line" smooth="yes"/>
      <point x="477" y="236"/>
      <point x="487" y="213"/>
      <point x="509" y="213" type="curve" smooth="yes"/>
      <point x="539" y="213"/>
      <point x="546" y="252"/>
      <point x="546" y="285" type="curve" smooth="yes"/>
      <point x="546" y="386"/>
      <point x="469" y="478"/>
      <point x="341" y="478" type="curve" smooth="yes"/>
      <point x="220" y="478"/>
      <point x="131" y="384"/>
      <point x="131" y="271" type="curve" smooth="yes"/>
      <point x="131" y="158"/>
      <point x="219" y="73"/>
      <point x="344" y="73" type="curve" smooth="yes"/>
      <point x="398" y="73"/>
      <point x="443" y="85"/>
      <point x="477" y="100" type="curve" smooth="yes"/>
      <point x="502" y="111"/>
      <point x="532" y="99"/>
      <point x="543" y="74" type="curve" smooth="yes"/>
      <point x="554" y="49"/>
      <point x="542" y="19"/>
      <point x="517" y="8" type="curve" smooth="yes"/>
      <point x="473" y="-11"/>
      <point x="414" y="-27"/>
      <point x="344" y="-27" type="curve" smooth="yes"/>
      <point x="157" y="-27"/>
      <point x="31" y="104"/>
      <point x="31" y="271" type="curve" smooth="yes"/>
      <point x="31" y="438"/>
      <point x="162" y="578"/>
      <point x="341" y="578" type="curve" smooth="yes"/>
      <point x="535" y="578"/>
      <point x="646" y="436"/>
      <point x="646" y="285" type="curve" smooth="yes"/>
      <point x="646" y="162"/>
      <point x="579" y="113"/>
      <point x="509" y="113" type="curve" smooth="yes"/>
      <point x="441" y="113"/>
      <point x="377" y="162"/>
      <point x="377" y="260" type="curve" smooth="yes"/>
      <point x="377" y="390" type="line" smooth="yes"/>
      <point x="377" y="417"/>
      <point x="400" y="440"/>
      <point x="427" y="440" type="curve" smooth="yes"/>
      <point x="454" y="440"/>
      <point x="477" y="417"/>
    </contour>
    <contour>
      <point x="400" y="321" type="curve" smooth="yes"/>
      <point x="381" y="333"/>
      <point x="362" y="340"/>
      <point x="336" y="340" type="curve" smooth="yes"/>
      <point x="300" y="340"/>
      <point x="275" y="309"/>
      <point x="275" y="267" type="curve" smooth="yes"/>
      <point x="275" y="237"/>
      <point x="293" y="214"/>
      <point x="318" y="214" type="curve" smooth="yes"/>
      <point x="343" y="214"/>
      <point x="366" y="231"/>
      <point x="383" y="260" type="curve" smooth="yes"/>
      <point x="396" y="284"/>
      <point x="428" y="292"/>
      <point x="451" y="278" type="curve" smooth="yes"/>
      <point x="475" y="265"/>
      <point x="483" y="233"/>
      <point x="469" y="210" type="curve" smooth="yes"/>
      <point x="430" y="143"/>
      <point x="373" y="114"/>
      <point x="318" y="114" type="curve" smooth="yes"/>
      <point x="247" y="114"/>
      <point x="175" y="167"/>
      <point x="175" y="267" type="curve" smooth="yes"/>
      <point x="175" y="379"/>
      <point x="252" y="440"/>
      <point x="336" y="440" type="curve" smooth="yes"/>
      <point x="384" y="440"/>
      <point x="421" y="427"/>
      <point x="454" y="405" type="curve" smooth="yes"/>
      <point x="477" y="390"/>
      <point x="484" y="358"/>
      <point x="469" y="336" type="curve" smooth="yes"/>
      <point x="454" y="313"/>
      <point x="422" y="306"/>
    </contour>
  </outline>
</glyph>
<glyph name="A" format="1">
  <advance width="568"/>
  <unicode hex="0041"/>
  <outline>
    <contour>
      <point x="321" y="507" type="curve" smooth="yes"/>
      <point x="253" y="355"/>
      <point x="159" y="141"/>
      <point x="114" y="16" type="curve" smooth="yes"/>
      <point x="105" y="-9"/>
      <point x="76" y="-23"/>
      <point x="50" y="-14" type="curve" smooth="yes"/>
      <point x="25" y="-5"/>
      <point x="11" y="24"/>
      <point x="20" y="50" type="curve" smooth="yes"/>
      <point x="65" y="177"/>
      <point x="161" y="393"/>
      <point x="229" y="547" type="curve" smooth="yes"/>
      <point x="240" y="572"/>
      <point x="271" y="584"/>
      <point x="295" y="573" type="curve" smooth="yes"/>
      <point x="320" y="562"/>
      <point x="332" y="531"/>
    </contour>
    <contour>
      <point x="326" y="548" type="curve" smooth="yes"/>
      <point x="399" y="393"/>
      <point x="497" y="175"/>
      <point x="546" y="51" type="curve" smooth="yes"/>
      <point x="555" y="26"/>
      <point x="542" y="-4"/>
      <point x="517" y="-14" type="curve" smooth="yes"/>
      <point x="492" y="-23"/>
      <point x="462" y="-10"/>
      <point x="452" y="15" type="curve" smooth="yes"/>
      <point x="405" y="137"/>
      <point x="307" y="353"/>
      <point x="236" y="506" type="curve" smooth="yes"/>
      <point x="224" y="530"/>
      <point x="235" y="561"/>
      <point x="260" y="572" type="curve" smooth="yes"/>
      <point x="284" y="584"/>
      <point x="315" y="573"/>
    </contour>
    <contour>
      <point x="136" y="228" type="curve" smooth="yes"/>
      <point x="427" y="228" type="line" smooth="yes"/>
      <point x="454" y="228"/>
      <point x="477" y="205"/>
      <point x="477" y="178" type="curve" smooth="yes"/>
      <point x="477" y="151"/>
      <point x="454" y="128"/>
      <point x="427" y="128" type="curve" smooth="yes"/>
      <point x="136" y="128" type="line" smooth="yes"/>
      <point x="109" y="128"/>
      <point x="86" y="151"/>
      <point x="86" y="178" type="curve" smooth="yes"/>
      <point x="86" y="205"/>
      <point x="109" y="228"/>
    </contour>
  </outline>
</glyph>
<glyph name="B" format="1">
  <advance width="521"/>
  <unicode hex="0042"/>
  <outline>
    <contour>
      <point x="137" y="343" type="curve" smooth="yes"/>
      <point x="276" y="343" type="line" smooth="yes"/>
      <point x="343" y="343"/>
      <point x="403" y="318"/>
      <point x="438" y="282" type="curve" smooth="yes"/>
      <point x="474" y="247"/>
      <point x="490" y="206"/>
      <point x="490" y="160" type="curve" smooth="yes"/>
      <point x="490" y="117"/>
      <point x="474" y="74"/>
      <point x="441" y="42" type="curve" smooth="yes"/>
      <point x="408" y="9"/>
      <point x="359" y="-17"/>
      <point x="273" y="-17" type="curve" smooth="yes"/>
      <point x="128" y="-17" type="line" smooth="yes"/>
      <point x="100" y="-17"/>
      <point x="78" y="5"/>
      <point x="78" y="33" type="curve" smooth="yes"/>
      <point x="78" y="518" type="line" smooth="yes"/>
      <point x="78" y="546"/>
      <point x="100" y="568"/>
      <point x="128" y="568" type="curve" smooth="yes"/>
      <point x="257" y="568" type="line" smooth="yes"/>
      <point x="325" y="568"/>
      <point x="369" y="544"/>
      <point x="397" y="516" type="curve" smooth="yes"/>
      <point x="424" y="490"/>
      <point x="442" y="446"/>
      <point x="442" y="407" type="curve" smooth="yes"/>
      <point x="442" y="364"/>
      <point x="424" y="323"/>
      <point x="397" y="297" type="curve" smooth="yes"/>
      <point x="373" y="273"/>
      <point x="327" y="247"/>
      <point x="272" y="243" type="curve" smooth="yes"/>
      <point x="245" y="241"/>
      <point x="220" y="262"/>
      <point x="218" y="289" type="curve" smooth="yes"/>
      <point x="216" y="316"/>
      <point x="237" y="341"/>
      <point x="264" y="343" type="curve" smooth="yes"/>
      <point x="291" y="345"/>
      <point x="315" y="355"/>
      <point x="327" y="367" type="curve" smooth="yes"/>
      <point x="336" y="377"/>
      <point x="342" y="392"/>
      <point x="342" y="407" type="curve" smooth="yes"/>
      <point x="342" y="421"/>
      <point x="336" y="436"/>
      <point x="327" y="446" type="curve" smooth="yes"/>
      <point x="313" y="460"/>
      <point x="289" y="468"/>
      <point x="257" y="468" type="curve" smooth="yes"/>
      <point x="128" y="468" type="line"/>
      <point x="178" y="518" type="line"/>
      <point x="178" y="33" type="line"/>
      <point x="128" y="83" type="line"/>
      <point x="273" y="83" type="line" smooth="yes"/>
      <point x="321" y="83"/>
      <point x="352" y="93"/>
      <point x="371" y="112" type="curve" smooth="yes"/>
      <point x="384" y="126"/>
      <point x="390" y="143"/>
      <point x="390" y="160" type="curve" smooth="yes"/>
      <point x="390" y="180"/>
      <point x="382" y="197"/>
      <point x="368" y="212" type="curve" smooth="yes"/>
      <point x="347" y="232"/>
      <point x="313" y="243"/>
      <point x="276" y="243" type="curve" smooth="yes"/>
      <point x="137" y="243" type="line" smooth="yes"/>
      <point x="110" y="243"/>
      <point x="87" y="266"/>
      <point x="87" y="293" type="curve" smooth="yes"/>
      <point x="87" y="320"/>
      <point x="110" y="343"/>
    </contour>
  </outline>
</glyph>
<glyph name="C" format="1">
  <advance width="563"/>
  <unicode hex="0043"/>
  <outline>
    <contour>
      <point x="446" y="454" type="curve" smooth="yes"/>
      <point x="419" y="469"/>
      <point x="377" y="477"/>
      <point x="334" y="477" type="curve" smooth="yes"/>
      <point x="227" y="477"/>
      <point x="136" y="394"/>
      <point x="136" y="272" type="curve" smooth="yes"/>
      <point x="136" y="160"/>
      <point x="211" y="74"/>
      <point x="340" y="74" type="curve" smooth="yes"/>
      <point x="383" y="74"/>
      <point x="421" y="83"/>
      <point x="452" y="98" type="curve" smooth="yes"/>
      <point x="476" y="111"/>
      <point x="507" y="101"/>
      <point x="519" y="77" type="curve" smooth="yes"/>
      <point x="532" y="53"/>
      <point x="522" y="22"/>
      <point x="498" y="10" type="curve" smooth="yes"/>
      <point x="455" y="-13"/>
      <point x="401" y="-26"/>
      <point x="340" y="-26" type="curve" smooth="yes"/>
      <point x="147" y="-26"/>
      <point x="36" y="104"/>
      <point x="36" y="272" type="curve"/>
      <point x="36" y="456"/>
      <point x="175" y="577"/>
      <point x="334" y="577" type="curve" smooth="yes"/>
      <point x="397" y="577"/>
      <point x="455" y="563"/>
      <point x="494" y="542" type="curve" smooth="yes"/>
      <point x="518" y="529"/>
      <point x="527" y="498"/>
      <point x="514" y="474" type="curve" smooth="yes"/>
      <point x="501" y="450"/>
      <point x="470" y="441"/>
    </contour>
  </outline>
</glyph>
<glyph name="D" format="1">
  <advance width="617"/>
  <unicode hex="0044"/>
  <outline>
    <contour>
      <point x="304" y="-17" type="curve" smooth="yes"/>
      <point x="128" y="-17" type="line" smooth="yes"/>
      <point x="100" y="-17"/>
      <point x="78" y="5"/>
      <point x="78" y="33" type="curve"/>
      <point x="78" y="518" type="line"/>
      <point x="78" y="546"/>
      <point x="100" y="568"/>
      <point x="128" y="568" type="curve" smooth="yes"/>
      <point x="304" y="568" type="line" smooth="yes"/>
      <point x="449" y="568"/>
      <point x="581" y="449"/>
      <point x="581" y="276" type="curve" smooth="yes"/>
      <point x="581" y="111"/>
      <point x="470" y="-17"/>
    </contour>
    <contour>
      <point x="304" y="83" type="line" smooth="yes"/>
      <point x="414" y="83"/>
      <point x="481" y="171"/>
      <point x="481" y="276" type="curve" smooth="yes"/>
      <point x="481" y="387"/>
      <point x="399" y="468"/>
      <point x="304" y="468" type="curve" smooth="yes"/>
      <point x="128" y="468" type="line"/>
      <point x="178" y="518" type="line"/>
      <point x="178" y="33" type="line"/>
      <point x="128" y="83" type="line"/>
    </contour>
  </outline>
</glyph>
<glyph name="E" format="1">
  <advance width="495"/>
  <unicode hex="0045"/>
  <outline>
    <contour>
      <point x="178" y="518" type="curve" smooth="yes"/>
      <point x="178" y="33" type="line" smooth="yes"/>
      <point x="178" y="6"/>
      <point x="155" y="-17"/>
      <point x="128" y="-17" type="curve" smooth="yes"/>
      <point x="101" y="-17"/>
      <point x="78" y="6"/>
      <point x="78" y="33" type="curve" smooth="yes"/>
      <point x="78" y="518" type="line" smooth="yes"/>
      <point x="78" y="545"/>
      <point x="101" y="568"/>
      <point x="128" y="568" type="curve" smooth="yes"/>
      <point x="155" y="568"/>
      <point x="178" y="545"/>
    </contour>
    <contour>
      <point x="136" y="83" type="curve" smooth="yes"/>
      <point x="407" y="83" type="line" smooth="yes"/>
      <point x="434" y="83"/>
      <point x="457" y="60"/>
      <point x="457" y="33" type="curve" smooth="yes"/>
      <point x="457" y="6"/>
      <point x="434" y="-17"/>
      <point x="407" y="-17" type="curve" smooth="yes"/>
      <point x="136" y="-17" type="line" smooth="yes"/>
      <point x="109" y="-17"/>
      <point x="86" y="6"/>
      <point x="86" y="33" type="curve" smooth="yes"/>
      <point x="86" y="60"/>
      <point x="109" y="83"/>
    </contour>
    <contour>
      <point x="136" y="568" type="curve" smooth="yes"/>
      <point x="405" y="568" type="line" smooth="yes"/>
      <point x="432" y="568"/>
      <point x="455" y="545"/>
      <point x="455" y="518" type="curve" smooth="yes"/>
      <point x="455" y="491"/>
      <point x="432" y="468"/>
      <point x="405" y="468" type="curve" smooth="yes"/>
      <point x="136" y="468" type="line" smooth="yes"/>
      <point x="109" y="468"/>
      <point x="86" y="491"/>
      <point x="86" y="518" type="curve" smooth="yes"/>
      <point x="86" y="545"/>
      <point x="109" y="568"/>
    </contour>
    <contour>
      <point x="136" y="344" type="curve" smooth="yes"/>
      <point x="362" y="344" type="line" smooth="yes"/>
      <point x="389" y="344"/>
      <point x="412" y="321"/>
      <point x="412" y="294" type="curve" smooth="yes"/>
      <point x="412" y="267"/>
      <point x="389" y="244"/>
      <point x="362" y="244" type="curve" smooth="yes"/>
      <point x="136" y="244" type="line" smooth="yes"/>
      <point x="109" y="244"/>
      <point x="86" y="267"/>
      <point x="86" y="294" type="curve" smooth="yes"/>
      <point x="86" y="321"/>
      <point x="109" y="344"/>
    </contour>
  </outline>
</glyph>
<glyph name="F" format="1">
  <advance width="485"/>
  <unicode hex="0046"/>
  <outline>
    <contour>
      <point x="178" y="518" type="curve" smooth="yes"/>
      <point x="178" y="33" type="line" smooth="yes"/>
      <point x="178" y="6"/>
      <point x="155" y="-17"/>
      <point x="128" y="-17" type="curve" smooth="yes"/>
      <point x="101" y="-17"/>
      <point x="78" y="6"/>
      <point x="78" y="33" type="curve" smooth="yes"/>
      <point x="78" y="518" type="line" smooth="yes"/>
      <point x="78" y="545"/>
      <point x="101" y="568"/>
      <point x="128" y="568" type="curve" smooth="yes"/>
      <point x="155" y="568"/>
      <point x="178" y="545"/>
    </contour>
    <contour>
      <point x="136" y="568" type="curve" smooth="yes"/>
      <point x="413" y="568" type="line" smooth="yes"/>
      <point x="440" y="568"/>
      <point x="463" y="545"/>
      <point x="463" y="518" type="curve" smooth="yes"/>
      <point x="463" y="491"/>
      <point x="440" y="468"/>
      <point x="413" y="468" type="curve" smooth="yes"/>
      <point x="136" y="468" type="line" smooth="yes"/>
      <point x="109" y="468"/>
      <point x="86" y="491"/>
      <point x="86" y="518" type="curve" smooth="yes"/>
      <point x="86" y="545"/>
      <point x="109" y="568"/>
    </contour>
    <contour>
      <point x="136" y="325" type="curve" smooth="yes"/>
      <point x="362" y="325" type="line" smooth="yes"/>
      <point x="389" y="325"/>
      <point x="412" y="302"/>
      <point x="412" y="275" type="curve" smooth="yes"/>
      <point x="412" y="248"/>
      <point x="389" y="225"/>
      <point x="362" y="225" type="curve" smooth="yes"/>
      <point x="136" y="225" type="line" smooth="yes"/>
      <point x="109" y="225"/>
      <point x="86" y="248"/>
      <point x="86" y="275" type="curve" smooth="yes"/>
      <point x="86" y="302"/>
      <point x="109" y="325"/>
    </contour>
  </outline>
</glyph>
<glyph name="G" format="1">
  <advance width="618"/>
  <unicode hex="0047"/>
  <outline>
    <contour>
      <point x="463" y="453" type="curve" smooth="yes"/>
      <point x="426" y="467"/>
      <point x="384" y="477"/>
      <point x="335" y="477" type="curve" smooth="yes"/>
      <point x="219" y="477"/>
      <point x="136" y="394"/>
      <point x="136" y="272" type="curve" smooth="yes"/>
      <point x="136" y="162"/>
      <point x="207" y="74"/>
      <point x="332" y="74" type="curve" smooth="yes"/>
      <point x="397" y="74"/>
      <point x="445" y="91"/>
      <point x="484" y="115" type="curve" smooth="yes"/>
      <point x="507" y="130"/>
      <point x="539" y="123"/>
      <point x="553" y="100" type="curve" smooth="yes"/>
      <point x="568" y="77"/>
      <point x="561" y="45"/>
      <point x="538" y="31" type="curve" smooth="yes"/>
      <point x="485" y="-3"/>
      <point x="421" y="-26"/>
      <point x="332" y="-26" type="curve" smooth="yes"/>
      <point x="145" y="-26"/>
      <point x="36" y="106"/>
      <point x="36" y="272" type="curve"/>
      <point x="36" y="456"/>
      <point x="163" y="577"/>
      <point x="335" y="577" type="curve" smooth="yes"/>
      <point x="398" y="577"/>
      <point x="452" y="565"/>
      <point x="499" y="547" type="curve" smooth="yes"/>
      <point x="524" y="537"/>
      <point x="537" y="507"/>
      <point x="528" y="482" type="curve" smooth="yes"/>
      <point x="518" y="457"/>
      <point x="488" y="444"/>
    </contour>
    <contour>
      <point x="462" y="83" type="curve" smooth="yes"/>
      <point x="462" y="257" type="line" smooth="yes"/>
      <point x="462" y="284"/>
      <point x="485" y="307"/>
      <point x="512" y="307" type="curve" smooth="yes"/>
      <point x="539" y="307"/>
      <point x="562" y="284"/>
      <point x="562" y="257" type="curve" smooth="yes"/>
      <point x="562" y="83" type="line" smooth="yes"/>
      <point x="562" y="56"/>
      <point x="539" y="33"/>
      <point x="512" y="33" type="curve" smooth="yes"/>
      <point x="485" y="33"/>
      <point x="462" y="56"/>
    </contour>
    <contour>
      <point x="501" y="207" type="curve" smooth="yes"/>
      <point x="348" y="207" type="line" smooth="yes"/>
      <point x="321" y="207"/>
      <point x="298" y="230"/>
      <point x="298" y="257" type="curve" smooth="yes"/>
      <point x="298" y="284"/>
      <point x="321" y="307"/>
      <point x="348" y="307" type="curve" smooth="yes"/>
      <point x="501" y="307" type="line" smooth="yes"/>
      <point x="528" y="307"/>
      <point x="551" y="284"/>
      <point x="551" y="257" type="curve" smooth="yes"/>
      <point x="551" y="230"/>
      <point x="528" y="207"/>
    </contour>
  </outline>
</glyph>
<glyph name="H" format="1">
  <advance width="641"/>
  <unicode hex="0048"/>
  <outline>
    <contour>
      <point x="178" y="518" type="curve" smooth="yes"/>
      <point x="178" y="33" type="line" smooth="yes"/>
      <point x="178" y="6"/>
      <point x="155" y="-17"/>
      <point x="128" y="-17" type="curve" smooth="yes"/>
      <point x="101" y="-17"/>
      <point x="78" y="6"/>
      <point x="78" y="33" type="curve" smooth="yes"/>
      <point x="78" y="518" type="line" smooth="yes"/>
      <point x="78" y="545"/>
      <point x="101" y="568"/>
      <point x="128" y="568" type="curve" smooth="yes"/>
      <point x="155" y="568"/>
      <point x="178" y="545"/>
    </contour>
    <contour>
      <point x="563" y="518" type="curve" smooth="yes"/>
      <point x="563" y="33" type="line" smooth="yes"/>
      <point x="563" y="6"/>
      <point x="540" y="-17"/>
      <point x="513" y="-17" type="curve" smooth="yes"/>
      <point x="486" y="-17"/>
      <point x="463" y="6"/>
      <point x="463" y="33" type="curve" smooth="yes"/>
      <point x="463" y="518" type="line" smooth="yes"/>
      <point x="463" y="545"/>
      <point x="486" y="568"/>
      <point x="513" y="568" type="curve" smooth="yes"/>
      <point x="540" y="568"/>
      <point x="563" y="545"/>
    </contour>
    <contour>
      <point x="132" y="343" type="curve" smooth="yes"/>
      <point x="512" y="343" type="line" smooth="yes"/>
      <point x="539" y="343"/>
      <point x="562" y="320"/>
      <point x="562" y="293" type="curve" smooth="yes"/>
      <point x="562" y="266"/>
      <point x="539" y="243"/>
      <point x="512" y="243" type="curve" smooth="yes"/>
      <point x="132" y="243" type="line" smooth="yes"/>
      <point x="105" y="243"/>
      <point x="82" y="266"/>
      <point x="82" y="293" type="curve" smooth="yes"/>
      <point x="82" y="320"/>
      <point x="105" y="343"/>
    </contour>
  </outline>
</glyph>
<glyph name="J" format="1">
  <advance width="399"/>
  <unicode hex="004A"/>
  <outline>
    <contour>
      <point x="82" y="92" type="curve" smooth="yes"/>
      <point x="110" y="85"/>
      <point x="135" y="78"/>
      <point x="161" y="78" type="curve" smooth="yes"/>
      <point x="216" y="78"/>
      <point x="233" y="116"/>
      <point x="233" y="175" type="curve" smooth="yes"/>
      <point x="233" y="518" type="line" smooth="yes"/>
      <point x="233" y="545"/>
      <point x="256" y="568"/>
      <point x="283" y="568" type="curve" smooth="yes"/>
      <point x="310" y="568"/>
      <point x="333" y="545"/>
      <point x="333" y="518" type="curve" smooth="yes"/>
      <point x="333" y="175" type="line" smooth="yes"/>
      <point x="333" y="34"/>
      <point x="272" y="-22"/>
      <point x="161" y="-22" type="curve" smooth="yes"/>
      <point x="127" y="-22"/>
      <point x="94" y="-15"/>
      <point x="58" y="-6" type="curve" smooth="yes"/>
      <point x="32" y="1"/>
      <point x="15" y="29"/>
      <point x="21" y="55" type="curve" smooth="yes"/>
      <point x="28" y="81"/>
      <point x="56" y="98"/>
    </contour>
  </outline>
</glyph>
<glyph name="K" format="1">
  <advance width="558"/>
  <unicode hex="004B"/>
  <outline>
    <contour>
      <point x="178" y="518" type="curve" smooth="yes"/>
      <point x="178" y="33" type="line" smooth="yes"/>
      <point x="178" y="6"/>
      <point x="155" y="-17"/>
      <point x="128" y="-17" type="curve" smooth="yes"/>
      <point x="101" y="-17"/>
      <point x="78" y="6"/>
      <point x="78" y="33" type="curve" smooth="yes"/>
      <point x="78" y="518" type="line" smooth="yes"/>
      <point x="78" y="545"/>
      <point x="101" y="568"/>
      <point x="128" y="568" type="curve" smooth="yes"/>
      <point x="155" y="568"/>
      <point x="178" y="545"/>
    </contour>
    <contour>
      <point x="291" y="343" type="curve" smooth="yes"/>
      <point x="347" y="274"/>
      <point x="467" y="129"/>
      <point x="522" y="66" type="curve" smooth="yes"/>
      <point x="539" y="46"/>
      <point x="537" y="13"/>
      <point x="517" y="-5" type="curve" smooth="yes"/>
      <point x="497" y="-22"/>
      <point x="464" y="-20"/>
      <point x="446" y="0" type="curve" smooth="yes"/>
      <point x="391" y="63"/>
      <point x="271" y="210"/>
      <point x="213" y="279" type="curve" smooth="yes"/>
      <point x="196" y="300"/>
      <point x="199" y="332"/>
      <point x="220" y="350" type="curve" smooth="yes"/>
      <point x="241" y="367"/>
      <point x="273" y="364"/>
    </contour>
    <contour>
      <point x="94" y="238" type="curve" smooth="yes"/>
      <point x="142" y="282"/>
      <point x="329" y="448"/>
      <point x="428" y="552" type="curve" smooth="yes"/>
      <point x="446" y="572"/>
      <point x="479" y="573"/>
      <point x="498" y="554" type="curve" smooth="yes"/>
      <point x="518" y="536"/>
      <point x="519" y="503"/>
      <point x="500" y="484" type="curve" smooth="yes"/>
      <point x="399" y="378"/>
      <point x="210" y="208"/>
      <point x="162" y="164" type="curve" smooth="yes"/>
      <point x="142" y="146"/>
      <point x="109" y="147"/>
      <point x="91" y="167" type="curve" smooth="yes"/>
      <point x="73" y="187"/>
      <point x="74" y="220"/>
    </contour>
  </outline>
</glyph>
<glyph name="L" format="1">
  <advance width="479"/>
  <unicode hex="004C"/>
  <outline>
    <contour>
      <point x="178" y="518" type="curve" smooth="yes"/>
      <point x="178" y="33" type="line" smooth="yes"/>
      <point x="178" y="6"/>
      <point x="155" y="-17"/>
      <point x="128" y="-17" type="curve" smooth="yes"/>
      <point x="101" y="-17"/>
      <point x="78" y="6"/>
      <point x="78" y="33" type="curve" smooth="yes"/>
      <point x="78" y="518" type="line" smooth="yes"/>
      <point x="78" y="545"/>
      <point x="101" y="568"/>
      <point x="128" y="568" type="curve" smooth="yes"/>
      <point x="155" y="568"/>
      <point x="178" y="545"/>
    </contour>
    <contour>
      <point x="136" y="83" type="curve" smooth="yes"/>
      <point x="409" y="83" type="line" smooth="yes"/>
      <point x="436" y="83"/>
      <point x="459" y="60"/>
      <point x="459" y="33" type="curve" smooth="yes"/>
      <point x="459" y="6"/>
      <point x="436" y="-17"/>
      <point x="409" y="-17" type="curve" smooth="yes"/>
      <point x="136" y="-17" type="line" smooth="yes"/>
      <point x="109" y="-17"/>
      <point x="86" y="6"/>
      <point x="86" y="33" type="curve" smooth="yes"/>
      <point x="86" y="60"/>
      <point x="109" y="83"/>
    </contour>
  </outline>
</glyph>
<glyph name="M" format="1">
  <advance width="816"/>
  <unicode hex="004D"/>
  <outline>
    <contour>
      <point x="220" y="519" type="curve" smooth="yes"/>
      <point x="196" y="377"/>
      <point x="165" y="141"/>
      <point x="153" y="26" type="curve" smooth="yes"/>
      <point x="150" y="-1"/>
      <point x="125" y="-22"/>
      <point x="98" y="-19" type="curve" smooth="yes"/>
      <point x="71" y="-16"/>
      <point x="50" y="9"/>
      <point x="53" y="36" type="curve" smooth="yes"/>
      <point x="65" y="153"/>
      <point x="98" y="391"/>
      <point x="122" y="535" type="curve" smooth="yes"/>
      <point x="126" y="562"/>
      <point x="153" y="581"/>
      <point x="179" y="576" type="curve" smooth="yes"/>
      <point x="206" y="572"/>
      <point x="225" y="545"/>
    </contour>
    <contour>
      <point x="679" y="538" type="curve" smooth="yes"/>
      <point x="710" y="381"/>
      <point x="743" y="172"/>
      <point x="762" y="38" type="curve" smooth="yes"/>
      <point x="765" y="11"/>
      <point x="745" y="-15"/>
      <point x="719" y="-19" type="curve" smooth="yes"/>
      <point x="692" y="-22"/>
      <point x="666" y="-2"/>
      <point x="662" y="24" type="curve" smooth="yes"/>
      <point x="645" y="158"/>
      <point x="612" y="363"/>
      <point x="581" y="518" type="curve" smooth="yes"/>
      <point x="576" y="545"/>
      <point x="594" y="572"/>
      <point x="620" y="577" type="curve" smooth="yes"/>
      <point x="647" y="582"/>
      <point x="674" y="564"/>
    </contour>
    <contour>
      <point x="228" y="536" type="curve" smooth="yes"/>
      <point x="290" y="409"/>
      <point x="384" y="212"/>
      <point x="451" y="72" type="curve" smooth="yes"/>
      <point x="463" y="47"/>
      <point x="452" y="17"/>
      <point x="428" y="5" type="curve" smooth="yes"/>
      <point x="403" y="-7"/>
      <point x="373" y="4"/>
      <point x="361" y="28" type="curve" smooth="yes"/>
      <point x="294" y="168"/>
      <point x="200" y="365"/>
      <point x="138" y="492" type="curve" smooth="yes"/>
      <point x="126" y="516"/>
      <point x="137" y="547"/>
      <point x="161" y="559" type="curve" smooth="yes"/>
      <point x="185" y="571"/>
      <point x="216" y="560"/>
    </contour>
    <contour>
      <point x="363" y="82" type="curve" smooth="yes"/>
      <point x="424" y="219"/>
      <point x="504" y="396"/>
      <point x="578" y="543" type="curve" smooth="yes"/>
      <point x="591" y="567"/>
      <point x="622" y="577"/>
      <point x="646" y="565" type="curve" smooth="yes"/>
      <point x="670" y="552"/>
      <point x="680" y="521"/>
      <point x="668" y="497" type="curve" smooth="yes"/>
      <point x="594" y="352"/>
      <point x="514" y="177"/>
      <point x="455" y="42" type="curve" smooth="yes"/>
      <point x="444" y="17"/>
      <point x="414" y="5"/>
      <point x="389" y="16" type="curve" smooth="yes"/>
      <point x="364" y="27"/>
      <point x="352" y="57"/>
    </contour>
  </outline>
</glyph>
<glyph name="N" format="1">
  <advance width="645"/>
  <unicode hex="004E"/>
  <outline>
    <contour>
      <point x="178" y="518" type="curve" smooth="yes"/>
      <point x="178" y="33" type="line" smooth="yes"/>
      <point x="178" y="6"/>
      <point x="155" y="-17"/>
      <point x="128" y="-17" type="curve" smooth="yes"/>
      <point x="101" y="-17"/>
      <point x="78" y="6"/>
      <point x="78" y="33" type="curve" smooth="yes"/>
      <point x="78" y="518" type="line" smooth="yes"/>
      <point x="78" y="545"/>
      <point x="101" y="568"/>
      <point x="128" y="568" type="curve" smooth="yes"/>
      <point x="155" y="568"/>
      <point x="178" y="545"/>
    </contour>
    <contour>
      <point x="567" y="518" type="curve" smooth="yes"/>
      <point x="567" y="33" type="line" smooth="yes"/>
      <point x="567" y="6"/>
      <point x="544" y="-17"/>
      <point x="517" y="-17" type="curve" smooth="yes"/>
      <point x="490" y="-17"/>
      <point x="467" y="6"/>
      <point x="467" y="33" type="curve" smooth="yes"/>
      <point x="467" y="518" type="line" smooth="yes"/>
      <point x="467" y="545"/>
      <point x="490" y="568"/>
      <point x="517" y="568" type="curve" smooth="yes"/>
      <point x="544" y="568"/>
      <point x="567" y="545"/>
    </contour>
    <contour>
      <point x="174" y="548" type="curve" smooth="yes"/>
      <point x="249" y="448"/>
      <point x="444" y="206"/>
      <point x="551" y="63" type="curve" smooth="yes"/>
      <point x="567" y="41"/>
      <point x="563" y="9"/>
      <point x="541" y="-7" type="curve" smooth="yes"/>
      <point x="519" y="-23"/>
      <point x="487" y="-19"/>
      <point x="471" y="3" type="curve" smooth="yes"/>
      <point x="364" y="146"/>
      <point x="169" y="388"/>
      <point x="94" y="488" type="curve" smooth="yes"/>
      <point x="78" y="510"/>
      <point x="82" y="542"/>
      <point x="104" y="558" type="curve" smooth="yes"/>
      <point x="126" y="574"/>
      <point x="158" y="570"/>
    </contour>
  </outline>
</glyph>
<glyph name="O" format="1">
  <advance width="640"/>
  <unicode hex="004F"/>
  <outline>
    <contour>
      <point x="322" y="577" type="curve" smooth="yes"/>
      <point x="477" y="577"/>
      <point x="604" y="455"/>
      <point x="604" y="275" type="curve" smooth="yes"/>
      <point x="604" y="104"/>
      <point x="498" y="-26"/>
      <point x="322" y="-26" type="curve" smooth="yes"/>
      <point x="155" y="-26"/>
      <point x="36" y="105"/>
      <point x="36" y="272" type="curve"/>
      <point x="36" y="455"/>
      <point x="153" y="577"/>
    </contour>
    <contour>
      <point x="322" y="477" type="curve" smooth="yes"/>
      <point x="209" y="477"/>
      <point x="136" y="391"/>
      <point x="136" y="272" type="curve" smooth="yes"/>
      <point x="136" y="163"/>
      <point x="211" y="74"/>
      <point x="322" y="74" type="curve" smooth="yes"/>
      <point x="440" y="74"/>
      <point x="504" y="164"/>
      <point x="504" y="275" type="curve" smooth="yes"/>
      <point x="504" y="391"/>
      <point x="425" y="477"/>
    </contour>
  </outline>
</glyph>
<glyph name="P" format="1">
  <advance width="520"/>
  <unicode hex="0050"/>
  <outline>
    <contour>
      <point x="154" y="259" type="curve" smooth="yes"/>
      <point x="271" y="259" type="line" smooth="yes"/>
      <point x="348" y="259"/>
      <point x="392" y="304"/>
      <point x="392" y="364" type="curve" smooth="yes"/>
      <point x="392" y="428"/>
      <point x="339" y="468"/>
      <point x="271" y="468" type="curve" smooth="yes"/>
      <point x="128" y="468" type="line"/>
      <point x="178" y="518" type="line"/>
      <point x="178" y="33" type="line" smooth="yes"/>
      <point x="178" y="6"/>
      <point x="155" y="-17"/>
      <point x="128" y="-17" type="curve" smooth="yes"/>
      <point x="101" y="-17"/>
      <point x="78" y="6"/>
      <point x="78" y="33" type="curve" smooth="yes"/>
      <point x="78" y="518" type="line"/>
      <point x="78" y="546"/>
      <point x="100" y="568"/>
      <point x="128" y="568" type="curve" smooth="yes"/>
      <point x="271" y="568" type="line" smooth="yes"/>
      <point x="405" y="568"/>
      <point x="492" y="480"/>
      <point x="492" y="364" type="curve" smooth="yes"/>
      <point x="492" y="254"/>
      <point x="420" y="159"/>
      <point x="271" y="159" type="curve" smooth="yes"/>
      <point x="154" y="159" type="line" smooth="yes"/>
      <point x="127" y="159"/>
      <point x="104" y="182"/>
      <point x="104" y="209" type="curve" smooth="yes"/>
      <point x="104" y="236"/>
      <point x="127" y="259"/>
    </contour>
  </outline>
</glyph>
<glyph name="Q" format="1">
  <advance width="620"/>
  <unicode hex="0051"/>
  <outline>
    <contour>
      <point x="312" y="577" type="curve" smooth="yes"/>
      <point x="459" y="577"/>
      <point x="584" y="456"/>
      <point x="584" y="275" type="curve" smooth="yes"/>
      <point x="584" y="102"/>
      <point x="481" y="-26"/>
      <point x="312" y="-26" type="curve" smooth="yes"/>
      <point x="152" y="-26"/>
      <point x="36" y="103"/>
      <point x="36" y="272" type="curve"/>
      <point x="36" y="456"/>
      <point x="151" y="577"/>
    </contour>
    <contour>
      <point x="361" y="34" type="curve" smooth="yes"/>
      <point x="376" y="-21"/>
      <point x="430" y="-60"/>
      <point x="507" y="-60" type="curve" smooth="yes"/>
      <point x="534" y="-60"/>
      <point x="557" y="-83"/>
      <point x="557" y="-110" type="curve" smooth="yes"/>
      <point x="557" y="-137"/>
      <point x="534" y="-160"/>
      <point x="507" y="-160" type="curve" smooth="yes"/>
      <point x="372" y="-160"/>
      <point x="288" y="-83"/>
      <point x="265" y="8" type="curve" smooth="yes"/>
      <point x="258" y="35"/>
      <point x="274" y="63"/>
      <point x="300" y="69" type="curve" smooth="yes"/>
      <point x="327" y="76"/>
      <point x="355" y="60"/>
    </contour>
    <contour>
      <point x="312" y="477" type="curve" smooth="yes"/>
      <point x="203" y="477"/>
      <point x="136" y="390"/>
      <point x="136" y="272" type="curve" smooth="yes"/>
      <point x="136" y="165"/>
      <point x="206" y="74"/>
      <point x="312" y="74" type="curve" smooth="yes"/>
      <point x="425" y="74"/>
      <point x="484" y="166"/>
      <point x="484" y="275" type="curve" smooth="yes"/>
      <point x="484" y="390"/>
      <point x="411" y="477"/>
    </contour>
  </outline>
</glyph>
<glyph name="R" format="1">
  <advance width="539"/>
  <unicode hex="0052"/>
  <outline>
    <contour>
      <point x="154" y="282" type="curve" smooth="yes"/>
      <point x="275" y="282" type="line" smooth="yes"/>
      <point x="347" y="282"/>
      <point x="391" y="320"/>
      <point x="391" y="375" type="curve" smooth="yes"/>
      <point x="391" y="434"/>
      <point x="340" y="468"/>
      <point x="275" y="468" type="curve" smooth="yes"/>
      <point x="128" y="468" type="line"/>
      <point x="178" y="518" type="line"/>
      <point x="178" y="33" type="line" smooth="yes"/>
      <point x="178" y="6"/>
      <point x="155" y="-17"/>
      <point x="128" y="-17" type="curve" smooth="yes"/>
      <point x="101" y="-17"/>
      <point x="78" y="6"/>
      <point x="78" y="33" type="curve" smooth="yes"/>
      <point x="78" y="518" type="line"/>
      <point x="78" y="546"/>
      <point x="100" y="568"/>
      <point x="128" y="568" type="curve" smooth="yes"/>
      <point x="275" y="568" type="line" smooth="yes"/>
      <point x="410" y="568"/>
      <point x="491" y="484"/>
      <point x="491" y="375" type="curve" smooth="yes"/>
      <point x="491" y="274"/>
      <point x="425" y="182"/>
      <point x="275" y="182" type="curve" smooth="yes"/>
      <point x="154" y="182" type="line" smooth="yes"/>
      <point x="127" y="182"/>
      <point x="104" y="205"/>
      <point x="104" y="232" type="curve" smooth="yes"/>
      <point x="104" y="259"/>
      <point x="127" y="282"/>
    </contour>
    <contour>
      <point x="348" y="251" type="curve" smooth="yes"/>
      <point x="507" y="65" type="line" smooth="yes"/>
      <point x="525" y="45"/>
      <point x="522" y="13"/>
      <point x="501" y="-5" type="curve" smooth="yes"/>
      <point x="481" y="-23"/>
      <point x="449" y="-20"/>
      <point x="431" y="1" type="curve" smooth="yes"/>
      <point x="272" y="187" type="line" smooth="yes"/>
      <point x="254" y="207"/>
      <point x="257" y="239"/>
      <point x="278" y="257" type="curve" smooth="yes"/>
      <point x="298" y="275"/>
      <point x="330" y="272"/>
    </contour>
  </outline>
</glyph>
<glyph name="S" format="1">
  <advance width="535"/>
  <unicode hex="0053"/>
  <outline>
    <contour>
      <point x="379" y="448" type="curve" smooth="yes"/>
      <point x="338" y="464"/>
      <point x="308" y="474"/>
      <point x="248" y="474" type="curve" smooth="yes"/>
      <point x="204" y="474"/>
      <point x="162" y="454"/>
      <point x="162" y="420" type="curve" smooth="yes"/>
      <point x="162" y="384"/>
      <point x="194" y="353"/>
      <point x="279" y="337" type="curve" smooth="yes"/>
      <point x="444" y="301"/>
      <point x="482" y="226"/>
      <point x="482" y="146" type="curve" smooth="yes"/>
      <point x="482" y="62"/>
      <point x="429" y="-26"/>
      <point x="268" y="-26" type="curve" smooth="yes"/>
      <point x="199" y="-26"/>
      <point x="134" y="-10"/>
      <point x="75" y="23" type="curve" smooth="yes"/>
      <point x="51" y="36"/>
      <point x="42" y="68"/>
      <point x="55" y="91" type="curve" smooth="yes"/>
      <point x="68" y="115"/>
      <point x="100" y="124"/>
      <point x="123" y="111" type="curve" smooth="yes"/>
      <point x="168" y="86"/>
      <point x="217" y="74"/>
      <point x="268" y="74" type="curve" smooth="yes"/>
      <point x="335" y="74"/>
      <point x="382" y="102"/>
      <point x="382" y="146" type="curve" smooth="yes"/>
      <point x="382" y="194"/>
      <point x="338" y="221"/>
      <point x="259" y="239" type="curve" smooth="yes"/>
      <point x="76" y="275"/>
      <point x="62" y="356"/>
      <point x="62" y="420" type="curve"/>
      <point x="62" y="492"/>
      <point x="122" y="574"/>
      <point x="248" y="574" type="curve" smooth="yes"/>
      <point x="326" y="574"/>
      <point x="364" y="562"/>
      <point x="417" y="540" type="curve" smooth="yes"/>
      <point x="442" y="530"/>
      <point x="454" y="500"/>
      <point x="444" y="475" type="curve" smooth="yes"/>
      <point x="434" y="450"/>
      <point x="404" y="438"/>
    </contour>
  </outline>
</glyph>
<glyph name="T" format="1">
  <advance width="558"/>
  <unicode hex="0054"/>
  <outline>
    <contour>
      <point x="327" y="518" type="curve" smooth="yes"/>
      <point x="327" y="33" type="line" smooth="yes"/>
      <point x="327" y="6"/>
      <point x="304" y="-17"/>
      <point x="277" y="-17" type="curve" smooth="yes"/>
      <point x="250" y="-17"/>
      <point x="227" y="6"/>
      <point x="227" y="33" type="curve" smooth="yes"/>
      <point x="227" y="518" type="line" smooth="yes"/>
      <point x="227" y="545"/>
      <point x="250" y="568"/>
      <point x="277" y="568" type="curve" smooth="yes"/>
      <point x="304" y="568"/>
      <point x="327" y="545"/>
    </contour>
    <contour>
      <point x="65" y="568" type="curve" smooth="yes"/>
      <point x="493" y="568" type="line" smooth="yes"/>
      <point x="520" y="568"/>
      <point x="543" y="545"/>
      <point x="543" y="518" type="curve" smooth="yes"/>
      <point x="543" y="491"/>
      <point x="520" y="468"/>
      <point x="493" y="468" type="curve" smooth="yes"/>
      <point x="65" y="468" type="line" smooth="yes"/>
      <point x="38" y="468"/>
      <point x="15" y="491"/>
      <point x="15" y="518" type="curve" smooth="yes"/>
      <point x="15" y="545"/>
      <point x="38" y="568"/>
    </contour>
  </outline>
</glyph>
<glyph name="U" format="1">
  <advance width="626"/>
  <unicode hex="0055"/>
  <outline>
    <contour>
      <point x="166" y="518" type="curve" smooth="yes"/>
      <point x="166" y="222" type="line" smooth="yes"/>
      <point x="166" y="128"/>
      <point x="225" y="74"/>
      <point x="311" y="74" type="curve" smooth="yes"/>
      <point x="406" y="74"/>
      <point x="460" y="128"/>
      <point x="460" y="225" type="curve" smooth="yes"/>
      <point x="460" y="518" type="line" smooth="yes"/>
      <point x="460" y="545"/>
      <point x="483" y="568"/>
      <point x="510" y="568" type="curve" smooth="yes"/>
      <point x="537" y="568"/>
      <point x="560" y="545"/>
      <point x="560" y="518" type="curve" smooth="yes"/>
      <point x="560" y="225" type="line" smooth="yes"/>
      <point x="560" y="62"/>
      <point x="470" y="-26"/>
      <point x="311" y="-26" type="curve" smooth="yes"/>
      <point x="167" y="-26"/>
      <point x="66" y="62"/>
      <point x="66" y="222" type="curve"/>
      <point x="66" y="518" type="line" smooth="yes"/>
      <point x="66" y="545"/>
      <point x="89" y="568"/>
      <point x="116" y="568" type="curve" smooth="yes"/>
      <point x="143" y="568"/>
      <point x="166" y="545"/>
    </contour>
  </outline>
</glyph>
<glyph name="V" format="1">
  <advance width="595"/>
  <unicode hex="0056"/>
  <outline>
    <contour>
      <point x="128" y="534" type="curve" smooth="yes"/>
      <point x="167" y="412"/>
      <point x="300" y="126"/>
      <point x="339" y="53" type="curve" smooth="yes"/>
      <point x="352" y="29"/>
      <point x="343" y="-2"/>
      <point x="319" y="-15" type="curve" smooth="yes"/>
      <point x="295" y="-28"/>
      <point x="264" y="-19"/>
      <point x="251" y="5" type="curve" smooth="yes"/>
      <point x="210" y="80"/>
      <point x="73" y="378"/>
      <point x="32" y="504" type="curve" smooth="yes"/>
      <point x="24" y="529"/>
      <point x="39" y="558"/>
      <point x="65" y="567" type="curve" smooth="yes"/>
      <point x="90" y="575"/>
      <point x="119" y="560"/>
    </contour>
    <contour>
      <point x="254" y="46" type="curve" smooth="yes"/>
      <point x="297" y="129"/>
      <point x="419" y="393"/>
      <point x="468" y="534" type="curve" smooth="yes"/>
      <point x="476" y="560"/>
      <point x="506" y="574"/>
      <point x="531" y="565" type="curve" smooth="yes"/>
      <point x="557" y="557"/>
      <point x="571" y="527"/>
      <point x="562" y="502" type="curve" smooth="yes"/>
      <point x="513" y="357"/>
      <point x="387" y="85"/>
      <point x="342" y="0" type="curve" smooth="yes"/>
      <point x="330" y="-24"/>
      <point x="299" y="-34"/>
      <point x="275" y="-21" type="curve" smooth="yes"/>
      <point x="251" y="-9"/>
      <point x="241" y="22"/>
    </contour>
  </outline>
</glyph>
<glyph name="W" format="1">
  <advance width="893"/>
  <unicode hex="0057"/>
  <outline>
    <contour>
      <point x="137" y="530" type="curve" smooth="yes"/>
      <point x="171" y="408"/>
      <point x="269" y="124"/>
      <point x="303" y="51" type="curve" smooth="yes"/>
      <point x="315" y="27"/>
      <point x="304" y="-4"/>
      <point x="279" y="-15" type="curve" smooth="yes"/>
      <point x="255" y="-27"/>
      <point x="224" y="-16"/>
      <point x="213" y="9" type="curve" smooth="yes"/>
      <point x="177" y="84"/>
      <point x="75" y="378"/>
      <point x="41" y="504" type="curve" smooth="yes"/>
      <point x="34" y="530"/>
      <point x="50" y="558"/>
      <point x="76" y="565" type="curve" smooth="yes"/>
      <point x="102" y="572"/>
      <point x="130" y="556"/>
    </contour>
    <contour>
      <point x="216" y="44" type="curve" smooth="yes"/>
      <point x="253" y="127"/>
      <point x="357" y="389"/>
      <point x="399" y="529" type="curve" smooth="yes"/>
      <point x="407" y="554"/>
      <point x="436" y="570"/>
      <point x="462" y="562" type="curve" smooth="yes"/>
      <point x="487" y="554"/>
      <point x="503" y="525"/>
      <point x="495" y="499" type="curve" smooth="yes"/>
      <point x="451" y="357"/>
      <point x="345" y="89"/>
      <point x="308" y="4" type="curve" smooth="yes"/>
      <point x="297" y="-21"/>
      <point x="267" y="-33"/>
      <point x="242" y="-22" type="curve" smooth="yes"/>
      <point x="217" y="-11"/>
      <point x="205" y="19"/>
    </contour>
    <contour>
      <point x="499" y="517" type="curve" smooth="yes"/>
      <point x="536" y="397"/>
      <point x="637" y="124"/>
      <point x="673" y="51" type="curve" smooth="yes"/>
      <point x="685" y="27"/>
      <point x="674" y="-4"/>
      <point x="650" y="-16" type="curve" smooth="yes"/>
      <point x="626" y="-28"/>
      <point x="595" y="-17"/>
      <point x="583" y="7" type="curve" smooth="yes"/>
      <point x="547" y="82"/>
      <point x="442" y="363"/>
      <point x="403" y="487" type="curve" smooth="yes"/>
      <point x="395" y="513"/>
      <point x="410" y="542"/>
      <point x="436" y="550" type="curve" smooth="yes"/>
      <point x="462" y="558"/>
      <point x="491" y="543"/>
    </contour>
    <contour>
      <point x="586" y="43" type="curve" smooth="yes"/>
      <point x="623" y="126"/>
      <point x="716" y="390"/>
      <point x="757" y="531" type="curve" smooth="yes"/>
      <point x="764" y="557"/>
      <point x="793" y="573"/>
      <point x="819" y="565" type="curve" smooth="yes"/>
      <point x="845" y="558"/>
      <point x="861" y="529"/>
      <point x="853" y="503" type="curve" smooth="yes"/>
      <point x="812" y="358"/>
      <point x="715" y="88"/>
      <point x="678" y="3" type="curve" smooth="yes"/>
      <point x="667" y="-22"/>
      <point x="637" y="-34"/>
      <point x="612" y="-23" type="curve" smooth="yes"/>
      <point x="587" y="-12"/>
      <point x="575" y="18"/>
    </contour>
  </outline>
</glyph>
<glyph name="X" format="1">
  <advance width="573"/>
  <unicode hex="0058"/>
  <outline>
    <contour>
      <point x="144" y="546" type="curve" smooth="yes"/>
      <point x="240" y="406"/>
      <point x="466" y="146"/>
      <point x="525" y="62" type="curve" smooth="yes"/>
      <point x="540" y="40"/>
      <point x="535" y="8"/>
      <point x="513" y="-8" type="curve" smooth="yes"/>
      <point x="491" y="-23"/>
      <point x="459" y="-18"/>
      <point x="443" y="4" type="curve" smooth="yes"/>
      <point x="384" y="88"/>
      <point x="158" y="350"/>
      <point x="62" y="490" type="curve" smooth="yes"/>
      <point x="46" y="512"/>
      <point x="52" y="544"/>
      <point x="75" y="559" type="curve" smooth="yes"/>
      <point x="97" y="575"/>
      <point x="129" y="569"/>
    </contour>
    <contour>
      <point x="50" y="63" type="curve" smooth="yes"/>
      <point x="128" y="169"/>
      <point x="336" y="413"/>
      <point x="422" y="545" type="curve" smooth="yes"/>
      <point x="437" y="568"/>
      <point x="468" y="575"/>
      <point x="491" y="560" type="curve" smooth="yes"/>
      <point x="514" y="545"/>
      <point x="521" y="514"/>
      <point x="506" y="491" type="curve" smooth="yes"/>
      <point x="420" y="357"/>
      <point x="210" y="111"/>
      <point x="130" y="3" type="curve" smooth="yes"/>
      <point x="114" y="-18"/>
      <point x="82" y="-23"/>
      <point x="60" y="-7" type="curve" smooth="yes"/>
      <point x="39" y="9"/>
      <point x="34" y="41"/>
    </contour>
  </outline>
</glyph>
<glyph name="Y" format="1">
  <advance width="570"/>
  <unicode hex="0059"/>
  <outline>
    <contour>
      <point x="337" y="201" type="curve" smooth="yes"/>
      <point x="337" y="33" type="line" smooth="yes"/>
      <point x="337" y="6"/>
      <point x="314" y="-17"/>
      <point x="287" y="-17" type="curve" smooth="yes"/>
      <point x="260" y="-17"/>
      <point x="237" y="6"/>
      <point x="237" y="33" type="curve" smooth="yes"/>
      <point x="237" y="201" type="line" smooth="yes"/>
      <point x="237" y="228"/>
      <point x="260" y="251"/>
      <point x="287" y="251" type="curve" smooth="yes"/>
      <point x="314" y="251"/>
      <point x="337" y="228"/>
    </contour>
    <contour>
      <point x="122" y="544" type="curve" smooth="yes"/>
      <point x="163" y="475"/>
      <point x="282" y="299"/>
      <point x="324" y="243" type="curve" smooth="yes"/>
      <point x="340" y="222"/>
      <point x="336" y="189"/>
      <point x="314" y="173" type="curve" smooth="yes"/>
      <point x="293" y="157"/>
      <point x="260" y="161"/>
      <point x="244" y="183" type="curve" smooth="yes"/>
      <point x="200" y="241"/>
      <point x="79" y="421"/>
      <point x="36" y="492" type="curve" smooth="yes"/>
      <point x="22" y="515"/>
      <point x="30" y="547"/>
      <point x="53" y="561" type="curve" smooth="yes"/>
      <point x="76" y="575"/>
      <point x="108" y="567"/>
    </contour>
    <contour>
      <point x="247" y="237" type="curve" smooth="yes"/>
      <point x="295" y="302"/>
      <point x="408" y="475"/>
      <point x="448" y="544" type="curve" smooth="yes"/>
      <point x="462" y="567"/>
      <point x="493" y="575"/>
      <point x="517" y="561" type="curve" smooth="yes"/>
      <point x="540" y="547"/>
      <point x="548" y="516"/>
      <point x="534" y="492" type="curve" smooth="yes"/>
      <point x="492" y="423"/>
      <point x="377" y="244"/>
      <point x="327" y="177" type="curve" smooth="yes"/>
      <point x="311" y="156"/>
      <point x="279" y="151"/>
      <point x="257" y="167" type="curve" smooth="yes"/>
      <point x="236" y="183"/>
      <point x="231" y="215"/>
    </contour>
  </outline>
</glyph>
<glyph name="Z" format="1">
  <advance width="577"/>
  <unicode hex="005A"/>
  <outline>
    <contour>
      <point x="513" y="490" type="curve" smooth="yes"/>
      <point x="450" y="395"/>
      <point x="197" y="96"/>
      <point x="144" y="14" type="curve" smooth="yes"/>
      <point x="129" y="-9"/>
      <point x="98" y="-16"/>
      <point x="75" y="-1" type="curve" smooth="yes"/>
      <point x="52" y="14"/>
      <point x="45" y="45"/>
      <point x="60" y="68" type="curve" smooth="yes"/>
      <point x="113" y="150"/>
      <point x="366" y="451"/>
      <point x="429" y="546" type="curve" smooth="yes"/>
      <point x="444" y="568"/>
      <point x="476" y="575"/>
      <point x="499" y="560" type="curve" smooth="yes"/>
      <point x="521" y="545"/>
      <point x="528" y="513"/>
    </contour>
    <contour>
      <point x="111" y="568" type="curve" smooth="yes"/>
      <point x="460" y="568" type="line" smooth="yes"/>
      <point x="487" y="568"/>
      <point x="510" y="545"/>
      <point x="510" y="518" type="curve" smooth="yes"/>
      <point x="510" y="491"/>
      <point x="487" y="468"/>
      <point x="460" y="468" type="curve" smooth="yes"/>
      <point x="111" y="468" type="line" smooth="yes"/>
      <point x="84" y="468"/>
      <point x="61" y="491"/>
      <point x="61" y="518" type="curve" smooth="yes"/>
      <point x="61" y="545"/>
      <point x="84" y="568"/>
    </contour>
    <contour>
      <point x="98" y="83" type="curve" smooth="yes"/>
      <point x="483" y="83" type="line" smooth="yes"/>
      <point x="510" y="83"/>
      <point x="533" y="60"/>
      <point x="533" y="33" type="curve" smooth="yes"/>
      <point x="533" y="6"/>
      <point x="510" y="-17"/>
      <point x="483" y="-17" type="curve" smooth="yes"/>
      <point x="98" y="-17" type="line" smooth="yes"/>
      <point x="71" y="-17"/>
      <point x="48" y="6"/>
      <point x="48" y="33" type="curve" smooth="yes"/>
      <point x="48" y="60"/>
      <point x="71" y="83"/>
    </contour>
  </outline>
</glyph>
<glyph name="bracketleft" format="1">
  <advance width="325"/>
  <unicode hex="005B"/>
  <outline>
    <contour>
      <point x="238" y="563" type="curve" smooth="yes"/>
      <point x="103" y="563" type="line"/>
      <point x="153" y="613" type="line"/>
      <point x="153" y="-66" type="line"/>
      <point x="103" y="-16" type="line"/>
      <point x="238" y="-16" type="line" smooth="yes"/>
      <point x="265" y="-16"/>
      <point x="288" y="-39"/>
      <point x="288" y="-66" type="curve" smooth="yes"/>
      <point x="288" y="-93"/>
      <point x="265" y="-116"/>
      <point x="238" y="-116" type="curve" smooth="yes"/>
      <point x="103" y="-116" type="line" smooth="yes"/>
      <point x="75" y="-116"/>
      <point x="53" y="-94"/>
      <point x="53" y="-66" type="curve"/>
      <point x="53" y="613" type="line"/>
      <point x="53" y="641"/>
      <point x="75" y="663"/>
      <point x="103" y="663" type="curve" smooth="yes"/>
      <point x="238" y="663" type="line" smooth="yes"/>
      <point x="265" y="663"/>
      <point x="288" y="640"/>
      <point x="288" y="613" type="curve" smooth="yes"/>
      <point x="288" y="586"/>
      <point x="265" y="563"/>
    </contour>
  </outline>
</glyph>
<glyph name="asciicircum" format="1">
  <advance width="500"/>
  <unicode hex="005E"/>
  <outline>
    <contour>
      <point x="290" y="503" type="curve" smooth="yes"/>
      <point x="242" y="411"/>
      <point x="191" y="316"/>
      <point x="150" y="236" type="curve" smooth="yes"/>
      <point x="138" y="212"/>
      <point x="107" y="202"/>
      <point x="83" y="215" type="curve" smooth="yes"/>
      <point x="59" y="227"/>
      <point x="49" y="258"/>
      <point x="62" y="282" type="curve" smooth="yes"/>
      <point x="103" y="362"/>
      <point x="154" y="457"/>
      <point x="202" y="549" type="curve" smooth="yes"/>
      <point x="214" y="573"/>
      <point x="245" y="583"/>
      <point x="269" y="570" type="curve" smooth="yes"/>
      <point x="293" y="558"/>
      <point x="303" y="527"/>
    </contour>
    <contour>
      <point x="351" y="236" type="curve" smooth="yes"/>
      <point x="310" y="316"/>
      <point x="261" y="410"/>
      <point x="211" y="502" type="curve" smooth="yes"/>
      <point x="198" y="526"/>
      <point x="207" y="557"/>
      <point x="231" y="570" type="curve" smooth="yes"/>
      <point x="255" y="583"/>
      <point x="286" y="574"/>
      <point x="299" y="550" type="curve" smooth="yes"/>
      <point x="349" y="458"/>
      <point x="398" y="362"/>
      <point x="439" y="282" type="curve" smooth="yes"/>
      <point x="452" y="258"/>
      <point x="442" y="227"/>
      <point x="418" y="215" type="curve" smooth="yes"/>
      <point x="394" y="202"/>
      <point x="363" y="212"/>
    </contour>
  </outline>
</glyph>
<glyph name="underscore" format="1">
  <advance width="545"/>
  <unicode hex="005F"/>
  <outline>
    <contour>
      <point x="65" y="-41" type="curve" smooth="yes"/>
      <point x="480" y="-41" type="line" smooth="yes"/>
      <point x="507" y="-41"/>
      <point x="530" y="-64"/>
      <point x="530" y="-91" type="curve" smooth="yes"/>
      <point x="530" y="-118"/>
      <point x="507" y="-141"/>
      <point x="480" y="-141" type="curve" smooth="yes"/>
      <point x="65" y="-141" type="line" smooth="yes"/>
      <point x="38" y="-141"/>
      <point x="15" y="-118"/>
      <point x="15" y="-91" type="curve" smooth="yes"/>
      <point x="15" y="-64"/>
      <point x="38" y="-41"/>
    </contour>
  </outline>
</glyph>
<glyph name="grave" format="1">
  <advance width="500"/>
  <unicode hex="0060"/>
  <outline>
    <contour>
      <point x="259" y="628" type="curve" smooth="yes"/>
      <point x="289" y="591"/>
      <point x="303" y="572"/>
      <point x="329" y="531" type="curve" smooth="yes"/>
      <point x="343" y="508"/>
      <point x="335" y="477"/>
      <point x="312" y="462" type="curve" smooth="yes"/>
      <point x="289" y="448"/>
      <point x="258" y="456"/>
      <point x="243" y="479" type="curve" smooth="yes"/>
      <point x="221" y="516"/>
      <point x="207" y="533"/>
      <point x="181" y="566" type="curve" smooth="yes"/>
      <point x="164" y="587"/>
      <point x="168" y="619"/>
      <point x="189" y="636" type="curve" smooth="yes"/>
      <point x="210" y="653"/>
      <point x="242" y="649"/>
    </contour>
  </outline>
</glyph>
<glyph name="a" format="1">
  <advance width="456"/>
  <unicode hex="0061"/>
  <outline>
    <contour>
      <point x="111" y="406" type="curve" smooth="yes"/>
      <point x="136" y="415"/>
      <point x="181" y="425"/>
      <point x="220" y="425" type="curve" smooth="yes"/>
      <point x="346" y="425"/>
      <point x="404" y="349"/>
      <point x="404" y="238" type="curve" smooth="yes"/>
      <point x="404" y="147" type="line" smooth="yes"/>
      <point x="404" y="109"/>
      <point x="411" y="86"/>
      <point x="428" y="68" type="curve" smooth="yes"/>
      <point x="446" y="48"/>
      <point x="445" y="16"/>
      <point x="425" y="-3" type="curve" smooth="yes"/>
      <point x="405" y="-21"/>
      <point x="373" y="-20"/>
      <point x="354" y="0" type="curve" smooth="yes"/>
      <point x="323" y="34"/>
      <point x="304" y="75"/>
      <point x="304" y="147" type="curve" smooth="yes"/>
      <point x="304" y="238" type="line" smooth="yes"/>
      <point x="304" y="289"/>
      <point x="278" y="325"/>
      <point x="220" y="325" type="curve" smooth="yes"/>
      <point x="193" y="325"/>
      <point x="160" y="317"/>
      <point x="143" y="312" type="curve" smooth="yes"/>
      <point x="117" y="303"/>
      <point x="88" y="318"/>
      <point x="80" y="343" type="curve" smooth="yes"/>
      <point x="71" y="369"/>
      <point x="86" y="398"/>
    </contour>
    <contour>
      <point x="352" y="177" type="curve" smooth="yes"/>
      <point x="318" y="178"/>
      <point x="289" y="180"/>
      <point x="260" y="180" type="curve" smooth="yes"/>
      <point x="205" y="180"/>
      <point x="166" y="170"/>
      <point x="143" y="147" type="curve" smooth="yes"/>
      <point x="133" y="136"/>
      <point x="130" y="126"/>
      <point x="130" y="114" type="curve" smooth="yes"/>
      <point x="130" y="97"/>
      <point x="150" y="83"/>
      <point x="177" y="83" type="curve" smooth="yes"/>
      <point x="235" y="83"/>
      <point x="277" y="107"/>
      <point x="314" y="158" type="curve" smooth="yes"/>
      <point x="330" y="179"/>
      <point x="362" y="184"/>
      <point x="384" y="168" type="curve" smooth="yes"/>
      <point x="405" y="152"/>
      <point x="410" y="120"/>
      <point x="394" y="98" type="curve" smooth="yes"/>
      <point x="335" y="19"/>
      <point x="267" y="-17"/>
      <point x="177" y="-17" type="curve" smooth="yes"/>
      <point x="62" y="-17"/>
      <point x="30" y="59"/>
      <point x="30" y="114" type="curve" smooth="yes"/>
      <point x="30" y="152"/>
      <point x="41" y="188"/>
      <point x="73" y="217" type="curve" smooth="yes"/>
      <point x="110" y="254"/>
      <point x="169" y="280"/>
      <point x="260" y="280" type="curve" smooth="yes"/>
      <point x="289" y="280"/>
      <point x="320" y="278"/>
      <point x="354" y="277" type="curve" smooth="yes"/>
      <point x="381" y="276"/>
      <point x="404" y="253"/>
      <point x="403" y="226" type="curve" smooth="yes"/>
      <point x="402" y="199"/>
      <point x="379" y="176"/>
    </contour>
  </outline>
</glyph>
<glyph name="b" format="1">
  <advance width="515"/>
  <unicode hex="0062"/>
  <outline>
    <contour>
      <point x="65" y="34" type="curve" smooth="yes"/>
      <point x="65" y="544" type="line" smooth="yes"/>
      <point x="65" y="571"/>
      <point x="88" y="594"/>
      <point x="115" y="594" type="curve" smooth="yes"/>
      <point x="142" y="594"/>
      <point x="165" y="571"/>
      <point x="165" y="544" type="curve" smooth="yes"/>
      <point x="165" y="34" type="line" smooth="yes"/>
      <point x="165" y="7"/>
      <point x="142" y="-16"/>
      <point x="115" y="-16" type="curve" smooth="yes"/>
      <point x="88" y="-16"/>
      <point x="65" y="7"/>
    </contour>
    <contour>
      <point x="139" y="116" type="curve" smooth="yes"/>
      <point x="180" y="94"/>
      <point x="223" y="83"/>
      <point x="273" y="83" type="curve" smooth="yes"/>
      <point x="341" y="83"/>
      <point x="387" y="131"/>
      <point x="387" y="203" type="curve" smooth="yes"/>
      <point x="387" y="272"/>
      <point x="346" y="325"/>
      <point x="286" y="325" type="curve" smooth="yes"/>
      <point x="238" y="325"/>
      <point x="192" y="287"/>
      <point x="158" y="233" type="curve" smooth="yes"/>
      <point x="144" y="210"/>
      <point x="112" y="202"/>
      <point x="90" y="217" type="curve" smooth="yes"/>
      <point x="67" y="231"/>
      <point x="59" y="263"/>
      <point x="74" y="285" type="curve" smooth="yes"/>
      <point x="130" y="375"/>
      <point x="210" y="425"/>
      <point x="286" y="425" type="curve" smooth="yes"/>
      <point x="394" y="425"/>
      <point x="487" y="340"/>
      <point x="487" y="203" type="curve" smooth="yes"/>
      <point x="487" y="67"/>
      <point x="397" y="-17"/>
      <point x="273" y="-17" type="curve" smooth="yes"/>
      <point x="205" y="-17"/>
      <point x="146" y="-2"/>
      <point x="91" y="28" type="curve" smooth="yes"/>
      <point x="67" y="41"/>
      <point x="58" y="72"/>
      <point x="71" y="96" type="curve" smooth="yes"/>
      <point x="84" y="120"/>
      <point x="115" y="129"/>
    </contour>
  </outline>
</glyph>
<glyph name="c" format="1">
  <advance width="443"/>
  <unicode hex="0063"/>
  <outline>
    <contour>
      <point x="338" y="313" type="curve" smooth="yes"/>
      <point x="316" y="320"/>
      <point x="289" y="325"/>
      <point x="265" y="325" type="curve" smooth="yes"/>
      <point x="180" y="325"/>
      <point x="129" y="271"/>
      <point x="129" y="195" type="curve" smooth="yes"/>
      <point x="129" y="129"/>
      <point x="182" y="83"/>
      <point x="264" y="83" type="curve" smooth="yes"/>
      <point x="298" y="83"/>
      <point x="325" y="90"/>
      <point x="348" y="99" type="curve" smooth="yes"/>
      <point x="373" y="108"/>
      <point x="403" y="95"/>
      <point x="413" y="70" type="curve" smooth="yes"/>
      <point x="422" y="45"/>
      <point x="409" y="15"/>
      <point x="384" y="5" type="curve" smooth="yes"/>
      <point x="351" y="-8"/>
      <point x="312" y="-17"/>
      <point x="264" y="-17" type="curve" smooth="yes"/>
      <point x="108" y="-17"/>
      <point x="29" y="79"/>
      <point x="29" y="195" type="curve" smooth="yes"/>
      <point x="29" y="327"/>
      <point x="114" y="425"/>
      <point x="265" y="425" type="curve" smooth="yes"/>
      <point x="299" y="425"/>
      <point x="338" y="418"/>
      <point x="370" y="407" type="curve" smooth="yes"/>
      <point x="395" y="399"/>
      <point x="410" y="370"/>
      <point x="401" y="344" type="curve" smooth="yes"/>
      <point x="393" y="319"/>
      <point x="364" y="304"/>
    </contour>
  </outline>
</glyph>
<glyph name="d" format="1">
  <advance width="514"/>
  <unicode hex="0064"/>
  <outline>
    <contour>
      <point x="367" y="277" type="curve" smooth="yes"/>
      <point x="332" y="307"/>
      <point x="297" y="325"/>
      <point x="249" y="325" type="curve" smooth="yes"/>
      <point x="178" y="325"/>
      <point x="128" y="270"/>
      <point x="128" y="196" type="curve"/>
      <point x="128" y="130"/>
      <point x="169" y="83"/>
      <point x="228" y="83" type="curve" smooth="yes"/>
      <point x="287" y="83"/>
      <point x="326" y="126"/>
      <point x="355" y="175" type="curve" smooth="yes"/>
      <point x="369" y="199"/>
      <point x="400" y="207"/>
      <point x="423" y="193" type="curve" smooth="yes"/>
      <point x="447" y="179"/>
      <point x="455" y="148"/>
      <point x="441" y="125" type="curve" smooth="yes"/>
      <point x="392" y="42"/>
      <point x="321" y="-17"/>
      <point x="228" y="-17" type="curve" smooth="yes"/>
      <point x="117" y="-17"/>
      <point x="28" y="64"/>
      <point x="28" y="196" type="curve" smooth="yes"/>
      <point x="28" y="330"/>
      <point x="124" y="425"/>
      <point x="249" y="425" type="curve" smooth="yes"/>
      <point x="321" y="425"/>
      <point x="376" y="399"/>
      <point x="431" y="355" type="curve" smooth="yes"/>
      <point x="452" y="337"/>
      <point x="455" y="305"/>
      <point x="438" y="284" type="curve" smooth="yes"/>
      <point x="420" y="263"/>
      <point x="388" y="260"/>
    </contour>
    <contour>
      <point x="449" y="544" type="curve" smooth="yes"/>
      <point x="449" y="33" type="line" smooth="yes"/>
      <point x="449" y="6"/>
      <point x="426" y="-17"/>
      <point x="399" y="-17" type="curve" smooth="yes"/>
      <point x="372" y="-17"/>
      <point x="349" y="6"/>
      <point x="349" y="33" type="curve" smooth="yes"/>
      <point x="349" y="544" type="line" smooth="yes"/>
      <point x="349" y="571"/>
      <point x="372" y="594"/>
      <point x="399" y="594" type="curve" smooth="yes"/>
      <point x="426" y="594"/>
      <point x="449" y="571"/>
    </contour>
  </outline>
</glyph>
<glyph name="e" format="1">
  <advance width="468"/>
  <unicode hex="0065"/>
  <outline>
    <contour>
      <point x="92" y="259" type="curve" smooth="yes"/>
      <point x="311" y="259" type="line" smooth="yes"/>
      <point x="317" y="259"/>
      <point x="333" y="255"/>
      <point x="333" y="267" type="curve" smooth="yes"/>
      <point x="333" y="293"/>
      <point x="295" y="325"/>
      <point x="247" y="325" type="curve" smooth="yes"/>
      <point x="180" y="325"/>
      <point x="129" y="273"/>
      <point x="129" y="199" type="curve" smooth="yes"/>
      <point x="129" y="120"/>
      <point x="189" y="83"/>
      <point x="267" y="83" type="curve" smooth="yes"/>
      <point x="296" y="83"/>
      <point x="325" y="90"/>
      <point x="346" y="98" type="curve" smooth="yes"/>
      <point x="371" y="107"/>
      <point x="401" y="94"/>
      <point x="411" y="69" type="curve" smooth="yes"/>
      <point x="420" y="44"/>
      <point x="407" y="14"/>
      <point x="382" y="4" type="curve" smooth="yes"/>
      <point x="351" y="-8"/>
      <point x="310" y="-17"/>
      <point x="267" y="-17" type="curve" smooth="yes"/>
      <point x="123" y="-17"/>
      <point x="29" y="62"/>
      <point x="29" y="199" type="curve" smooth="yes"/>
      <point x="29" y="335"/>
      <point x="128" y="425"/>
      <point x="247" y="425" type="curve" smooth="yes"/>
      <point x="377" y="425"/>
      <point x="433" y="323"/>
      <point x="433" y="267" type="curve" smooth="yes"/>
      <point x="433" y="199"/>
      <point x="387" y="159"/>
      <point x="311" y="159" type="curve" smooth="yes"/>
      <point x="92" y="159" type="line" smooth="yes"/>
      <point x="65" y="159"/>
      <point x="42" y="182"/>
      <point x="42" y="209" type="curve" smooth="yes"/>
      <point x="42" y="236"/>
      <point x="65" y="259"/>
    </contour>
  </outline>
</glyph>
<glyph name="f" format="1">
  <advance width="328"/>
  <unicode hex="0066"/>
  <outline>
    <contour>
      <point x="278" y="520" type="curve" smooth="yes"/>
      <point x="216" y="517"/>
      <point x="189" y="494"/>
      <point x="189" y="448" type="curve" smooth="yes"/>
      <point x="189" y="33" type="line" smooth="yes"/>
      <point x="189" y="6"/>
      <point x="166" y="-17"/>
      <point x="139" y="-17" type="curve" smooth="yes"/>
      <point x="112" y="-17"/>
      <point x="89" y="6"/>
      <point x="89" y="33" type="curve" smooth="yes"/>
      <point x="89" y="448" type="line" smooth="yes"/>
      <point x="89" y="542"/>
      <point x="126" y="611"/>
      <point x="272" y="620" type="curve" smooth="yes"/>
      <point x="299" y="621"/>
      <point x="323" y="600"/>
      <point x="325" y="573" type="curve" smooth="yes"/>
      <point x="326" y="546"/>
      <point x="305" y="522"/>
    </contour>
    <contour>
      <point x="51" y="425" type="curve" smooth="yes"/>
      <point x="277" y="425" type="line" smooth="yes"/>
      <point x="304" y="425"/>
      <point x="327" y="402"/>
      <point x="327" y="375" type="curve" smooth="yes"/>
      <point x="327" y="348"/>
      <point x="304" y="325"/>
      <point x="277" y="325" type="curve" smooth="yes"/>
      <point x="51" y="325" type="line" smooth="yes"/>
      <point x="24" y="325"/>
      <point x="1" y="348"/>
      <point x="1" y="375" type="curve" smooth="yes"/>
      <point x="1" y="402"/>
      <point x="24" y="425"/>
    </contour>
  </outline>
</glyph>
<glyph name="g" format="1">
  <advance width="512"/>
  <unicode hex="0067"/>
  <outline>
    <contour>
      <point x="375" y="293" type="curve" smooth="yes"/>
      <point x="331" y="314"/>
      <point x="302" y="325"/>
      <point x="254" y="325" type="curve" smooth="yes"/>
      <point x="190" y="325"/>
      <point x="128" y="274"/>
      <point x="128" y="195" type="curve"/>
      <point x="128" y="127"/>
      <point x="173" y="95"/>
      <point x="220" y="95" type="curve" smooth="yes"/>
      <point x="271" y="95"/>
      <point x="320" y="125"/>
      <point x="354" y="179" type="curve" smooth="yes"/>
      <point x="368" y="201"/>
      <point x="400" y="209"/>
      <point x="423" y="194" type="curve" smooth="yes"/>
      <point x="445" y="180"/>
      <point x="453" y="148"/>
      <point x="438" y="125" type="curve" smooth="yes"/>
      <point x="384" y="39"/>
      <point x="301" y="-5"/>
      <point x="220" y="-5" type="curve" smooth="yes"/>
      <point x="125" y="-5"/>
      <point x="28" y="53"/>
      <point x="28" y="195" type="curve" smooth="yes"/>
      <point x="28" y="336"/>
      <point x="140" y="425"/>
      <point x="254" y="425" type="curve" smooth="yes"/>
      <point x="318" y="425"/>
      <point x="359" y="412"/>
      <point x="419" y="383" type="curve" smooth="yes"/>
      <point x="443" y="371"/>
      <point x="454" y="341"/>
      <point x="442" y="316" type="curve" smooth="yes"/>
      <point x="430" y="292"/>
      <point x="400" y="281"/>
    </contour>
    <contour>
      <point x="166" y="-98" type="curve" smooth="yes"/>
      <point x="285" y="-98"/>
      <point x="347" y="-57"/>
      <point x="347" y="49" type="curve" smooth="yes"/>
      <point x="347" y="375" type="line" smooth="yes"/>
      <point x="347" y="402"/>
      <point x="370" y="425"/>
      <point x="397" y="425" type="curve" smooth="yes"/>
      <point x="424" y="425"/>
      <point x="447" y="402"/>
      <point x="447" y="375" type="curve" smooth="yes"/>
      <point x="447" y="49" type="line" smooth="yes"/>
      <point x="447" y="-115"/>
      <point x="367" y="-198"/>
      <point x="166" y="-198" type="curve" smooth="yes"/>
      <point x="139" y="-198"/>
      <point x="116" y="-175"/>
      <point x="116" y="-148" type="curve" smooth="yes"/>
      <point x="116" y="-121"/>
      <point x="139" y="-98"/>
    </contour>
  </outline>
</glyph>
<glyph name="i" format="1">
  <advance width="217"/>
  <unicode hex="0069"/>
  <outline>
    <contour>
      <point x="109" y="633" type="curve" smooth="yes"/>
      <point x="141" y="633"/>
      <point x="176" y="608"/>
      <point x="176" y="557" type="curve" smooth="yes"/>
      <point x="176" y="506"/>
      <point x="143" y="483"/>
      <point x="109" y="483" type="curve" smooth="yes"/>
      <point x="72" y="483"/>
      <point x="40" y="510"/>
      <point x="40" y="557" type="curve"/>
      <point x="40" y="604"/>
      <point x="74" y="633"/>
    </contour>
    <contour>
      <point x="58" y="33" type="curve" smooth="yes"/>
      <point x="58" y="375" type="line" smooth="yes"/>
      <point x="58" y="402"/>
      <point x="81" y="425"/>
      <point x="108" y="425" type="curve" smooth="yes"/>
      <point x="135" y="425"/>
      <point x="158" y="402"/>
      <point x="158" y="375" type="curve" smooth="yes"/>
      <point x="158" y="33" type="line" smooth="yes"/>
      <point x="158" y="6"/>
      <point x="135" y="-17"/>
      <point x="108" y="-17" type="curve" smooth="yes"/>
      <point x="81" y="-17"/>
      <point x="58" y="6"/>
    </contour>
    <contour>
      <point x="109" y="533" type="curve" smooth="yes"/>
      <point x="120" y="533"/>
      <point x="140" y="536"/>
      <point x="140" y="557" type="curve" smooth="yes"/>
      <point x="140" y="578"/>
      <point x="122" y="583"/>
      <point x="109" y="583" type="curve" smooth="yes"/>
      <point x="97" y="583"/>
      <point x="76" y="582"/>
      <point x="76" y="557" type="curve"/>
      <point x="76" y="532"/>
      <point x="99" y="533"/>
    </contour>
  </outline>
</glyph>
<glyph name="j" format="1">
  <advance width="220"/>
  <unicode hex="006A"/>
  <outline>
    <contour>
      <point x="112" y="633" type="curve" smooth="yes"/>
      <point x="144" y="633"/>
      <point x="179" y="608"/>
      <point x="179" y="557" type="curve" smooth="yes"/>
      <point x="179" y="506"/>
      <point x="146" y="483"/>
      <point x="112" y="483" type="curve" smooth="yes"/>
      <point x="75" y="483"/>
      <point x="43" y="510"/>
      <point x="43" y="557" type="curve"/>
      <point x="43" y="604"/>
      <point x="77" y="633"/>
    </contour>
    <contour>
      <point x="-17" y="-78" type="curve" smooth="yes"/>
      <point x="35" y="-58"/>
      <point x="61" y="-19"/>
      <point x="61" y="52" type="curve" smooth="yes"/>
      <point x="61" y="375" type="line" smooth="yes"/>
      <point x="61" y="402"/>
      <point x="84" y="425"/>
      <point x="111" y="425" type="curve" smooth="yes"/>
      <point x="138" y="425"/>
      <point x="161" y="402"/>
      <point x="161" y="375" type="curve" smooth="yes"/>
      <point x="161" y="52" type="line" smooth="yes"/>
      <point x="161" y="-75"/>
      <point x="107" y="-138"/>
      <point x="19" y="-172" type="curve" smooth="yes"/>
      <point x="-6" y="-181"/>
      <point x="-36" y="-168"/>
      <point x="-46" y="-143" type="curve" smooth="yes"/>
      <point x="-55" y="-118"/>
      <point x="-42" y="-88"/>
    </contour>
    <contour>
      <point x="112" y="533" type="curve" smooth="yes"/>
      <point x="123" y="533"/>
      <point x="143" y="536"/>
      <point x="143" y="557" type="curve" smooth="yes"/>
      <point x="143" y="578"/>
      <point x="125" y="583"/>
      <point x="112" y="583" type="curve" smooth="yes"/>
      <point x="100" y="583"/>
      <point x="79" y="582"/>
      <point x="79" y="557" type="curve"/>
      <point x="79" y="532"/>
      <point x="102" y="533"/>
    </contour>
  </outline>
</glyph>
<glyph name="k" format="1">
  <advance width="483"/>
  <unicode hex="006B"/>
  <outline>
    <contour>
      <point x="65" y="33" type="curve" smooth="yes"/>
      <point x="65" y="544" type="line" smooth="yes"/>
      <point x="65" y="571"/>
      <point x="88" y="594"/>
      <point x="115" y="594" type="curve" smooth="yes"/>
      <point x="142" y="594"/>
      <point x="165" y="571"/>
      <point x="165" y="544" type="curve" smooth="yes"/>
      <point x="165" y="33" type="line" smooth="yes"/>
      <point x="165" y="6"/>
      <point x="142" y="-17"/>
      <point x="115" y="-17" type="curve" smooth="yes"/>
      <point x="88" y="-17"/>
      <point x="65" y="6"/>
    </contour>
    <contour>
      <point x="280" y="288" type="curve" smooth="yes"/>
      <point x="441" y="62" type="line" smooth="yes"/>
      <point x="456" y="40"/>
      <point x="451" y="8"/>
      <point x="429" y="-8" type="curve" smooth="yes"/>
      <point x="407" y="-23"/>
      <point x="375" y="-18"/>
      <point x="359" y="4" type="curve" smooth="yes"/>
      <point x="198" y="230" type="line" smooth="yes"/>
      <point x="183" y="252"/>
      <point x="188" y="284"/>
      <point x="210" y="300" type="curve" smooth="yes"/>
      <point x="232" y="315"/>
      <point x="264" y="310"/>
    </contour>
    <contour>
      <point x="418" y="336" type="curve" smooth="yes"/>
      <point x="148" y="124" type="line" smooth="yes"/>
      <point x="127" y="107"/>
      <point x="94" y="111"/>
      <point x="78" y="132" type="curve" smooth="yes"/>
      <point x="61" y="153"/>
      <point x="65" y="186"/>
      <point x="86" y="202" type="curve" smooth="yes"/>
      <point x="356" y="414" type="line" smooth="yes"/>
      <point x="377" y="431"/>
      <point x="410" y="427"/>
      <point x="426" y="406" type="curve" smooth="yes"/>
      <point x="443" y="385"/>
      <point x="439" y="352"/>
    </contour>
  </outline>
</glyph>
<glyph name="l" format="1">
  <advance width="242"/>
  <unicode hex="006C"/>
  <outline>
    <contour>
      <point x="71" y="33" type="curve" smooth="yes"/>
      <point x="71" y="544" type="line" smooth="yes"/>
      <point x="71" y="571"/>
      <point x="94" y="594"/>
      <point x="121" y="594" type="curve" smooth="yes"/>
      <point x="148" y="594"/>
      <point x="171" y="571"/>
      <point x="171" y="544" type="curve" smooth="yes"/>
      <point x="171" y="33" type="line" smooth="yes"/>
      <point x="171" y="6"/>
      <point x="148" y="-17"/>
      <point x="121" y="-17" type="curve" smooth="yes"/>
      <point x="94" y="-17"/>
      <point x="71" y="6"/>
    </contour>
  </outline>
</glyph>
<glyph name="m" format="1">
  <advance width="762"/>
  <unicode hex="006D"/>
  <outline>
    <contour>
      <point x="65" y="33" type="curve" smooth="yes"/>
      <point x="65" y="375" type="line" smooth="yes"/>
      <point x="65" y="402"/>
      <point x="88" y="425"/>
      <point x="115" y="425" type="curve" smooth="yes"/>
      <point x="142" y="425"/>
      <point x="165" y="402"/>
      <point x="165" y="375" type="curve" smooth="yes"/>
      <point x="165" y="33" type="line" smooth="yes"/>
      <point x="165" y="6"/>
      <point x="142" y="-17"/>
      <point x="115" y="-17" type="curve" smooth="yes"/>
      <point x="88" y="-17"/>
      <point x="65" y="6"/>
    </contour>
    <contour>
      <point x="337" y="33" type="curve" smooth="yes"/>
      <point x="337" y="243" type="line" smooth="yes"/>
      <point x="337" y="299"/>
      <point x="316" y="325"/>
      <point x="278" y="325" type="curve" smooth="yes"/>
      <point x="233" y="325"/>
      <point x="188" y="290"/>
      <point x="154" y="253" type="curve" smooth="yes"/>
      <point x="136" y="233"/>
      <point x="104" y="231"/>
      <point x="84" y="249" type="curve" smooth="yes"/>
      <point x="64" y="267"/>
      <point x="62" y="299"/>
      <point x="80" y="319" type="curve" smooth="yes"/>
      <point x="134" y="380"/>
      <point x="209" y="425"/>
      <point x="278" y="425" type="curve" smooth="yes"/>
      <point x="362" y="425"/>
      <point x="437" y="393"/>
      <point x="437" y="243" type="curve" smooth="yes"/>
      <point x="437" y="33" type="line" smooth="yes"/>
      <point x="437" y="6"/>
      <point x="414" y="-17"/>
      <point x="387" y="-17" type="curve" smooth="yes"/>
      <point x="360" y="-17"/>
      <point x="337" y="6"/>
    </contour>
    <contour>
      <point x="607" y="33" type="curve" smooth="yes"/>
      <point x="607" y="243" type="line" smooth="yes"/>
      <point x="607" y="299"/>
      <point x="586" y="325"/>
      <point x="548" y="325" type="curve" smooth="yes"/>
      <point x="503" y="325"/>
      <point x="459" y="290"/>
      <point x="424" y="252" type="curve" smooth="yes"/>
      <point x="406" y="232"/>
      <point x="373" y="231"/>
      <point x="353" y="249" type="curve" smooth="yes"/>
      <point x="333" y="267"/>
      <point x="332" y="300"/>
      <point x="350" y="320" type="curve" smooth="yes"/>
      <point x="405" y="380"/>
      <point x="479" y="425"/>
      <point x="548" y="425" type="curve" smooth="yes"/>
      <point x="632" y="425"/>
      <point x="707" y="393"/>
      <point x="707" y="243" type="curve" smooth="yes"/>
      <point x="707" y="33" type="line" smooth="yes"/>
      <point x="707" y="6"/>
      <point x="684" y="-17"/>
      <point x="657" y="-17" type="curve" smooth="yes"/>
      <point x="630" y="-17"/>
      <point x="607" y="6"/>
    </contour>
  </outline>
</glyph>
<glyph name="n" format="1">
  <advance width="507"/>
  <unicode hex="006E"/>
  <outline>
    <contour>
      <point x="65" y="33" type="curve" smooth="yes"/>
      <point x="65" y="375" type="line" smooth="yes"/>
      <point x="65" y="402"/>
      <point x="88" y="425"/>
      <point x="115" y="425" type="curve" smooth="yes"/>
      <point x="142" y="425"/>
      <point x="165" y="402"/>
      <point x="165" y="375" type="curve" smooth="yes"/>
      <point x="165" y="33" type="line" smooth="yes"/>
      <point x="165" y="6"/>
      <point x="142" y="-17"/>
      <point x="115" y="-17" type="curve" smooth="yes"/>
      <point x="88" y="-17"/>
      <point x="65" y="6"/>
    </contour>
    <contour>
      <point x="352" y="33" type="curve" smooth="yes"/>
      <point x="352" y="233" type="line" smooth="yes"/>
      <point x="352" y="291"/>
      <point x="331" y="325"/>
      <point x="290" y="325" type="curve" smooth="yes"/>
      <point x="239" y="325"/>
      <point x="192" y="291"/>
      <point x="154" y="253" type="curve" smooth="yes"/>
      <point x="135" y="234"/>
      <point x="103" y="234"/>
      <point x="84" y="253" type="curve" smooth="yes"/>
      <point x="65" y="272"/>
      <point x="65" y="304"/>
      <point x="84" y="323" type="curve" smooth="yes"/>
      <point x="142" y="381"/>
      <point x="215" y="425"/>
      <point x="290" y="425" type="curve" smooth="yes"/>
      <point x="377" y="425"/>
      <point x="452" y="385"/>
      <point x="452" y="233" type="curve" smooth="yes"/>
      <point x="452" y="33" type="line" smooth="yes"/>
      <point x="452" y="6"/>
      <point x="429" y="-17"/>
      <point x="402" y="-17" type="curve" smooth="yes"/>
      <point x="375" y="-17"/>
      <point x="352" y="6"/>
    </contour>
  </outline>
</glyph>
<glyph name="o" format="1">
  <advance width="504"/>
  <unicode hex="006F"/>
  <outline>
    <contour>
      <point x="252" y="429" type="curve" smooth="yes"/>
      <point x="389" y="429"/>
      <point x="476" y="326"/>
      <point x="476" y="199" type="curve" smooth="yes"/>
      <point x="476" y="75"/>
      <point x="389" y="-21"/>
      <point x="252" y="-21" type="curve" smooth="yes"/>
      <point x="115" y="-21"/>
      <point x="28" y="76"/>
      <point x="28" y="201" type="curve" smooth="yes"/>
      <point x="28" y="326"/>
      <point x="114" y="429"/>
    </contour>
    <contour>
      <point x="252" y="329" type="curve" smooth="yes"/>
      <point x="174" y="329"/>
      <point x="128" y="270"/>
      <point x="128" y="201" type="curve"/>
      <point x="128" y="132"/>
      <point x="177" y="79"/>
      <point x="252" y="79" type="curve" smooth="yes"/>
      <point x="327" y="79"/>
      <point x="376" y="131"/>
      <point x="376" y="199" type="curve" smooth="yes"/>
      <point x="376" y="270"/>
      <point x="329" y="329"/>
    </contour>
  </outline>
</glyph>
<glyph name="q" format="1">
  <advance width="513"/>
  <unicode hex="0071"/>
  <outline>
    <contour>
      <point x="448" y="375" type="curve" smooth="yes"/>
      <point x="448" y="-158" type="line" smooth="yes"/>
      <point x="448" y="-185"/>
      <point x="425" y="-208"/>
      <point x="398" y="-208" type="curve" smooth="yes"/>
      <point x="371" y="-208"/>
      <point x="348" y="-185"/>
      <point x="348" y="-158" type="curve" smooth="yes"/>
      <point x="348" y="375" type="line" smooth="yes"/>
      <point x="348" y="402"/>
      <point x="371" y="425"/>
      <point x="398" y="425" type="curve" smooth="yes"/>
      <point x="425" y="425"/>
      <point x="448" y="402"/>
    </contour>
    <contour>
      <point x="371" y="292" type="curve" smooth="yes"/>
      <point x="338" y="313"/>
      <point x="301" y="325"/>
      <point x="254" y="325" type="curve" smooth="yes"/>
      <point x="185" y="325"/>
      <point x="127" y="272"/>
      <point x="127" y="189" type="curve"/>
      <point x="127" y="124"/>
      <point x="173" y="83"/>
      <point x="225" y="83" type="curve" smooth="yes"/>
      <point x="274" y="83"/>
      <point x="321" y="112"/>
      <point x="354" y="167" type="curve" smooth="yes"/>
      <point x="369" y="190"/>
      <point x="400" y="198"/>
      <point x="423" y="184" type="curve" smooth="yes"/>
      <point x="446" y="169"/>
      <point x="454" y="138"/>
      <point x="440" y="115" type="curve" smooth="yes"/>
      <point x="383" y="24"/>
      <point x="304" y="-17"/>
      <point x="225" y="-17" type="curve" smooth="yes"/>
      <point x="125" y="-17"/>
      <point x="27" y="58"/>
      <point x="27" y="189" type="curve" smooth="yes"/>
      <point x="27" y="338"/>
      <point x="133" y="425"/>
      <point x="254" y="425" type="curve" smooth="yes"/>
      <point x="323" y="425"/>
      <point x="376" y="407"/>
      <point x="425" y="376" type="curve" smooth="yes"/>
      <point x="448" y="362"/>
      <point x="455" y="330"/>
      <point x="440" y="307" type="curve" smooth="yes"/>
      <point x="426" y="284"/>
      <point x="394" y="277"/>
    </contour>
  </outline>
</glyph>
<glyph name="r" format="1">
  <advance width="358"/>
  <unicode hex="0072"/>
  <outline>
    <contour>
      <point x="65" y="33" type="curve" smooth="yes"/>
      <point x="65" y="375" type="line" smooth="yes"/>
      <point x="65" y="402"/>
      <point x="88" y="425"/>
      <point x="115" y="425" type="curve" smooth="yes"/>
      <point x="142" y="425"/>
      <point x="165" y="402"/>
      <point x="165" y="375" type="curve" smooth="yes"/>
      <point x="165" y="33" type="line" smooth="yes"/>
      <point x="165" y="6"/>
      <point x="142" y="-17"/>
      <point x="115" y="-17" type="curve" smooth="yes"/>
      <point x="88" y="-17"/>
      <point x="65" y="6"/>
    </contour>
    <contour>
      <point x="74" y="271" type="curve" smooth="yes"/>
      <point x="130" y="358"/>
      <point x="197" y="412"/>
      <point x="301" y="425" type="curve" smooth="yes"/>
      <point x="328" y="428"/>
      <point x="353" y="408"/>
      <point x="357" y="381" type="curve" smooth="yes"/>
      <point x="360" y="354"/>
      <point x="340" y="329"/>
      <point x="313" y="325" type="curve" smooth="yes"/>
      <point x="241" y="316"/>
      <point x="196" y="276"/>
      <point x="158" y="217" type="curve" smooth="yes"/>
      <point x="143" y="194"/>
      <point x="112" y="187"/>
      <point x="89" y="202" type="curve" smooth="yes"/>
      <point x="66" y="217"/>
      <point x="59" y="248"/>
    </contour>
  </outline>
</glyph>
<glyph name="s" format="1">
  <advance width="462"/>
  <unicode hex="0073"/>
  <outline>
    <contour>
      <point x="330" y="312" type="curve" smooth="yes"/>
      <point x="304" y="319"/>
      <point x="271" y="325"/>
      <point x="234" y="325" type="curve" smooth="yes"/>
      <point x="198" y="325"/>
      <point x="156" y="318"/>
      <point x="156" y="293" type="curve" smooth="yes"/>
      <point x="156" y="270"/>
      <point x="198" y="267"/>
      <point x="231" y="264" type="curve" smooth="yes"/>
      <point x="271" y="260" type="line" smooth="yes"/>
      <point x="392" y="247"/>
      <point x="426" y="181"/>
      <point x="426" y="119" type="curve" smooth="yes"/>
      <point x="426" y="56"/>
      <point x="394" y="-21"/>
      <point x="240" y="-21" type="curve" smooth="yes"/>
      <point x="186" y="-21"/>
      <point x="130" y="-11"/>
      <point x="80" y="11" type="curve" smooth="yes"/>
      <point x="55" y="22"/>
      <point x="43" y="52"/>
      <point x="54" y="77" type="curve" smooth="yes"/>
      <point x="65" y="102"/>
      <point x="95" y="114"/>
      <point x="120" y="103" type="curve" smooth="yes"/>
      <point x="158" y="87"/>
      <point x="200" y="79"/>
      <point x="240" y="79" type="curve" smooth="yes"/>
      <point x="284" y="79"/>
      <point x="326" y="90"/>
      <point x="326" y="119" type="curve" smooth="yes"/>
      <point x="326" y="145"/>
      <point x="296" y="157"/>
      <point x="261" y="160" type="curve" smooth="yes"/>
      <point x="221" y="164" type="line" smooth="yes"/>
      <point x="74" y="179"/>
      <point x="56" y="242"/>
      <point x="56" y="293" type="curve"/>
      <point x="56" y="350"/>
      <point x="84" y="425"/>
      <point x="234" y="425" type="curve" smooth="yes"/>
      <point x="281" y="425"/>
      <point x="324" y="417"/>
      <point x="356" y="408" type="curve" smooth="yes"/>
      <point x="382" y="401"/>
      <point x="398" y="373"/>
      <point x="391" y="347" type="curve" smooth="yes"/>
      <point x="384" y="321"/>
      <point x="356" y="305"/>
    </contour>
  </outline>
</glyph>
<glyph name="t" format="1">
  <advance width="364"/>
  <unicode hex="0074"/>
  <outline>
    <contour>
      <point x="189" y="501" type="curve" smooth="yes"/>
      <point x="189" y="150" type="line" smooth="yes"/>
      <point x="189" y="101"/>
      <point x="227" y="84"/>
      <point x="285" y="83" type="curve" smooth="yes"/>
      <point x="312" y="82"/>
      <point x="335" y="59"/>
      <point x="334" y="32" type="curve" smooth="yes"/>
      <point x="333" y="5"/>
      <point x="310" y="-18"/>
      <point x="283" y="-17" type="curve" smooth="yes"/>
      <point x="139" y="-14"/>
      <point x="89" y="51"/>
      <point x="89" y="150" type="curve"/>
      <point x="89" y="501" type="line" smooth="yes"/>
      <point x="89" y="528"/>
      <point x="112" y="551"/>
      <point x="139" y="551" type="curve" smooth="yes"/>
      <point x="166" y="551"/>
      <point x="189" y="528"/>
    </contour>
    <contour>
      <point x="51" y="425" type="curve" smooth="yes"/>
      <point x="297" y="425" type="line" smooth="yes"/>
      <point x="324" y="425"/>
      <point x="347" y="402"/>
      <point x="347" y="375" type="curve" smooth="yes"/>
      <point x="347" y="348"/>
      <point x="324" y="325"/>
      <point x="297" y="325" type="curve" smooth="yes"/>
      <point x="51" y="325" type="line" smooth="yes"/>
      <point x="24" y="325"/>
      <point x="1" y="348"/>
      <point x="1" y="375" type="curve" smooth="yes"/>
      <point x="1" y="402"/>
      <point x="24" y="425"/>
    </contour>
  </outline>
</glyph>
<glyph name="u" format="1">
  <advance width="507"/>
  <unicode hex="0075"/>
  <outline>
    <contour>
      <point x="442" y="375" type="curve" smooth="yes"/>
      <point x="442" y="33" type="line" smooth="yes"/>
      <point x="442" y="6"/>
      <point x="419" y="-17"/>
      <point x="392" y="-17" type="curve" smooth="yes"/>
      <point x="365" y="-17"/>
      <point x="342" y="6"/>
      <point x="342" y="33" type="curve" smooth="yes"/>
      <point x="342" y="375" type="line" smooth="yes"/>
      <point x="342" y="402"/>
      <point x="365" y="425"/>
      <point x="392" y="425" type="curve" smooth="yes"/>
      <point x="419" y="425"/>
      <point x="442" y="402"/>
    </contour>
    <contour>
      <point x="155" y="375" type="curve" smooth="yes"/>
      <point x="155" y="175" type="line" smooth="yes"/>
      <point x="155" y="117"/>
      <point x="176" y="83"/>
      <point x="217" y="83" type="curve" smooth="yes"/>
      <point x="266" y="83"/>
      <point x="315" y="125"/>
      <point x="348" y="169" type="curve" smooth="yes"/>
      <point x="363" y="191"/>
      <point x="395" y="196"/>
      <point x="417" y="180" type="curve" smooth="yes"/>
      <point x="439" y="165"/>
      <point x="444" y="133"/>
      <point x="428" y="111" type="curve" smooth="yes"/>
      <point x="377" y="39"/>
      <point x="294" y="-17"/>
      <point x="217" y="-17" type="curve" smooth="yes"/>
      <point x="130" y="-17"/>
      <point x="55" y="23"/>
      <point x="55" y="175" type="curve"/>
      <point x="55" y="375" type="line" smooth="yes"/>
      <point x="55" y="402"/>
      <point x="78" y="425"/>
      <point x="105" y="425" type="curve" smooth="yes"/>
      <point x="132" y="425"/>
      <point x="155" y="402"/>
    </contour>
  </outline>
</glyph>
<glyph name="v" format="1">
  <advance width="461"/>
  <unicode hex="0076"/>
  <outline>
    <contour>
      <point x="115" y="393" type="curve" smooth="yes"/>
      <point x="172" y="244"/>
      <point x="225" y="139"/>
      <point x="277" y="55" type="curve"/>
      <point x="234" y="79" type="line"/>
      <point x="237" y="79" type="line"/>
      <point x="194" y="55" type="line"/>
      <point x="245" y="139"/>
      <point x="308" y="285"/>
      <point x="347" y="392" type="curve" smooth="yes"/>
      <point x="356" y="417"/>
      <point x="386" y="431"/>
      <point x="411" y="422" type="curve" smooth="yes"/>
      <point x="436" y="413"/>
      <point x="450" y="383"/>
      <point x="441" y="358" type="curve" smooth="yes"/>
      <point x="400" y="245"/>
      <point x="333" y="91"/>
      <point x="280" y="3" type="curve" smooth="yes"/>
      <point x="272" y="-10"/>
      <point x="253" y="-21"/>
      <point x="237" y="-21" type="curve" smooth="yes"/>
      <point x="234" y="-21" type="line" smooth="yes"/>
      <point x="219" y="-21"/>
      <point x="200" y="-10"/>
      <point x="191" y="3" type="curve" smooth="yes"/>
      <point x="137" y="91"/>
      <point x="82" y="200"/>
      <point x="21" y="357" type="curve" smooth="yes"/>
      <point x="12" y="382"/>
      <point x="25" y="412"/>
      <point x="50" y="422" type="curve" smooth="yes"/>
      <point x="75" y="431"/>
      <point x="105" y="418"/>
    </contour>
  </outline>
</glyph>
<glyph name="w" format="1">
  <advance width="709"/>
  <unicode hex="0077"/>
  <outline>
    <contour>
      <point x="126" y="387" type="curve" smooth="yes"/>
      <point x="162" y="258"/>
      <point x="209" y="135"/>
      <point x="249" y="52" type="curve"/>
      <point x="204" y="80" type="line"/>
      <point x="206" y="80" type="line"/>
      <point x="161" y="52" type="line"/>
      <point x="203" y="136"/>
      <point x="270" y="272"/>
      <point x="303" y="379" type="curve" smooth="yes"/>
      <point x="311" y="405"/>
      <point x="340" y="420"/>
      <point x="366" y="412" type="curve" smooth="yes"/>
      <point x="392" y="404"/>
      <point x="407" y="375"/>
      <point x="399" y="349" type="curve" smooth="yes"/>
      <point x="364" y="238"/>
      <point x="295" y="96"/>
      <point x="251" y="8" type="curve" smooth="yes"/>
      <point x="243" y="-8"/>
      <point x="223" y="-20"/>
      <point x="206" y="-20" type="curve" smooth="yes"/>
      <point x="204" y="-20" type="line" smooth="yes"/>
      <point x="187" y="-20"/>
      <point x="166" y="-7"/>
      <point x="159" y="8" type="curve" smooth="yes"/>
      <point x="117" y="97"/>
      <point x="68" y="224"/>
      <point x="30" y="361" type="curve" smooth="yes"/>
      <point x="23" y="387"/>
      <point x="39" y="415"/>
      <point x="65" y="422" type="curve" smooth="yes"/>
      <point x="91" y="429"/>
      <point x="119" y="413"/>
    </contour>
    <contour>
      <point x="405" y="381" type="curve" smooth="yes"/>
      <point x="451" y="250"/>
      <point x="503" y="137"/>
      <point x="548" y="53" type="curve"/>
      <point x="504" y="79" type="line"/>
      <point x="506" y="79" type="line"/>
      <point x="460" y="50" type="line"/>
      <point x="499" y="134"/>
      <point x="551" y="269"/>
      <point x="584" y="386" type="curve" smooth="yes"/>
      <point x="591" y="412"/>
      <point x="619" y="428"/>
      <point x="645" y="421" type="curve" smooth="yes"/>
      <point x="671" y="414"/>
      <point x="687" y="386"/>
      <point x="680" y="360" type="curve" smooth="yes"/>
      <point x="647" y="237"/>
      <point x="591" y="96"/>
      <point x="552" y="8" type="curve" smooth="yes"/>
      <point x="544" y="-8"/>
      <point x="524" y="-21"/>
      <point x="506" y="-21" type="curve" smooth="yes"/>
      <point x="504" y="-21" type="line" smooth="yes"/>
      <point x="487" y="-21"/>
      <point x="468" y="-9"/>
      <point x="460" y="5" type="curve" smooth="yes"/>
      <point x="413" y="93"/>
      <point x="359" y="212"/>
      <point x="311" y="347" type="curve" smooth="yes"/>
      <point x="302" y="373"/>
      <point x="316" y="402"/>
      <point x="341" y="411" type="curve" smooth="yes"/>
      <point x="367" y="420"/>
      <point x="396" y="406"/>
    </contour>
  </outline>
</glyph>
<glyph name="x" format="1">
  <advance width="457"/>
  <unicode hex="0078"/>
  <outline>
    <contour>
      <point x="30" y="66" type="curve" smooth="yes"/>
      <point x="95" y="140"/>
      <point x="252" y="309"/>
      <point x="330" y="406" type="curve" smooth="yes"/>
      <point x="347" y="427"/>
      <point x="379" y="431"/>
      <point x="400" y="414" type="curve" smooth="yes"/>
      <point x="421" y="397"/>
      <point x="425" y="365"/>
      <point x="408" y="344" type="curve" smooth="yes"/>
      <point x="330" y="245"/>
      <point x="171" y="74"/>
      <point x="106" y="0" type="curve" smooth="yes"/>
      <point x="88" y="-20"/>
      <point x="55" y="-22"/>
      <point x="35" y="-5" type="curve" smooth="yes"/>
      <point x="15" y="13"/>
      <point x="13" y="46"/>
    </contour>
    <contour>
      <point x="119" y="407" type="curve" smooth="yes"/>
      <point x="197" y="315"/>
      <point x="337" y="169"/>
      <point x="427" y="66" type="curve" smooth="yes"/>
      <point x="444" y="46"/>
      <point x="442" y="13"/>
      <point x="422" y="-5" type="curve" smooth="yes"/>
      <point x="402" y="-22"/>
      <point x="369" y="-20"/>
      <point x="351" y="0" type="curve" smooth="yes"/>
      <point x="261" y="103"/>
      <point x="121" y="251"/>
      <point x="43" y="343" type="curve" smooth="yes"/>
      <point x="25" y="363"/>
      <point x="28" y="396"/>
      <point x="49" y="413" type="curve" smooth="yes"/>
      <point x="69" y="431"/>
      <point x="102" y="428"/>
    </contour>
  </outline>
</glyph>
<glyph name="y" format="1">
  <advance width="460"/>
  <unicode hex="0079"/>
  <outline>
    <contour>
      <point x="43" y="-98" type="curve" smooth="yes"/>
      <point x="100" y="-65"/>
      <point x="151" y="-26"/>
      <point x="201" y="59" type="curve" smooth="yes"/>
      <point x="252" y="146"/>
      <point x="310" y="280"/>
      <point x="343" y="389" type="curve" smooth="yes"/>
      <point x="351" y="415"/>
      <point x="380" y="431"/>
      <point x="405" y="423" type="curve" smooth="yes"/>
      <point x="431" y="415"/>
      <point x="447" y="386"/>
      <point x="439" y="361" type="curve" smooth="yes"/>
      <point x="404" y="244"/>
      <point x="342" y="102"/>
      <point x="287" y="9" type="curve" smooth="yes"/>
      <point x="225" y="-96"/>
      <point x="162" y="-145"/>
      <point x="93" y="-184" type="curve" smooth="yes"/>
      <point x="69" y="-198"/>
      <point x="38" y="-189"/>
      <point x="25" y="-166" type="curve" smooth="yes"/>
      <point x="11" y="-142"/>
      <point x="20" y="-111"/>
    </contour>
    <contour>
      <point x="117" y="393" type="curve" smooth="yes"/>
      <point x="170" y="244"/>
      <point x="234" y="138"/>
      <point x="283" y="61" type="curve" smooth="yes"/>
      <point x="298" y="38"/>
      <point x="291" y="7"/>
      <point x="268" y="-8" type="curve" smooth="yes"/>
      <point x="245" y="-23"/>
      <point x="214" y="-16"/>
      <point x="199" y="7" type="curve" smooth="yes"/>
      <point x="146" y="88"/>
      <point x="78" y="202"/>
      <point x="23" y="359" type="curve" smooth="yes"/>
      <point x="14" y="385"/>
      <point x="28" y="414"/>
      <point x="53" y="423" type="curve" smooth="yes"/>
      <point x="79" y="432"/>
      <point x="108" y="418"/>
    </contour>
  </outline>
</glyph>
<glyph name="z" format="1">
  <advance width="454"/>
  <unicode hex="007A"/>
  <outline>
    <contour>
      <point x="360" y="325" type="curve" smooth="yes"/>
      <point x="91" y="325" type="line" smooth="yes"/>
      <point x="64" y="325"/>
      <point x="41" y="348"/>
      <point x="41" y="375" type="curve" smooth="yes"/>
      <point x="41" y="402"/>
      <point x="64" y="425"/>
      <point x="91" y="425" type="curve" smooth="yes"/>
      <point x="360" y="425" type="line" smooth="yes"/>
      <point x="387" y="425"/>
      <point x="410" y="402"/>
      <point x="410" y="375" type="curve" smooth="yes"/>
      <point x="410" y="348"/>
      <point x="387" y="325"/>
    </contour>
    <contour>
      <point x="76" y="83" type="curve" smooth="yes"/>
      <point x="377" y="83" type="line" smooth="yes"/>
      <point x="404" y="83"/>
      <point x="427" y="60"/>
      <point x="427" y="33" type="curve" smooth="yes"/>
      <point x="427" y="6"/>
      <point x="404" y="-17"/>
      <point x="377" y="-17" type="curve" smooth="yes"/>
      <point x="76" y="-17" type="line" smooth="yes"/>
      <point x="49" y="-17"/>
      <point x="26" y="6"/>
      <point x="26" y="33" type="curve" smooth="yes"/>
      <point x="26" y="60"/>
      <point x="49" y="83"/>
    </contour>
    <contour>
      <point x="404" y="343" type="curve" smooth="yes"/>
      <point x="120" y="9" type="line" smooth="yes"/>
      <point x="103" y="-12"/>
      <point x="70" y="-15"/>
      <point x="50" y="3" type="curve" smooth="yes"/>
      <point x="29" y="20"/>
      <point x="26" y="53"/>
      <point x="44" y="73" type="curve" smooth="yes"/>
      <point x="328" y="407" type="line" smooth="yes"/>
      <point x="345" y="428"/>
      <point x="378" y="431"/>
      <point x="398" y="413" type="curve" smooth="yes"/>
      <point x="419" y="396"/>
      <point x="422" y="363"/>
    </contour>
  </outline>
</glyph>
<glyph name="braceleft" format="1">
  <advance width="325"/>
  <unicode hex="007B"/>
  <outline>
    <contour>
      <point x="278" y="563" type="curve" smooth="yes"/>
      <point x="258" y="563" type="line" smooth="yes"/>
      <point x="205" y="563"/>
      <point x="150" y="544"/>
      <point x="150" y="505" type="curve" smooth="yes"/>
      <point x="150" y="440"/>
      <point x="217" y="405"/>
      <point x="217" y="347" type="curve" smooth="yes"/>
      <point x="217" y="295"/>
      <point x="188" y="243"/>
      <point x="72" y="227" type="curve"/>
      <point x="115" y="276" type="line"/>
      <point x="115" y="270" type="line"/>
      <point x="72" y="319" type="line"/>
      <point x="188" y="303"/>
      <point x="217" y="251"/>
      <point x="217" y="199" type="curve" smooth="yes"/>
      <point x="217" y="141"/>
      <point x="150" y="106"/>
      <point x="150" y="41" type="curve" smooth="yes"/>
      <point x="150" y="2"/>
      <point x="205" y="-17"/>
      <point x="258" y="-17" type="curve" smooth="yes"/>
      <point x="278" y="-17" type="line" smooth="yes"/>
      <point x="305" y="-17"/>
      <point x="328" y="-40"/>
      <point x="328" y="-67" type="curve" smooth="yes"/>
      <point x="328" y="-94"/>
      <point x="305" y="-117"/>
      <point x="278" y="-117" type="curve" smooth="yes"/>
      <point x="258" y="-117" type="line" smooth="yes"/>
      <point x="115" y="-117"/>
      <point x="50" y="-34"/>
      <point x="50" y="41" type="curve"/>
      <point x="50" y="106"/>
      <point x="117" y="141"/>
      <point x="117" y="199" type="curve" smooth="yes"/>
      <point x="117" y="219"/>
      <point x="78" y="217"/>
      <point x="58" y="221" type="curve" smooth="yes"/>
      <point x="34" y="224"/>
      <point x="15" y="246"/>
      <point x="15" y="270" type="curve"/>
      <point x="15" y="276" type="line"/>
      <point x="15" y="300"/>
      <point x="34" y="322"/>
      <point x="58" y="325" type="curve" smooth="yes"/>
      <point x="78" y="329"/>
      <point x="117" y="327"/>
      <point x="117" y="347" type="curve" smooth="yes"/>
      <point x="117" y="405"/>
      <point x="50" y="440"/>
      <point x="50" y="505" type="curve" smooth="yes"/>
      <point x="50" y="580"/>
      <point x="115" y="663"/>
      <point x="258" y="663" type="curve" smooth="yes"/>
      <point x="278" y="663" type="line" smooth="yes"/>
      <point x="305" y="663"/>
      <point x="328" y="640"/>
      <point x="328" y="613" type="curve" smooth="yes"/>
      <point x="328" y="586"/>
      <point x="305" y="563"/>
    </contour>
  </outline>
</glyph>
<glyph name="bar" format="1">
  <advance width="310"/>
  <unicode hex="007C"/>
  <outline>
    <contour>
      <point x="205" y="545" type="curve" smooth="yes"/>
      <point x="205" y="-68" type="line" smooth="yes"/>
      <point x="205" y="-95"/>
      <point x="182" y="-118"/>
      <point x="155" y="-118" type="curve" smooth="yes"/>
      <point x="128" y="-118"/>
      <point x="105" y="-95"/>
      <point x="105" y="-68" type="curve" smooth="yes"/>
      <point x="105" y="545" type="line" smooth="yes"/>
      <point x="105" y="572"/>
      <point x="128" y="595"/>
      <point x="155" y="595" type="curve" smooth="yes"/>
      <point x="182" y="595"/>
      <point x="205" y="572"/>
    </contour>
  </outline>
</glyph>
<glyph name="asciitilde" format="1">
  <advance width="565"/>
  <unicode hex="007E"/>
  <outline>
    <contour>
      <point x="62" y="239" type="curve" smooth="yes"/>
      <point x="109" y="334"/>
      <point x="154" y="365"/>
      <point x="206" y="365" type="curve" smooth="yes"/>
      <point x="252" y="365"/>
      <point x="284" y="339"/>
      <point x="322" y="296" type="curve" smooth="yes"/>
      <point x="338" y="278"/>
      <point x="349" y="260"/>
      <point x="368" y="260" type="curve" smooth="yes"/>
      <point x="398" y="260"/>
      <point x="408" y="298"/>
      <point x="429" y="341" type="curve" smooth="yes"/>
      <point x="441" y="365"/>
      <point x="472" y="376"/>
      <point x="496" y="364" type="curve" smooth="yes"/>
      <point x="520" y="352"/>
      <point x="531" y="321"/>
      <point x="519" y="297" type="curve" smooth="yes"/>
      <point x="468" y="192"/>
      <point x="426" y="160"/>
      <point x="368" y="160" type="curve" smooth="yes"/>
      <point x="325" y="160"/>
      <point x="290" y="182"/>
      <point x="248" y="230" type="curve" smooth="yes"/>
      <point x="234" y="245"/>
      <point x="226" y="265"/>
      <point x="206" y="265" type="curve" smooth="yes"/>
      <point x="180" y="265"/>
      <point x="169" y="230"/>
      <point x="152" y="195" type="curve" smooth="yes"/>
      <point x="140" y="171"/>
      <point x="109" y="160"/>
      <point x="85" y="172" type="curve" smooth="yes"/>
      <point x="61" y="184"/>
      <point x="50" y="215"/>
    </contour>
  </outline>
</glyph>
<glyph name="cent" format="1">
  <advance width="443"/>
  <unicode hex="00A2"/>
  <outline>
    <contour>
      <point x="294" y="517" type="curve" smooth="yes"/>
      <point x="294" y="33" type="line" smooth="yes"/>
      <point x="294" y="6"/>
      <point x="271" y="-17"/>
      <point x="244" y="-17" type="curve" smooth="yes"/>
      <point x="217" y="-17"/>
      <point x="194" y="6"/>
      <point x="194" y="33" type="curve" smooth="yes"/>
      <point x="194" y="517" type="line" smooth="yes"/>
      <point x="194" y="544"/>
      <point x="217" y="567"/>
      <point x="244" y="567" type="curve" smooth="yes"/>
      <point x="271" y="567"/>
      <point x="294" y="544"/>
    </contour>
    <contour>
      <point x="340" y="374" type="curve" smooth="yes"/>
      <point x="317" y="381"/>
      <point x="289" y="386"/>
      <point x="265" y="386" type="curve" smooth="yes"/>
      <point x="182" y="386"/>
      <point x="129" y="337"/>
      <point x="129" y="265" type="curve" smooth="yes"/>
      <point x="129" y="202"/>
      <point x="183" y="160"/>
      <point x="264" y="160" type="curve" smooth="yes"/>
      <point x="298" y="160"/>
      <point x="326" y="167"/>
      <point x="349" y="175" type="curve" smooth="yes"/>
      <point x="375" y="184"/>
      <point x="404" y="170"/>
      <point x="413" y="145" type="curve" smooth="yes"/>
      <point x="422" y="119"/>
      <point x="408" y="90"/>
      <point x="383" y="81" type="curve" smooth="yes"/>
      <point x="350" y="69"/>
      <point x="312" y="60"/>
      <point x="264" y="60" type="curve" smooth="yes"/>
      <point x="107" y="60"/>
      <point x="29" y="154"/>
      <point x="29" y="265" type="curve" smooth="yes"/>
      <point x="29" y="391"/>
      <point x="112" y="486"/>
      <point x="265" y="486" type="curve" smooth="yes"/>
      <point x="299" y="486"/>
      <point x="337" y="479"/>
      <point x="368" y="470" type="curve" smooth="yes"/>
      <point x="394" y="462"/>
      <point x="410" y="434"/>
      <point x="402" y="408" type="curve" smooth="yes"/>
      <point x="394" y="382"/>
      <point x="366" y="366"/>
    </contour>
  </outline>
</glyph>
<glyph name="sterling" format="1">
  <advance width="466"/>
  <unicode hex="00A3"/>
  <outline>
    <contour>
      <point x="37" y="79" type="curve" smooth="yes"/>
      <point x="114" y="149" type="line" smooth="yes"/>
      <point x="131" y="164"/>
      <point x="148" y="182"/>
      <point x="148" y="200" type="curve" smooth="yes"/>
      <point x="148" y="217"/>
      <point x="136" y="237"/>
      <point x="121" y="254" type="curve" smooth="yes"/>
      <point x="73" y="311"/>
      <point x="47" y="355"/>
      <point x="47" y="414" type="curve" smooth="yes"/>
      <point x="47" y="494"/>
      <point x="105" y="577"/>
      <point x="219" y="577" type="curve" smooth="yes"/>
      <point x="275" y="577"/>
      <point x="326" y="560"/>
      <point x="369" y="533" type="curve" smooth="yes"/>
      <point x="391" y="519"/>
      <point x="399" y="487"/>
      <point x="384" y="464" type="curve" smooth="yes"/>
      <point x="370" y="442"/>
      <point x="338" y="434"/>
      <point x="315" y="449" type="curve" smooth="yes"/>
      <point x="288" y="466"/>
      <point x="255" y="477"/>
      <point x="219" y="477" type="curve" smooth="yes"/>
      <point x="175" y="477"/>
      <point x="147" y="448"/>
      <point x="147" y="414" type="curve" smooth="yes"/>
      <point x="147" y="377"/>
      <point x="169" y="353"/>
      <point x="197" y="320" type="curve" smooth="yes"/>
      <point x="230" y="281"/>
      <point x="248" y="235"/>
      <point x="248" y="200" type="curve" smooth="yes"/>
      <point x="248" y="160"/>
      <point x="223" y="112"/>
      <point x="182" y="75" type="curve" smooth="yes"/>
      <point x="105" y="5" type="line" smooth="yes"/>
      <point x="85" y="-13"/>
      <point x="52" y="-12"/>
      <point x="34" y="8" type="curve" smooth="yes"/>
      <point x="16" y="28"/>
      <point x="17" y="61"/>
    </contour>
    <contour>
      <point x="375" y="-17" type="curve" smooth="yes"/>
      <point x="61" y="-17" type="line" smooth="yes"/>
      <point x="34" y="-17"/>
      <point x="11" y="6"/>
      <point x="11" y="33" type="curve" smooth="yes"/>
      <point x="11" y="60"/>
      <point x="34" y="83"/>
      <point x="61" y="83" type="curve" smooth="yes"/>
      <point x="375" y="83" type="line" smooth="yes"/>
      <point x="402" y="83"/>
      <point x="425" y="60"/>
      <point x="425" y="33" type="curve" smooth="yes"/>
      <point x="425" y="6"/>
      <point x="402" y="-17"/>
    </contour>
    <contour>
      <point x="67" y="308" type="curve" smooth="yes"/>
      <point x="366" y="308" type="line" smooth="yes"/>
      <point x="393" y="308"/>
      <point x="416" y="285"/>
      <point x="416" y="258" type="curve" smooth="yes"/>
      <point x="416" y="231"/>
      <point x="393" y="208"/>
      <point x="366" y="208" type="curve" smooth="yes"/>
      <point x="67" y="208" type="line" smooth="yes"/>
      <point x="40" y="208"/>
      <point x="17" y="231"/>
      <point x="17" y="258" type="curve" smooth="yes"/>
      <point x="17" y="285"/>
      <point x="40" y="308"/>
    </contour>
  </outline>
</glyph>
<glyph name="currency" format="1">
  <advance width="531.0"/>
  <unicode hex="00A4"/>
  <outline>
    <contour>
      <point x="265" y="446" type="curve" smooth="yes"/>
      <point x="392" y="446"/>
      <point x="473" y="350"/>
      <point x="473" y="232" type="curve" smooth="yes"/>
      <point x="473" y="117"/>
      <point x="392" y="28"/>
      <point x="265" y="28" type="curve" smooth="yes"/>
      <point x="138" y="28"/>
      <point x="57" y="118"/>
      <point x="57" y="234" type="curve"/>
      <point x="57" y="350"/>
      <point x="137" y="446"/>
    </contour>
    <contour>
      <point x="265" y="346" type="curve" smooth="yes"/>
      <point x="197" y="346"/>
      <point x="157" y="294"/>
      <point x="157" y="234" type="curve" smooth="yes"/>
      <point x="157" y="174"/>
      <point x="200" y="128"/>
      <point x="265" y="128" type="curve" smooth="yes"/>
      <point x="330" y="128"/>
      <point x="373" y="173"/>
      <point x="373" y="232" type="curve" smooth="yes"/>
      <point x="373" y="294"/>
      <point x="332" y="346"/>
    </contour>
    <contour>
      <point x="412" y="0" type="curve" smooth="yes"/>
      <point x="341" y="78" type="line" smooth="yes"/>
      <point x="323" y="98"/>
      <point x="324" y="131"/>
      <point x="344" y="149" type="curve" smooth="yes"/>
      <point x="364" y="167"/>
      <point x="397" y="166"/>
      <point x="415" y="146" type="curve" smooth="yes"/>
      <point x="486" y="68" type="line" smooth="yes"/>
      <point x="504" y="48"/>
      <point x="503" y="15"/>
      <point x="483" y="-3" type="curve" smooth="yes"/>
      <point x="463" y="-21"/>
      <point x="430" y="-20"/>
    </contour>
    <contour>
      <point x="115" y="325" type="curve" smooth="yes"/>
      <point x="50" y="396" type="line" smooth="yes"/>
      <point x="32" y="416"/>
      <point x="33" y="449"/>
      <point x="53" y="467" type="curve" smooth="yes"/>
      <point x="73" y="485"/>
      <point x="106" y="484"/>
      <point x="124" y="464" type="curve" smooth="yes"/>
      <point x="189" y="393" type="line" smooth="yes"/>
      <point x="207" y="373"/>
      <point x="206" y="340"/>
      <point x="186" y="322" type="curve" smooth="yes"/>
      <point x="166" y="304"/>
      <point x="133" y="305"/>
    </contour>
    <contour>
      <point x="341" y="394" type="curve" smooth="yes"/>
      <point x="406" y="466" type="line" smooth="yes"/>
      <point x="424" y="486"/>
      <point x="456" y="487"/>
      <point x="477" y="469" type="curve" smooth="yes"/>
      <point x="497" y="451"/>
      <point x="498" y="419"/>
      <point x="480" y="398" type="curve" smooth="yes"/>
      <point x="415" y="326" type="line" smooth="yes"/>
      <point x="397" y="306"/>
      <point x="365" y="305"/>
      <point x="344" y="323" type="curve" smooth="yes"/>
      <point x="324" y="341"/>
      <point x="323" y="373"/>
    </contour>
    <contour>
      <point x="45" y="68" type="curve" smooth="yes"/>
      <point x="113" y="143" type="line" smooth="yes"/>
      <point x="131" y="163"/>
      <point x="164" y="164"/>
      <point x="184" y="146" type="curve" smooth="yes"/>
      <point x="204" y="128"/>
      <point x="205" y="95"/>
      <point x="187" y="75" type="curve" smooth="yes"/>
      <point x="119" y="0" type="line" smooth="yes"/>
      <point x="101" y="-20"/>
      <point x="68" y="-21"/>
      <point x="48" y="-3" type="curve" smooth="yes"/>
      <point x="28" y="15"/>
      <point x="27" y="48"/>
    </contour>
  </outline>
</glyph>
<glyph name="yen" format="1">
  <advance width="570"/>
  <unicode hex="00A5"/>
  <outline>
    <contour>
      <point x="343" y="275" type="curve" smooth="yes"/>
      <point x="343" y="33" type="line" smooth="yes"/>
      <point x="343" y="6"/>
      <point x="320" y="-17"/>
      <point x="293" y="-17" type="curve" smooth="yes"/>
      <point x="266" y="-17"/>
      <point x="243" y="6"/>
      <point x="243" y="33" type="curve" smooth="yes"/>
      <point x="243" y="275" type="line" smooth="yes"/>
      <point x="243" y="302"/>
      <point x="266" y="325"/>
      <point x="293" y="325" type="curve" smooth="yes"/>
      <point x="320" y="325"/>
      <point x="343" y="302"/>
    </contour>
    <contour>
      <point x="139" y="547" type="curve" smooth="yes"/>
      <point x="186" y="479"/>
      <point x="288" y="363"/>
      <point x="325" y="327" type="curve" smooth="yes"/>
      <point x="344" y="308"/>
      <point x="345" y="275"/>
      <point x="326" y="256" type="curve" smooth="yes"/>
      <point x="307" y="237"/>
      <point x="274" y="236"/>
      <point x="255" y="255" type="curve" smooth="yes"/>
      <point x="216" y="293"/>
      <point x="108" y="417"/>
      <point x="57" y="489" type="curve" smooth="yes"/>
      <point x="42" y="511"/>
      <point x="47" y="543"/>
      <point x="69" y="559" type="curve" smooth="yes"/>
      <point x="91" y="574"/>
      <point x="123" y="569"/>
    </contour>
    <contour>
      <point x="258" y="316" type="curve" smooth="yes"/>
      <point x="306" y="365"/>
      <point x="396" y="480"/>
      <point x="443" y="547" type="curve" smooth="yes"/>
      <point x="459" y="569"/>
      <point x="491" y="574"/>
      <point x="513" y="559" type="curve" smooth="yes"/>
      <point x="535" y="543"/>
      <point x="540" y="511"/>
      <point x="525" y="489" type="curve" smooth="yes"/>
      <point x="474" y="418"/>
      <point x="380" y="297"/>
      <point x="328" y="246" type="curve" smooth="yes"/>
      <point x="309" y="227"/>
      <point x="277" y="227"/>
      <point x="258" y="246" type="curve" smooth="yes"/>
      <point x="239" y="265"/>
      <point x="239" y="297"/>
    </contour>
    <contour>
      <point x="118" y="327" type="curve" smooth="yes"/>
      <point x="466" y="327" type="line" smooth="yes"/>
      <point x="493" y="327"/>
      <point x="516" y="304"/>
      <point x="516" y="277" type="curve" smooth="yes"/>
      <point x="516" y="250"/>
      <point x="493" y="227"/>
      <point x="466" y="227" type="curve" smooth="yes"/>
      <point x="118" y="227" type="line" smooth="yes"/>
      <point x="91" y="227"/>
      <point x="68" y="250"/>
      <point x="68" y="277" type="curve" smooth="yes"/>
      <point x="68" y="304"/>
      <point x="91" y="327"/>
    </contour>
    <contour>
      <point x="118" y="185" type="curve" smooth="yes"/>
      <point x="466" y="185" type="line" smooth="yes"/>
      <point x="493" y="185"/>
      <point x="516" y="162"/>
      <point x="516" y="135" type="curve" smooth="yes"/>
      <point x="516" y="108"/>
      <point x="493" y="85"/>
      <point x="466" y="85" type="curve" smooth="yes"/>
      <point x="118" y="85" type="line" smooth="yes"/>
      <point x="91" y="85"/>
      <point x="68" y="108"/>
      <point x="68" y="135" type="curve" smooth="yes"/>
      <point x="68" y="162"/>
      <point x="91" y="185"/>
    </contour>
  </outline>
</glyph>
<glyph name="brokenbar" format="1">
  <advance width="310"/>
  <unicode hex="00A6"/>
  <outline>
    <contour>
      <point x="205" y="159" type="curve" smooth="yes"/>
      <point x="205" y="-68" type="line" smooth="yes"/>
      <point x="205" y="-95"/>
      <point x="182" y="-118"/>
      <point x="155" y="-118" type="curve" smooth="yes"/>
      <point x="128" y="-118"/>
      <point x="105" y="-95"/>
      <point x="105" y="-68" type="curve" smooth="yes"/>
      <point x="105" y="159" type="line" smooth="yes"/>
      <point x="105" y="186"/>
      <point x="128" y="209"/>
      <point x="155" y="209" type="curve" smooth="yes"/>
      <point x="182" y="209"/>
      <point x="205" y="186"/>
    </contour>
    <contour>
      <point x="205" y="545" type="curve" smooth="yes"/>
      <point x="205" y="318" type="line" smooth="yes"/>
      <point x="205" y="291"/>
      <point x="182" y="268"/>
      <point x="155" y="268" type="curve" smooth="yes"/>
      <point x="128" y="268"/>
      <point x="105" y="291"/>
      <point x="105" y="318" type="curve" smooth="yes"/>
      <point x="105" y="545" type="line" smooth="yes"/>
      <point x="105" y="572"/>
      <point x="128" y="595"/>
      <point x="155" y="595" type="curve" smooth="yes"/>
      <point x="182" y="595"/>
      <point x="205" y="572"/>
    </contour>
  </outline>
</glyph>
<glyph name="section" format="1">
  <advance width="535"/>
  <unicode hex="00A7"/>
  <outline>
    <contour>
      <point x="383" y="452" type="curve" smooth="yes"/>
      <point x="341" y="466"/>
      <point x="310" y="474"/>
      <point x="248" y="474" type="curve" smooth="yes"/>
      <point x="212" y="474"/>
      <point x="162" y="466"/>
      <point x="162" y="438" type="curve" smooth="yes"/>
      <point x="162" y="409"/>
      <point x="204" y="390"/>
      <point x="276" y="379" type="curve" smooth="yes"/>
      <point x="451" y="345"/>
      <point x="482" y="278"/>
      <point x="482" y="211" type="curve" smooth="yes"/>
      <point x="482" y="142"/>
      <point x="441" y="65"/>
      <point x="268" y="65" type="curve" smooth="yes"/>
      <point x="241" y="65"/>
      <point x="218" y="88"/>
      <point x="218" y="115" type="curve" smooth="yes"/>
      <point x="218" y="142"/>
      <point x="241" y="165"/>
      <point x="268" y="165" type="curve" smooth="yes"/>
      <point x="323" y="165"/>
      <point x="382" y="174"/>
      <point x="382" y="211" type="curve" smooth="yes"/>
      <point x="382" y="250"/>
      <point x="331" y="267"/>
      <point x="262" y="281" type="curve" smooth="yes"/>
      <point x="66" y="310"/>
      <point x="62" y="385"/>
      <point x="62" y="438" type="curve"/>
      <point x="62" y="498"/>
      <point x="114" y="574"/>
      <point x="248" y="574" type="curve" smooth="yes"/>
      <point x="324" y="574"/>
      <point x="361" y="564"/>
      <point x="413" y="548" type="curve" smooth="yes"/>
      <point x="439" y="539"/>
      <point x="454" y="511"/>
      <point x="446" y="485" type="curve" smooth="yes"/>
      <point x="437" y="459"/>
      <point x="409" y="444"/>
    </contour>
    <contour>
      <point x="238" y="281" type="curve" smooth="yes"/>
      <point x="195" y="281"/>
      <point x="152" y="270"/>
      <point x="152" y="231" type="curve" smooth="yes"/>
      <point x="152" y="199"/>
      <point x="190" y="178"/>
      <point x="267" y="164" type="curve" smooth="yes"/>
      <point x="447" y="133"/>
      <point x="472" y="80"/>
      <point x="472" y="11" type="curve" smooth="yes"/>
      <point x="472" y="-58"/>
      <point x="428" y="-140"/>
      <point x="258" y="-140" type="curve" smooth="yes"/>
      <point x="191" y="-140"/>
      <point x="126" y="-127"/>
      <point x="68" y="-100" type="curve" smooth="yes"/>
      <point x="44" y="-89"/>
      <point x="32" y="-59"/>
      <point x="44" y="-34" type="curve" smooth="yes"/>
      <point x="55" y="-10"/>
      <point x="85" y="2"/>
      <point x="110" y="-10" type="curve" smooth="yes"/>
      <point x="156" y="-31"/>
      <point x="205" y="-40"/>
      <point x="258" y="-40" type="curve" smooth="yes"/>
      <point x="316" y="-40"/>
      <point x="372" y="-26"/>
      <point x="372" y="11" type="curve" smooth="yes"/>
      <point x="372" y="50"/>
      <point x="315" y="55"/>
      <point x="251" y="66" type="curve" smooth="yes"/>
      <point x="60" y="98"/>
      <point x="52" y="175"/>
      <point x="52" y="231" type="curve"/>
      <point x="52" y="314"/>
      <point x="111" y="381"/>
      <point x="238" y="381" type="curve" smooth="yes"/>
      <point x="265" y="381"/>
      <point x="288" y="358"/>
      <point x="288" y="331" type="curve" smooth="yes"/>
      <point x="288" y="304"/>
      <point x="265" y="281"/>
    </contour>
  </outline>
</glyph>
<glyph name="dieresis" format="1">
  <advance width="500"/>
  <unicode hex="00A8"/>
  <outline>
    <contour>
      <point x="156" y="636" type="curve" smooth="yes"/>
      <point x="185" y="636"/>
      <point x="221" y="616"/>
      <point x="221" y="560" type="curve" smooth="yes"/>
      <point x="221" y="504"/>
      <point x="187" y="486"/>
      <point x="156" y="486" type="curve" smooth="yes"/>
      <point x="122" y="486"/>
      <point x="88" y="511"/>
      <point x="88" y="560" type="curve"/>
      <point x="88" y="609"/>
      <point x="124" y="636"/>
    </contour>
    <contour>
      <point x="334" y="636" type="curve" smooth="yes"/>
      <point x="363" y="636"/>
      <point x="399" y="616"/>
      <point x="399" y="560" type="curve" smooth="yes"/>
      <point x="399" y="504"/>
      <point x="365" y="486"/>
      <point x="334" y="486" type="curve" smooth="yes"/>
      <point x="300" y="486"/>
      <point x="266" y="511"/>
      <point x="266" y="560" type="curve" smooth="yes"/>
      <point x="266" y="609"/>
      <point x="302" y="636"/>
    </contour>
    <contour>
      <point x="156" y="536" type="curve" smooth="yes"/>
      <point x="166" y="536"/>
      <point x="188" y="537"/>
      <point x="188" y="560" type="curve" smooth="yes"/>
      <point x="188" y="583"/>
      <point x="168" y="586"/>
      <point x="156" y="586" type="curve" smooth="yes"/>
      <point x="145" y="586"/>
      <point x="121" y="590"/>
      <point x="121" y="560" type="curve"/>
      <point x="121" y="530"/>
      <point x="147" y="536"/>
    </contour>
    <contour>
      <point x="334" y="536" type="curve" smooth="yes"/>
      <point x="344" y="536"/>
      <point x="366" y="537"/>
      <point x="366" y="560" type="curve" smooth="yes"/>
      <point x="366" y="583"/>
      <point x="346" y="586"/>
      <point x="334" y="586" type="curve" smooth="yes"/>
      <point x="323" y="586"/>
      <point x="299" y="590"/>
      <point x="299" y="560" type="curve" smooth="yes"/>
      <point x="299" y="530"/>
      <point x="325" y="536"/>
    </contour>
  </outline>
</glyph>
<glyph name="copyright" format="1">
  <advance width="663"/>
  <unicode hex="00A9"/>
  <outline>
    <contour>
      <point x="334" y="577" type="curve" smooth="yes"/>
      <point x="501" y="577"/>
      <point x="634" y="453"/>
      <point x="634" y="275" type="curve" smooth="yes"/>
      <point x="634" y="106"/>
      <point x="523" y="-26"/>
      <point x="334" y="-26" type="curve" smooth="yes"/>
      <point x="154" y="-26"/>
      <point x="29" y="107"/>
      <point x="29" y="272" type="curve" smooth="yes"/>
      <point x="29" y="453"/>
      <point x="151" y="577"/>
    </contour>
    <contour>
      <point x="387" y="346" type="curve" smooth="yes"/>
      <point x="375" y="352"/>
      <point x="359" y="356"/>
      <point x="340" y="356" type="curve" smooth="yes"/>
      <point x="298" y="356"/>
      <point x="261" y="322"/>
      <point x="261" y="274" type="curve" smooth="yes"/>
      <point x="261" y="229"/>
      <point x="292" y="195"/>
      <point x="343" y="195" type="curve" smooth="yes"/>
      <point x="361" y="195"/>
      <point x="377" y="199"/>
      <point x="390" y="205" type="curve" smooth="yes"/>
      <point x="414" y="218"/>
      <point x="445" y="208"/>
      <point x="457" y="184" type="curve" smooth="yes"/>
      <point x="470" y="160"/>
      <point x="460" y="129"/>
      <point x="436" y="117" type="curve" smooth="yes"/>
      <point x="411" y="103"/>
      <point x="379" y="95"/>
      <point x="343" y="95" type="curve" smooth="yes"/>
      <point x="228" y="95"/>
      <point x="161" y="173"/>
      <point x="161" y="274" type="curve" smooth="yes"/>
      <point x="161" y="382"/>
      <point x="246" y="456"/>
      <point x="340" y="456" type="curve" smooth="yes"/>
      <point x="377" y="456"/>
      <point x="411" y="446"/>
      <point x="433" y="434" type="curve" smooth="yes"/>
      <point x="457" y="422"/>
      <point x="467" y="390"/>
      <point x="454" y="367" type="curve" smooth="yes"/>
      <point x="442" y="343"/>
      <point x="410" y="333"/>
    </contour>
    <contour>
      <point x="334" y="477" type="curve" smooth="yes"/>
      <point x="211" y="477"/>
      <point x="129" y="393"/>
      <point x="129" y="272" type="curve" smooth="yes"/>
      <point x="129" y="161"/>
      <point x="214" y="74"/>
      <point x="334" y="74" type="curve" smooth="yes"/>
      <point x="461" y="74"/>
      <point x="534" y="162"/>
      <point x="534" y="275" type="curve" smooth="yes"/>
      <point x="534" y="393"/>
      <point x="445" y="477"/>
    </contour>
  </outline>
</glyph>
<glyph name="ordfeminine" format="1">
  <advance width="454"/>
  <unicode hex="00AA"/>
  <outline>
    <contour>
      <point x="103" y="224" type="curve" smooth="yes"/>
      <point x="361" y="224" type="line" smooth="yes"/>
      <point x="388" y="224"/>
      <point x="411" y="201"/>
      <point x="411" y="174" type="curve" smooth="yes"/>
      <point x="411" y="147"/>
      <point x="388" y="124"/>
      <point x="361" y="124" type="curve" smooth="yes"/>
      <point x="103" y="124" type="line" smooth="yes"/>
      <point x="76" y="124"/>
      <point x="53" y="147"/>
      <point x="53" y="174" type="curve" smooth="yes"/>
      <point x="53" y="201"/>
      <point x="76" y="224"/>
    </contour>
    <contour>
      <point x="135" y="553" type="curve" smooth="yes"/>
      <point x="154" y="560"/>
      <point x="185" y="567"/>
      <point x="214" y="567" type="curve" smooth="yes"/>
      <point x="311" y="567"/>
      <point x="356" y="509"/>
      <point x="356" y="424" type="curve" smooth="yes"/>
      <point x="356" y="364" type="line" smooth="yes"/>
      <point x="356" y="344"/>
      <point x="358" y="331"/>
      <point x="367" y="321" type="curve" smooth="yes"/>
      <point x="385" y="301"/>
      <point x="383" y="269"/>
      <point x="363" y="251" type="curve" smooth="yes"/>
      <point x="343" y="233"/>
      <point x="311" y="235"/>
      <point x="293" y="255" type="curve" smooth="yes"/>
      <point x="270" y="281"/>
      <point x="256" y="312"/>
      <point x="256" y="364" type="curve" smooth="yes"/>
      <point x="256" y="424" type="line" smooth="yes"/>
      <point x="256" y="449"/>
      <point x="243" y="467"/>
      <point x="214" y="467" type="curve" smooth="yes"/>
      <point x="197" y="467"/>
      <point x="178" y="462"/>
      <point x="167" y="459" type="curve" smooth="yes"/>
      <point x="141" y="450"/>
      <point x="112" y="465"/>
      <point x="104" y="490" type="curve" smooth="yes"/>
      <point x="95" y="516"/>
      <point x="110" y="545"/>
    </contour>
    <contour>
      <point x="302" y="367" type="curve" smooth="yes"/>
      <point x="280" y="368"/>
      <point x="260" y="370"/>
      <point x="241" y="370" type="curve" smooth="yes"/>
      <point x="207" y="370"/>
      <point x="185" y="363"/>
      <point x="170" y="350" type="curve"/>
      <point x="172" y="353" type="line"/>
      <point x="169" y="349"/>
      <point x="169" y="346"/>
      <point x="169" y="342" type="curve" smooth="yes"/>
      <point x="169" y="336"/>
      <point x="181" y="338"/>
      <point x="184" y="338" type="curve" smooth="yes"/>
      <point x="219" y="338"/>
      <point x="244" y="351"/>
      <point x="266" y="382" type="curve" smooth="yes"/>
      <point x="282" y="403"/>
      <point x="314" y="408"/>
      <point x="336" y="392" type="curve" smooth="yes"/>
      <point x="357" y="376"/>
      <point x="362" y="344"/>
      <point x="346" y="322" type="curve" smooth="yes"/>
      <point x="302" y="263"/>
      <point x="253" y="238"/>
      <point x="184" y="238" type="curve" smooth="yes"/>
      <point x="93" y="238"/>
      <point x="69" y="300"/>
      <point x="69" y="342" type="curve"/>
      <point x="69" y="374"/>
      <point x="77" y="399"/>
      <point x="102" y="423" type="curve" smooth="yes"/>
      <point x="102" y="424"/>
      <point x="104" y="425"/>
      <point x="104" y="426" type="curve" smooth="yes"/>
      <point x="133" y="451"/>
      <point x="175" y="470"/>
      <point x="241" y="470" type="curve" smooth="yes"/>
      <point x="262" y="470"/>
      <point x="282" y="468"/>
      <point x="306" y="467" type="curve" smooth="yes"/>
      <point x="333" y="466"/>
      <point x="355" y="442"/>
      <point x="354" y="415" type="curve" smooth="yes"/>
      <point x="353" y="388"/>
      <point x="329" y="366"/>
    </contour>
  </outline>
</glyph>
<glyph name="guillemotleft" format="1">
  <advance width="448"/>
  <unicode hex="00AB"/>
  <outline>
    <contour>
      <point x="283" y="231" type="curve" smooth="yes"/>
      <point x="394" y="107" type="line" smooth="yes"/>
      <point x="412" y="87"/>
      <point x="410" y="55"/>
      <point x="390" y="37" type="curve" smooth="yes"/>
      <point x="370" y="19"/>
      <point x="338" y="21"/>
      <point x="320" y="41" type="curve" smooth="yes"/>
      <point x="209" y="165" type="line" smooth="yes"/>
      <point x="191" y="185"/>
      <point x="193" y="217"/>
      <point x="213" y="235" type="curve" smooth="yes"/>
      <point x="233" y="253"/>
      <point x="265" y="251"/>
    </contour>
    <contour>
      <point x="394" y="293" type="curve" smooth="yes"/>
      <point x="283" y="169" type="line" smooth="yes"/>
      <point x="265" y="149"/>
      <point x="233" y="147"/>
      <point x="213" y="165" type="curve" smooth="yes"/>
      <point x="193" y="183"/>
      <point x="191" y="215"/>
      <point x="209" y="235" type="curve" smooth="yes"/>
      <point x="320" y="359" type="line" smooth="yes"/>
      <point x="338" y="379"/>
      <point x="370" y="381"/>
      <point x="390" y="363" type="curve" smooth="yes"/>
      <point x="410" y="345"/>
      <point x="412" y="313"/>
    </contour>
    <contour>
      <point x="113" y="231" type="curve" smooth="yes"/>
      <point x="224" y="107" type="line" smooth="yes"/>
      <point x="242" y="87"/>
      <point x="240" y="55"/>
      <point x="220" y="37" type="curve" smooth="yes"/>
      <point x="200" y="19"/>
      <point x="168" y="21"/>
      <point x="150" y="41" type="curve" smooth="yes"/>
      <point x="39" y="165" type="line" smooth="yes"/>
      <point x="21" y="185"/>
      <point x="23" y="217"/>
      <point x="43" y="235" type="curve" smooth="yes"/>
      <point x="63" y="253"/>
      <point x="95" y="251"/>
    </contour>
    <contour>
      <point x="224" y="293" type="curve" smooth="yes"/>
      <point x="113" y="169" type="line" smooth="yes"/>
      <point x="95" y="149"/>
      <point x="63" y="147"/>
      <point x="43" y="165" type="curve" smooth="yes"/>
      <point x="23" y="183"/>
      <point x="21" y="215"/>
      <point x="39" y="235" type="curve" smooth="yes"/>
      <point x="150" y="359" type="line" smooth="yes"/>
      <point x="168" y="379"/>
      <point x="200" y="381"/>
      <point x="220" y="363" type="curve" smooth="yes"/>
      <point x="240" y="345"/>
      <point x="242" y="313"/>
    </contour>
  </outline>
</glyph>
<glyph name="logicalnot" format="1">
  <advance width="491"/>
  <unicode hex="00AC"/>
  <outline>
    <contour>
      <point x="114" y="309" type="curve" smooth="yes"/>
      <point x="377" y="309" type="line" smooth="yes"/>
      <point x="404" y="309"/>
      <point x="427" y="286"/>
      <point x="427" y="259" type="curve" smooth="yes"/>
      <point x="427" y="232"/>
      <point x="404" y="209"/>
      <point x="377" y="209" type="curve" smooth="yes"/>
      <point x="114" y="209" type="line" smooth="yes"/>
      <point x="87" y="209"/>
      <point x="64" y="232"/>
      <point x="64" y="259" type="curve" smooth="yes"/>
      <point x="64" y="286"/>
      <point x="87" y="309"/>
    </contour>
    <contour>
      <point x="427" y="253" type="curve" smooth="yes"/>
      <point x="427" y="152" type="line" smooth="yes"/>
      <point x="427" y="125"/>
      <point x="404" y="102"/>
      <point x="377" y="102" type="curve" smooth="yes"/>
      <point x="350" y="102"/>
      <point x="327" y="125"/>
      <point x="327" y="152" type="curve" smooth="yes"/>
      <point x="327" y="253" type="line" smooth="yes"/>
      <point x="327" y="280"/>
      <point x="350" y="303"/>
      <point x="377" y="303" type="curve" smooth="yes"/>
      <point x="404" y="303"/>
      <point x="427" y="280"/>
    </contour>
  </outline>
</glyph>
<glyph name="registered" format="1">
  <advance width="570"/>
  <unicode hex="00AE"/>
  <outline>
    <contour>
      <point x="282" y="559" type="curve" smooth="yes"/>
      <point x="198" y="559"/>
      <point x="140" y="500"/>
      <point x="140" y="416" type="curve" smooth="yes"/>
      <point x="140" y="335"/>
      <point x="198" y="266"/>
      <point x="289" y="266" type="curve" smooth="yes"/>
      <point x="373" y="266"/>
      <point x="436" y="329"/>
      <point x="436" y="413" type="curve" smooth="yes"/>
      <point x="436" y="498"/>
      <point x="372" y="559"/>
    </contour>
    <contour>
      <point x="240" y="437" type="curve" smooth="yes"/>
      <point x="287" y="437" type="line" smooth="yes"/>
      <point x="294" y="437"/>
      <point x="300" y="439"/>
      <point x="300" y="446" type="curve" smooth="yes"/>
      <point x="300" y="453"/>
      <point x="291" y="452"/>
      <point x="287" y="452" type="curve" smooth="yes"/>
      <point x="230" y="452" type="line"/>
      <point x="280" y="502" type="line"/>
      <point x="280" y="326" type="line" smooth="yes"/>
      <point x="280" y="299"/>
      <point x="257" y="276"/>
      <point x="230" y="276" type="curve" smooth="yes"/>
      <point x="203" y="276"/>
      <point x="180" y="299"/>
      <point x="180" y="326" type="curve" smooth="yes"/>
      <point x="180" y="502" type="line" smooth="yes"/>
      <point x="180" y="530"/>
      <point x="202" y="552"/>
      <point x="230" y="552" type="curve" smooth="yes"/>
      <point x="287" y="552" type="line" smooth="yes"/>
      <point x="359" y="552"/>
      <point x="400" y="509"/>
      <point x="400" y="446" type="curve" smooth="yes"/>
      <point x="400" y="389"/>
      <point x="366" y="337"/>
      <point x="287" y="337" type="curve" smooth="yes"/>
      <point x="240" y="337" type="line" smooth="yes"/>
      <point x="213" y="337"/>
      <point x="190" y="360"/>
      <point x="190" y="387" type="curve" smooth="yes"/>
      <point x="190" y="414"/>
      <point x="213" y="437"/>
    </contour>
    <contour>
      <point x="352" y="413" type="curve" smooth="yes"/>
      <point x="399" y="358" type="line" smooth="yes"/>
      <point x="417" y="338"/>
      <point x="414" y="306"/>
      <point x="393" y="288" type="curve" smooth="yes"/>
      <point x="373" y="270"/>
      <point x="341" y="273"/>
      <point x="323" y="294" type="curve" smooth="yes"/>
      <point x="276" y="349" type="line" smooth="yes"/>
      <point x="258" y="369"/>
      <point x="261" y="401"/>
      <point x="282" y="419" type="curve" smooth="yes"/>
      <point x="302" y="437"/>
      <point x="334" y="434"/>
    </contour>
    <contour>
      <point x="282" y="659" type="curve" smooth="yes"/>
      <point x="434" y="659"/>
      <point x="536" y="552"/>
      <point x="536" y="413" type="curve" smooth="yes"/>
      <point x="536" y="271"/>
      <point x="431" y="166"/>
      <point x="289" y="166" type="curve" smooth="yes"/>
      <point x="138" y="166"/>
      <point x="40" y="281"/>
      <point x="40" y="416" type="curve" smooth="yes"/>
      <point x="40" y="560"/>
      <point x="138" y="659"/>
    </contour>
  </outline>
</glyph>
<glyph name="degree" format="1">
  <advance width="369"/>
  <unicode hex="00B0"/>
  <outline>
    <contour>
      <point x="185" y="573" type="curve" smooth="yes"/>
      <point x="280" y="573"/>
      <point x="338" y="505"/>
      <point x="338" y="419" type="curve" smooth="yes"/>
      <point x="338" y="337"/>
      <point x="280" y="270"/>
      <point x="185" y="270" type="curve" smooth="yes"/>
      <point x="89" y="270"/>
      <point x="31" y="336"/>
      <point x="31" y="419" type="curve" smooth="yes"/>
      <point x="31" y="503"/>
      <point x="87" y="573"/>
    </contour>
    <contour>
      <point x="185" y="473" type="curve" smooth="yes"/>
      <point x="151" y="473"/>
      <point x="131" y="449"/>
      <point x="131" y="419" type="curve" smooth="yes"/>
      <point x="131" y="390"/>
      <point x="153" y="370"/>
      <point x="185" y="370" type="curve" smooth="yes"/>
      <point x="216" y="370"/>
      <point x="238" y="391"/>
      <point x="238" y="419" type="curve" smooth="yes"/>
      <point x="238" y="449"/>
      <point x="218" y="473"/>
    </contour>
  </outline>
</glyph>
<glyph name="plusminus" format="1">
  <advance width="491"/>
  <unicode hex="00B1"/>
  <outline>
    <contour>
      <point x="92" y="366" type="curve" smooth="yes"/>
      <point x="398" y="366" type="line" smooth="yes"/>
      <point x="425" y="366"/>
      <point x="448" y="343"/>
      <point x="448" y="316" type="curve" smooth="yes"/>
      <point x="448" y="289"/>
      <point x="425" y="266"/>
      <point x="398" y="266" type="curve" smooth="yes"/>
      <point x="92" y="266" type="line" smooth="yes"/>
      <point x="65" y="266"/>
      <point x="42" y="289"/>
      <point x="42" y="316" type="curve" smooth="yes"/>
      <point x="42" y="343"/>
      <point x="65" y="366"/>
    </contour>
    <contour>
      <point x="195" y="207" type="curve" smooth="yes"/>
      <point x="195" y="424" type="line" smooth="yes"/>
      <point x="195" y="451"/>
      <point x="218" y="474"/>
      <point x="245" y="474" type="curve" smooth="yes"/>
      <point x="272" y="474"/>
      <point x="295" y="451"/>
      <point x="295" y="424" type="curve" smooth="yes"/>
      <point x="295" y="207" type="line" smooth="yes"/>
      <point x="295" y="180"/>
      <point x="272" y="157"/>
      <point x="245" y="157" type="curve" smooth="yes"/>
      <point x="218" y="157"/>
      <point x="195" y="180"/>
    </contour>
    <contour>
      <point x="92" y="142" type="curve" smooth="yes"/>
      <point x="398" y="142" type="line" smooth="yes"/>
      <point x="425" y="142"/>
      <point x="448" y="119"/>
      <point x="448" y="92" type="curve" smooth="yes"/>
      <point x="448" y="65"/>
      <point x="425" y="42"/>
      <point x="398" y="42" type="curve" smooth="yes"/>
      <point x="92" y="42" type="line" smooth="yes"/>
      <point x="65" y="42"/>
      <point x="42" y="65"/>
      <point x="42" y="92" type="curve" smooth="yes"/>
      <point x="42" y="119"/>
      <point x="65" y="142"/>
    </contour>
  </outline>
</glyph>
<glyph name="acute" format="1">
  <advance width="500"/>
  <unicode hex="00B4"/>
  <outline>
    <contour>
      <point x="321" y="563" type="curve" smooth="yes"/>
      <point x="290" y="529"/>
      <point x="271" y="507"/>
      <point x="253" y="479" type="curve" smooth="yes"/>
      <point x="238" y="456"/>
      <point x="207" y="449"/>
      <point x="184" y="464" type="curve" smooth="yes"/>
      <point x="161" y="479"/>
      <point x="154" y="510"/>
      <point x="169" y="533" type="curve" smooth="yes"/>
      <point x="191" y="567"/>
      <point x="212" y="593"/>
      <point x="249" y="631" type="curve" smooth="yes"/>
      <point x="267" y="651"/>
      <point x="300" y="652"/>
      <point x="319" y="633" type="curve" smooth="yes"/>
      <point x="339" y="615"/>
      <point x="340" y="582"/>
    </contour>
  </outline>
</glyph>
<glyph name="paragraph" format="1">
  <advance width="566"/>
  <unicode hex="00B6"/>
  <outline>
    <contour>
      <point x="388" y="33" type="curve" smooth="yes"/>
      <point x="388" y="518" type="line"/>
      <point x="438" y="468" type="line"/>
      <point x="250" y="468" type="line" smooth="yes"/>
      <point x="182" y="468"/>
      <point x="132" y="427"/>
      <point x="132" y="364" type="curve" smooth="yes"/>
      <point x="132" y="304"/>
      <point x="173" y="259"/>
      <point x="250" y="259" type="curve" smooth="yes"/>
      <point x="306" y="259" type="line" smooth="yes"/>
      <point x="333" y="259"/>
      <point x="356" y="236"/>
      <point x="356" y="209" type="curve" smooth="yes"/>
      <point x="356" y="182"/>
      <point x="333" y="159"/>
      <point x="306" y="159" type="curve" smooth="yes"/>
      <point x="250" y="159" type="line" smooth="yes"/>
      <point x="101" y="159"/>
      <point x="32" y="254"/>
      <point x="32" y="364" type="curve"/>
      <point x="32" y="481"/>
      <point x="116" y="568"/>
      <point x="250" y="568" type="curve" smooth="yes"/>
      <point x="438" y="568" type="line" smooth="yes"/>
      <point x="466" y="568"/>
      <point x="488" y="546"/>
      <point x="488" y="518" type="curve" smooth="yes"/>
      <point x="488" y="33" type="line" smooth="yes"/>
      <point x="488" y="6"/>
      <point x="465" y="-17"/>
      <point x="438" y="-17" type="curve" smooth="yes"/>
      <point x="411" y="-17"/>
      <point x="388" y="6"/>
    </contour>
    <contour>
      <point x="256" y="33" type="curve" smooth="yes"/>
      <point x="256" y="516" type="line" smooth="yes"/>
      <point x="256" y="543"/>
      <point x="279" y="566"/>
      <point x="306" y="566" type="curve" smooth="yes"/>
      <point x="333" y="566"/>
      <point x="356" y="543"/>
      <point x="356" y="516" type="curve" smooth="yes"/>
      <point x="356" y="33" type="line" smooth="yes"/>
      <point x="356" y="6"/>
      <point x="333" y="-17"/>
      <point x="306" y="-17" type="curve" smooth="yes"/>
      <point x="279" y="-17"/>
      <point x="256" y="6"/>
    </contour>
  </outline>
</glyph>
<glyph name="cedilla" format="1">
  <advance width="500"/>
  <unicode hex="00B8"/>
  <outline>
    <contour>
      <point x="328" y="-109" type="curve" smooth="yes"/>
      <point x="303" y="-134"/>
      <point x="263" y="-173"/>
      <point x="240" y="-196" type="curve" smooth="yes"/>
      <point x="221" y="-215"/>
      <point x="189" y="-215"/>
      <point x="170" y="-196" type="curve" smooth="yes"/>
      <point x="151" y="-177"/>
      <point x="151" y="-145"/>
      <point x="170" y="-126" type="curve" smooth="yes"/>
      <point x="193" y="-103"/>
      <point x="233" y="-64"/>
      <point x="258" y="-39" type="curve" smooth="yes"/>
      <point x="277" y="-20"/>
      <point x="309" y="-20"/>
      <point x="328" y="-39" type="curve" smooth="yes"/>
      <point x="347" y="-58"/>
      <point x="347" y="-90"/>
    </contour>
  </outline>
</glyph>
<glyph name="ordmasculine" format="1">
  <advance width="448"/>
  <unicode hex="00BA"/>
  <outline>
    <contour>
      <point x="224" y="567" type="curve" smooth="yes"/>
      <point x="323" y="567"/>
      <point x="387" y="492"/>
      <point x="387" y="401" type="curve" smooth="yes"/>
      <point x="387" y="309"/>
      <point x="324" y="239"/>
      <point x="224" y="239" type="curve" smooth="yes"/>
      <point x="124" y="239"/>
      <point x="60" y="309"/>
      <point x="60" y="401" type="curve"/>
      <point x="60" y="492"/>
      <point x="122" y="567"/>
    </contour>
    <contour>
      <point x="224" y="467" type="curve" smooth="yes"/>
      <point x="184" y="467"/>
      <point x="160" y="436"/>
      <point x="160" y="401" type="curve" smooth="yes"/>
      <point x="160" y="365"/>
      <point x="186" y="339"/>
      <point x="224" y="339" type="curve" smooth="yes"/>
      <point x="262" y="339"/>
      <point x="287" y="365"/>
      <point x="287" y="401" type="curve" smooth="yes"/>
      <point x="287" y="436"/>
      <point x="263" y="467"/>
    </contour>
    <contour>
      <point x="103" y="224" type="curve" smooth="yes"/>
      <point x="352" y="224" type="line" smooth="yes"/>
      <point x="379" y="224"/>
      <point x="402" y="201"/>
      <point x="402" y="174" type="curve" smooth="yes"/>
      <point x="402" y="147"/>
      <point x="379" y="124"/>
      <point x="352" y="124" type="curve" smooth="yes"/>
      <point x="103" y="124" type="line" smooth="yes"/>
      <point x="76" y="124"/>
      <point x="53" y="147"/>
      <point x="53" y="174" type="curve" smooth="yes"/>
      <point x="53" y="201"/>
      <point x="76" y="224"/>
    </contour>
  </outline>
</glyph>
<glyph name="guillemotright" format="1">
  <advance width="448"/>
  <unicode hex="00BB"/>
  <outline>
    <contour>
      <point x="54" y="107" type="curve" smooth="yes"/>
      <point x="165" y="231" type="line" smooth="yes"/>
      <point x="183" y="251"/>
      <point x="215" y="253"/>
      <point x="235" y="235" type="curve" smooth="yes"/>
      <point x="255" y="217"/>
      <point x="257" y="185"/>
      <point x="239" y="165" type="curve" smooth="yes"/>
      <point x="128" y="41" type="line" smooth="yes"/>
      <point x="110" y="21"/>
      <point x="78" y="19"/>
      <point x="58" y="37" type="curve" smooth="yes"/>
      <point x="38" y="55"/>
      <point x="36" y="87"/>
    </contour>
    <contour>
      <point x="165" y="169" type="curve" smooth="yes"/>
      <point x="54" y="293" type="line" smooth="yes"/>
      <point x="36" y="313"/>
      <point x="38" y="345"/>
      <point x="58" y="363" type="curve" smooth="yes"/>
      <point x="78" y="381"/>
      <point x="110" y="379"/>
      <point x="128" y="359" type="curve" smooth="yes"/>
      <point x="239" y="235" type="line" smooth="yes"/>
      <point x="257" y="215"/>
      <point x="255" y="183"/>
      <point x="235" y="165" type="curve" smooth="yes"/>
      <point x="215" y="147"/>
      <point x="183" y="149"/>
    </contour>
    <contour>
      <point x="224" y="107" type="curve" smooth="yes"/>
      <point x="335" y="231" type="line" smooth="yes"/>
      <point x="353" y="251"/>
      <point x="385" y="253"/>
      <point x="405" y="235" type="curve" smooth="yes"/>
      <point x="425" y="217"/>
      <point x="427" y="185"/>
      <point x="409" y="165" type="curve" smooth="yes"/>
      <point x="298" y="41" type="line" smooth="yes"/>
      <point x="280" y="21"/>
      <point x="248" y="19"/>
      <point x="228" y="37" type="curve" smooth="yes"/>
      <point x="208" y="55"/>
      <point x="206" y="87"/>
    </contour>
    <contour>
      <point x="335" y="169" type="curve" smooth="yes"/>
      <point x="224" y="293" type="line" smooth="yes"/>
      <point x="206" y="313"/>
      <point x="208" y="345"/>
      <point x="228" y="363" type="curve" smooth="yes"/>
      <point x="248" y="381"/>
      <point x="280" y="379"/>
      <point x="298" y="359" type="curve" smooth="yes"/>
      <point x="409" y="235" type="line" smooth="yes"/>
      <point x="427" y="215"/>
      <point x="425" y="183"/>
      <point x="405" y="165" type="curve" smooth="yes"/>
      <point x="385" y="147"/>
      <point x="353" y="149"/>
    </contour>
  </outline>
</glyph>
